<svg width="24" height="24" fill="none" xmlns="http://www.w3.org/2000/svg"><g clip-path="url(#a)"><path fill-rule="evenodd" clip-rule="evenodd" d="M9.784 3.154h13.433c.285.334.504.725.637 1.154H9.147c.134-.429.352-.82.637-1.154zM9 5.462h15v1.154H9V5.462zM24 7.77H9v1.153h15V7.77zM9 10.077h15v1.154H9v-1.154zm15 2.308H9v1.154h15v-1.154zM9.147 14.693h14.707a3.27 3.27 0 0 1-.637 1.154H9.784a3.274 3.274 0 0 1-.637-1.154z" fill="#F5F5F5"/><path fill-rule="evenodd" clip-rule="evenodd" d="M20.719 2H12.28c-1 0-1.896.448-2.498 1.154h13.434A3.274 3.274 0 0 0 20.719 2zM24 6.615H9V7.77h15V6.615zm-.147-2.307c.096.308.147.635.147.974v.18H9v-.18c0-.34.051-.666.147-.974h14.706zM24 8.923H9v1.154h15V8.923zm0 4.616v.18c0 .34-.051.666-.147.974H9.147A3.28 3.28 0 0 1 9 13.719v-.18h15zm-.783 2.307H9.783A3.274 3.274 0 0 0 12.281 17h8.438c1 0 1.896-.448 2.498-1.154zM9 11.231h15v1.154H9V11.23v.001z" fill="#FA4051"/><path d="M17 2h-4.75C10.455 2 9 3.47 9 5.281v4.796h8V2z" fill="#1939C9"/><path fill-rule="evenodd" clip-rule="evenodd" d="m11.613 2.721.062.187.197.002c.025 0 .036.032.015.047l-.158.117.06.188a.027.027 0 0 1-.041.03l-.16-.115-.16.114a.027.027 0 0 1-.04-.014.027.027 0 0 1 0-.016l.058-.187-.158-.117a.025.025 0 0 1-.01-.013.026.026 0 0 1 .01-.03.026.026 0 0 1 .016-.004l.196-.002.063-.187a.027.027 0 0 1 .025-.017.027.027 0 0 1 .025.017zm-1.743.541a.027.027 0 0 0 .04.03l.16-.115.16.115a.027.027 0 0 0 .03-.002.027.027 0 0 0 .01-.028l-.057-.187.158-.117a.027.027 0 0 0 .009-.013.028.028 0 0 0 0-.017.027.027 0 0 0-.025-.018l-.196-.002-.034-.1a3.302 3.302 0 0 0-.241.233l.046.034-.06.187zm.226 1.016.063.187.196.001c.026 0 .036.033.016.048l-.158.117.059.187a.027.027 0 0 1-.025.034.027.027 0 0 1-.015-.004l-.16-.115-.16.115a.027.027 0 0 1-.042-.03l.06-.187-.158-.117a.027.027 0 0 1 .015-.048l.197-.001.062-.187a.027.027 0 0 1 .025-.017.027.027 0 0 1 .025.017zm.064 1.912-.063-.186a.027.027 0 0 0-.025-.017.027.027 0 0 0-.025.017l-.062.186-.197.002a.027.027 0 0 0-.015.048l.158.117-.06.187a.027.027 0 0 0 .04.03l.16-.115.16.115a.027.027 0 0 0 .042-.014.027.027 0 0 0 0-.016l-.06-.187.159-.117a.027.027 0 0 0 .009-.013.028.028 0 0 0 0-.017.027.027 0 0 0-.025-.018l-.196-.002zm-.063 1.4.063.187.196.002c.026 0 .036.032.016.047l-.158.117.059.188a.027.027 0 0 1-.025.034.027.027 0 0 1-.015-.004l-.16-.115-.16.114a.027.027 0 0 1-.042-.03l.06-.187-.158-.117a.027.027 0 0 1 .015-.047l.197-.002.062-.187a.027.027 0 0 1 .025-.017.027.027 0 0 1 .025.017zm.063 1.63-.063-.187a.027.027 0 0 0-.025-.017.027.027 0 0 0-.025.017l-.062.187-.197.002a.027.027 0 0 0-.015.047l.158.117-.06.188a.027.027 0 0 0 .04.03l.16-.115.16.114a.027.027 0 0 0 .042-.014.027.027 0 0 0 0-.016l-.06-.187.159-.117a.026.026 0 0 0 .008-.013.027.027 0 0 0-.01-.028.027.027 0 0 0-.014-.006l-.196-.002zm.694-5.762.062.186.197.002c.026 0 .036.032.016.048l-.16.116.06.188a.027.027 0 0 1-.041.03l-.16-.115-.16.115a.027.027 0 0 1-.038-.014.027.027 0 0 1-.001-.016l.059-.188-.16-.116a.026.026 0 0 1-.01-.013.026.026 0 0 1 0-.017.026.026 0 0 1 .027-.018l.197-.002.062-.186a.027.027 0 0 1 .025-.017.027.027 0 0 1 .025.017zm.062 1.913-.062-.187a.027.027 0 0 0-.025-.017.027.027 0 0 0-.025.017l-.062.187-.197.001a.027.027 0 0 0-.025.035c.001.005.005.01.009.013l.159.117-.06.187a.027.027 0 0 0 .01.03.027.027 0 0 0 .03 0l.16-.115.16.115a.027.027 0 0 0 .03-.002.027.027 0 0 0 .01-.028l-.058-.187.159-.117a.027.027 0 0 0 .009-.013.028.028 0 0 0 0-.017.027.027 0 0 0-.025-.018l-.197-.001zm-.062 1.453.062.187.197.001c.026 0 .036.033.016.048l-.16.117.06.188a.027.027 0 0 1-.025.034.027.027 0 0 1-.014-.004l-.161-.115-.16.114a.027.027 0 0 1-.04-.014.027.027 0 0 1 0-.016l.059-.187-.16-.117a.027.027 0 0 1-.008-.013.026.026 0 0 1 0-.017.027.027 0 0 1 .025-.018l.197-.001.062-.187a.027.027 0 0 1 .025-.017.027.027 0 0 1 .025.017zm.062 1.66-.063-.184a.027.027 0 0 0-.025-.017.027.027 0 0 0-.025.017l-.062.186-.197.002a.027.027 0 0 0-.025.035c.001.005.005.01.009.013l.159.116-.06.188a.027.027 0 0 0 .01.03.027.027 0 0 0 .03 0l.16-.115.16.115a.027.027 0 0 0 .03-.002.027.027 0 0 0 .01-.028l-.058-.188.159-.116a.027.027 0 0 0 .009-.013.028.028 0 0 0 0-.017.027.027 0 0 0-.025-.018l-.197-.002v-.002zm.76-4.02-.062-.187a.027.027 0 0 0-.025-.017.027.027 0 0 0-.025.017l-.063.187-.196.001a.027.027 0 0 0-.025.035c.001.005.005.01.009.013l.158.117-.06.187a.027.027 0 0 0 .026.034c.005 0 .01-.001.015-.004l.16-.115.16.115a.027.027 0 0 0 .042-.013.026.026 0 0 0 0-.017l-.06-.187.158-.117a.027.027 0 0 0 0-.042.027.027 0 0 0-.015-.006l-.197-.001zm-.062 1.54.062.186.197.002c.025 0 .036.033.015.048l-.158.117.06.187a.027.027 0 0 1-.041.03l-.16-.115-.16.115a.027.027 0 0 1-.04-.014.027.027 0 0 1 0-.016l.058-.187-.158-.117a.026.026 0 0 1-.01-.013.026.026 0 0 1 .001-.017.027.027 0 0 1 .025-.018l.195-.002.063-.186a.027.027 0 0 1 .025-.017.027.027 0 0 1 .025.017zm.062 1.773-.062-.187a.027.027 0 0 0-.025-.017.027.027 0 0 0-.025.017l-.063.187-.196.002a.027.027 0 0 0-.024.018.026.026 0 0 0 0 .016c.001.005.004.01.008.013l.158.117-.06.188a.027.027 0 0 0 .026.034c.005 0 .01-.001.015-.004l.16-.115.16.114a.027.027 0 0 0 .042-.013.026.026 0 0 0 0-.017l-.06-.187.158-.117a.027.027 0 0 0 .008-.028.027.027 0 0 0-.023-.019l-.197-.002zm-.062 1.256.062.187.197.002c.025 0 .036.032.015.047l-.158.117.06.188a.027.027 0 0 1-.041.03l-.16-.115-.16.114a.027.027 0 0 1-.04-.014.027.027 0 0 1 0-.016l.058-.187-.158-.117a.027.027 0 0 1-.008-.013.026.026 0 0 1 .01-.028.027.027 0 0 1 .014-.006l.195-.002.063-.187a.027.027 0 0 1 .025-.017.027.027 0 0 1 .025.017zm.818-5.389-.062-.184a.027.027 0 0 0-.025-.017.027.027 0 0 0-.025.017l-.063.186-.196.002a.027.027 0 0 0-.025.035c.001.005.005.01.009.013l.158.116-.06.188a.027.027 0 0 0 .042.03l.16-.115.16.115a.027.027 0 0 0 .03-.002.027.027 0 0 0 .01-.028l-.06-.188.159-.116a.026.026 0 0 0-.015-.048l-.197-.002v-.002zm-.062 1.54.062.187.197.001c.025 0 .036.033.015.048l-.158.117.06.187a.027.027 0 0 1-.041.03l-.16-.115-.16.115a.027.027 0 0 1-.041-.03l.06-.187-.16-.117a.026.026 0 0 1-.008-.013.026.026 0 0 1 0-.017.027.027 0 0 1 .025-.018l.196-.002.062-.186a.027.027 0 0 1 .025-.017c.005 0 .01.002.015.005a.03.03 0 0 1 .01.012zm.062 1.827-.062-.187a.026.026 0 0 0-.05 0l-.063.187-.196.001a.027.027 0 0 0-.025.035c.001.005.005.01.009.013l.158.117-.06.188a.027.027 0 0 0 .042.03l.16-.115.16.114a.027.027 0 0 0 .03-.002.027.027 0 0 0 .01-.028l-.06-.187.159-.117a.027.027 0 0 0 0-.042.027.027 0 0 0-.015-.006l-.197-.001zm-.062 1.288.062.186.197.002c.025 0 .036.032.015.048l-.158.116.06.188a.027.027 0 0 1-.041.03l-.16-.115-.16.115a.027.027 0 0 1-.041-.03l.06-.188-.16-.116a.026.026 0 0 1-.008-.013.026.026 0 0 1 0-.017.027.027 0 0 1 .025-.018l.196-.002.062-.186a.027.027 0 0 1 .025-.017c.005 0 .01.002.015.005a.03.03 0 0 1 .01.012zm.822-5.39-.062-.188a.027.027 0 0 0-.025-.017.027.027 0 0 0-.025.017l-.063.187-.197.002a.026.026 0 0 0-.015.047l.158.117-.06.188a.027.027 0 0 0 .01.03.027.027 0 0 0 .03 0l.16-.115.16.114a.027.027 0 0 0 .042-.014.027.027 0 0 0 0-.016l-.06-.187.16-.117a.026.026 0 0 0 0-.042.026.026 0 0 0-.016-.005l-.197-.001zm-.062 1.369.062.187.197.001c.025 0 .036.033.015.048l-.158.117.06.187a.027.027 0 0 1-.042.03l-.16-.115-.16.115a.027.027 0 0 1-.04-.014.027.027 0 0 1 0-.016l.059-.187-.158-.117a.027.027 0 0 1-.01-.03.027.027 0 0 1 .025-.018l.197-.002.062-.186a.027.027 0 0 1 .025-.017c.005 0 .01.002.015.005a.03.03 0 0 1 .01.012zm.06 1.912-.062-.186a.027.027 0 0 0-.025-.017.027.027 0 0 0-.025.017l-.063.186-.197.002a.027.027 0 0 0-.024.019.027.027 0 0 0 .009.029l.158.117-.06.187a.027.027 0 0 0 .01.03.027.027 0 0 0 .03 0l.16-.115.16.115a.027.027 0 0 0 .042-.014.027.027 0 0 0 0-.016l-.06-.187.16-.117a.027.027 0 0 0 .009-.013.028.028 0 0 0 0-.017.027.027 0 0 0-.025-.018l-.197-.002zm-.062 1.4.062.187.197.002c.025 0 .036.032.015.047l-.158.117.06.188a.027.027 0 0 1-.042.03l-.16-.115-.16.114a.027.027 0 0 1-.04-.014.027.027 0 0 1 0-.016l.059-.187-.158-.117a.027.027 0 0 1-.008-.013.028.028 0 0 1 .009-.028.027.027 0 0 1 .014-.006l.197-.002.062-.187a.027.027 0 0 1 .025-.017c.005 0 .01.002.015.005a.03.03 0 0 1 .01.012zm.062 1.63-.062-.187a.027.027 0 0 0-.025-.017.027.027 0 0 0-.025.017l-.063.187-.197.002a.027.027 0 0 0-.023.019.028.028 0 0 0 0 .015c.001.005.004.01.008.013l.158.117-.06.188a.027.027 0 0 0 .01.03.027.027 0 0 0 .03 0l.16-.115.16.114a.027.027 0 0 0 .042-.014.027.027 0 0 0 0-.016l-.06-.187.16-.117a.026.026 0 0 0 .008-.013.027.027 0 0 0-.01-.028.027.027 0 0 0-.014-.006l-.197-.002zm.694-5.762.063.186.196.002c.026 0 .036.032.016.048L14 3.81l.059.19a.027.027 0 0 1-.025.034.027.027 0 0 1-.015-.004l-.16-.115-.16.115a.027.027 0 0 1-.041-.03l.059-.188-.158-.116a.027.027 0 0 1-.01-.03.027.027 0 0 1 .025-.018l.197-.002.062-.186a.026.026 0 0 1 .05 0v-.002zm.063 1.913-.063-.187a.026.026 0 0 0-.05 0l-.062.187-.197.001a.027.027 0 0 0-.024.019.027.027 0 0 0 .009.029l.158.117-.06.187a.027.027 0 0 0 .01.03.027.027 0 0 0 .03 0l.16-.115.16.115a.027.027 0 0 0 .041-.014.027.027 0 0 0 0-.016L14 5.537l.16-.117a.027.027 0 0 0 .009-.013.028.028 0 0 0 0-.017.027.027 0 0 0-.025-.018l-.196-.001zm-.063 1.453.063.187.196.001c.026 0 .036.033.016.048L14 7.177l.059.188a.027.027 0 0 1-.025.034.027.027 0 0 1-.015-.004l-.16-.115-.16.114a.027.027 0 0 1-.041-.03l.059-.187-.158-.117a.027.027 0 0 1-.01-.03.027.027 0 0 1 .025-.018l.197-.001.062-.187a.026.026 0 0 1 .05 0zm.063 1.66-.062-.184a.026.026 0 0 0-.05 0l-.062.186-.197.002a.027.027 0 0 0-.024.019.027.027 0 0 0 .009.029l.158.116-.06.188a.027.027 0 0 0 .01.03.027.027 0 0 0 .03 0l.16-.115.16.115a.027.027 0 0 0 .041-.014.027.027 0 0 0 0-.016L14 8.652l.16-.116a.027.027 0 0 0 .009-.013.028.028 0 0 0 0-.017.027.027 0 0 0-.025-.018l-.196-.002-.001-.002zm.695-5.764.063.187.196.002c.026 0 .036.032.016.047l-.158.117.059.188a.027.027 0 0 1-.025.034.027.027 0 0 1-.015-.004l-.16-.115-.16.114a.027.027 0 0 1-.042-.03l.06-.187-.16-.117a.025.025 0 0 1-.009-.013.026.026 0 0 1 .01-.03.026.026 0 0 1 .016-.004l.197-.002.062-.187a.026.026 0 0 1 .05 0zm.063 1.744-.063-.187a.027.027 0 0 0-.025-.017.027.027 0 0 0-.025.017l-.062.187-.197.001a.027.027 0 0 0-.025.035c.001.005.005.01.009.013l.159.117-.06.187a.027.027 0 0 0 .01.03.027.027 0 0 0 .03 0l.16-.115.16.115a.027.027 0 0 0 .03-.002.027.027 0 0 0 .01-.028l-.057-.187.158-.117a.027.027 0 0 0 .009-.013.028.028 0 0 0 0-.017.027.027 0 0 0-.025-.018l-.196-.001zm-.063 1.54.063.186.196.002c.026 0 .036.033.016.048l-.158.117.059.187a.027.027 0 0 1-.025.034.027.027 0 0 1-.015-.004l-.16-.115-.16.115a.027.027 0 0 1-.042-.03l.06-.187-.16-.117a.026.026 0 0 1-.008-.013.026.026 0 0 1 0-.017.027.027 0 0 1 .025-.018l.197-.002.062-.186a.027.027 0 0 1 .025-.017.027.027 0 0 1 .025.017zm.063 1.773-.063-.187a.027.027 0 0 0-.025-.017.027.027 0 0 0-.025.017l-.062.187-.197.002a.027.027 0 0 0-.024.018.026.026 0 0 0 0 .016c.001.005.004.01.008.013l.159.117-.06.188a.027.027 0 0 0 .01.03.027.027 0 0 0 .03 0l.16-.115.16.114a.027.027 0 0 0 .03-.002.027.027 0 0 0 .01-.028l-.057-.187.158-.117a.026.026 0 0 0 .008-.013.027.027 0 0 0-.01-.028.027.027 0 0 0-.014-.006l-.196-.002zm-.063 1.256.063.187.196.002c.026 0 .036.032.016.047l-.158.117.059.188a.027.027 0 0 1-.025.034.027.027 0 0 1-.015-.004l-.16-.115-.16.114a.027.027 0 0 1-.042-.03l.06-.187-.16-.117a.027.027 0 0 1-.007-.013.026.026 0 0 1 .01-.028.027.027 0 0 1 .014-.006l.197-.002.062-.187a.027.027 0 0 1 .025-.017.027.027 0 0 1 .025.017zm.818-5.389-.06-.184a.027.027 0 0 0-.025-.017.027.027 0 0 0-.025.017l-.062.186-.197.002a.027.027 0 0 0-.025.035c.001.005.004.01.009.013l.159.116-.06.188a.027.027 0 0 0 .025.034c.005 0 .01-.001.015-.004l.16-.115.16.115a.027.027 0 0 0 .03-.002.027.027 0 0 0 .01-.028l-.058-.188.159-.116a.026.026 0 0 0-.016-.048l-.197-.002-.002-.002zm-.06 1.541.062.187.197.001c.026 0 .036.033.016.048l-.16.117.06.187a.027.027 0 0 1-.041.03l-.16-.115-.16.115a.027.027 0 0 1-.039-.014.027.027 0 0 1 0-.016l.059-.187-.16-.117a.026.026 0 0 1-.008-.013.026.026 0 0 1 0-.017.027.027 0 0 1 .025-.018l.197-.002.062-.186a.027.027 0 0 1 .025-.017.027.027 0 0 1 .025.017zm.062 1.827-.062-.187a.027.027 0 0 0-.025-.017.027.027 0 0 0-.025.017l-.062.187-.197.001a.027.027 0 0 0-.025.035c.001.005.004.01.009.013l.159.117-.06.188a.027.027 0 0 0 .025.034c.005 0 .01-.001.015-.004l.16-.115.16.114a.027.027 0 0 0 .03-.002.027.027 0 0 0 .01-.028l-.058-.187.159-.117a.027.027 0 0 0 .009-.013.028.028 0 0 0 0-.017.027.027 0 0 0-.025-.018l-.197-.001zM15.4 8.299l.062.186.197.002c.026 0 .036.032.016.048l-.16.116.06.188a.027.027 0 0 1-.041.03l-.16-.115-.16.115a.027.027 0 0 1-.039-.014.027.027 0 0 1 0-.016l.059-.188-.16-.116a.026.026 0 0 1-.008-.013.026.026 0 0 1 0-.017.027.027 0 0 1 .025-.018l.197-.002.062-.186a.027.027 0 0 1 .025-.017.027.027 0 0 1 .025.017zm.82-5.39-.061-.188a.026.026 0 0 0-.05 0l-.063.187-.196.002a.026.026 0 0 0-.025.018.026.026 0 0 0 0 .016c.001.005.004.01.009.013l.158.117-.06.188a.027.027 0 0 0 .026.034c.005 0 .01-.001.015-.004l.16-.115.16.114a.027.027 0 0 0 .042-.013.026.026 0 0 0 0-.017l-.06-.187.158-.117a.027.027 0 0 0 .008-.028.027.027 0 0 0-.023-.019l-.197-.001zm-.061 1.369.062.187.197.001c.025 0 .036.033.015.048l-.158.117.06.187a.027.027 0 0 1-.041.03l-.16-.115-.16.115a.027.027 0 0 1-.041-.03l.06-.187-.16-.117a.027.027 0 0 1-.008-.013.026.026 0 0 1 0-.017.027.027 0 0 1 .025-.018l.196-.001.063-.187a.027.027 0 0 1 .025-.017.027.027 0 0 1 .025.017zm.06 1.912-.061-.186a.027.027 0 0 0-.025-.017.027.027 0 0 0-.025.017l-.063.186-.196.002a.027.027 0 0 0-.025.035c.001.005.005.01.009.013l.158.117-.06.187a.027.027 0 0 0 .026.034c.005 0 .01-.001.015-.004l.16-.115.16.115a.027.027 0 0 0 .042-.013.026.026 0 0 0 0-.017l-.06-.187.158-.117a.027.027 0 0 0 0-.042.027.027 0 0 0-.015-.006l-.197-.002zm-.061 1.4.062.187.197.002c.025 0 .036.032.015.047l-.158.117.06.188a.027.027 0 0 1-.041.03l-.16-.115-.16.114a.027.027 0 0 1-.041-.03l.06-.187-.16-.117a.027.027 0 0 1-.007-.013.026.026 0 0 1 .01-.028.027.027 0 0 1 .014-.006l.196-.002.063-.187a.027.027 0 0 1 .025-.017.027.027 0 0 1 .025.017zm.062 1.63-.062-.187a.027.027 0 0 0-.025-.017.027.027 0 0 0-.025.017l-.063.187-.196.002a.027.027 0 0 0-.024.018.026.026 0 0 0 0 .016c.001.005.004.01.008.013l.158.117-.06.188a.027.027 0 0 0 .026.034c.005 0 .01-.001.015-.004l.16-.115.16.114a.027.027 0 0 0 .042-.013.026.026 0 0 0 0-.017l-.06-.187.158-.117a.027.027 0 0 0 .008-.028.027.027 0 0 0-.023-.019l-.197-.002z" fill="#F5F5F5"/><path d="M11.719 7H3.28A3.281 3.281 0 0 0 0 10.281v8.438A3.28 3.28 0 0 0 3.281 22h8.438A3.281 3.281 0 0 0 15 18.719V10.28A3.281 3.281 0 0 0 11.719 7z" fill="#C3A634"/><path d="m5.66 9.283-.143-.097a.055.055 0 0 0-.08.02.049.049 0 0 0-.004.028l.022.134-.014.537a.052.052 0 0 1-.017.037l-.014.014a.088.088 0 0 0-.025.043c-.042.166-.084.338-.121.51a.246.246 0 0 1-.068.118l-.12.123c-.152.156-.133.182.064.08.15-.08.298-.174.456-.287.05-.037.14-.048.261-.034.023.002.043.01.057.026.05.051.104.089.163.121.02.008.03.027.034.048.014.092 0 .188-.068.258a.71.71 0 0 0-.191.488.064.064 0 0 1-.034.06c-.143.08-.152.233-.27.34a1.314 1.314 0 0 1-.174.129l-.012-.36a.08.08 0 0 0-.028-.059.089.089 0 0 0-.064-.021c-.045 0-.09.027-.13.07a.9.9 0 0 1-.377.26c-.118.027-.197.115-.244.268a.49.49 0 0 1-.104.156c.014-.245-.102-.355-.346-.33-.054.005-.138.053-.253.147a.085.085 0 0 0-.029.048.437.437 0 0 1-.27.322c-.047.011-.07-.01-.067-.056 0-.008 0-.013.006-.021.185-.336.188-.736.511-1.004.087-.077.187-.138.296-.182.56-.188.852-.54.88-1.063l.017-.525c.004-.19.035-.38.093-.561a.098.098 0 0 1 .048-.056.106.106 0 0 1 .075-.008l.155.04a.06.06 0 0 1 .042.035l.085.204h.003z" fill="#E1B051"/><path d="m5.66 9.283.104.115c.158.206.287.43.394.665.034.078.115.161.25.255.076.056 0 .086-.233.08a1.702 1.702 0 0 1-.41-.469.441.441 0 0 1-.068-.201.45.45 0 0 0-.152-.303.038.038 0 0 0-.038-.008.037.037 0 0 0-.016.011.034.034 0 0 0-.008.018l-.003.065a.303.303 0 0 1-.028-.14l-.017-.137c0-.01.001-.019.006-.027a.052.052 0 0 1 .02-.021.055.055 0 0 1 .056 0l.14.097h.003z" fill="#B87C29"/><path d="M10.09 9.393c-.059.005-.09.042-.084.107 0 .102.056.172.056.268 0 .062-.002.12-.008.183-.011.142.118.273.157.407a.99.99 0 0 1 .04.486 3.976 3.976 0 0 0-.062.43.235.235 0 0 1-.093.174.042.042 0 0 0-.011.054l.017.015c.07.04.118.097.14.167a.033.033 0 0 0 .012.017.035.035 0 0 0 .04.001.032.032 0 0 0 .013-.016.342.342 0 0 0 .042-.177c.028.027.048.054.05.07.057.147.125.292.198.43.079.152.126.28.149.388.048.23.079.462.093.69.005.11.04.276.084.375.121.29.205.582.253.883v.6a.066.066 0 0 0 .017.054c.07.089.087.196.056.322-.014.06 0 .108.042.143.02.016.029.034.029.059a.442.442 0 0 1-.116.281.52.52 0 0 0-.118.188c-.067.196-.205.378-.422.43a.135.135 0 0 0-.081.056c-.087.14-.113.263-.293.327a.053.053 0 0 1-.053-.008c-.05-.035-.107-.027-.169.019.037-.134.084-.269.146-.395a.647.647 0 0 1 .127-.177c.096-.102.124-.23.084-.391a.076.076 0 0 1 .014-.062c.096-.132.15-.268.26-.397a.581.581 0 0 0 .14-.408.024.024 0 0 0-.014-.021h-.017a.028.028 0 0 0-.011.008c-.17.174-.397.279-.535.482-.177.269-.39.494-.641.685a.142.142 0 0 0-.056.128c.017.127 0 .266.177.269.028.002.04.016.04.04a.23.23 0 0 1-.049.142c-.084.115-.165.231-.244.349 0 .009.003.017.01.024.006.006.014.01.023.01l.045.003c-.05.027-.095.062-.157.067-.169.017-.278-.008-.33-.067.097-.115.184-.206.26-.276a.281.281 0 0 0 .096-.279.046.046 0 0 0-.043-.024.45.45 0 0 0-.118.032.04.04 0 0 1-.043-.004.038.038 0 0 1-.013-.017.036.036 0 0 1 0-.022.486.486 0 0 0 .011-.169.057.057 0 0 1 .008-.043l.155-.25a.019.019 0 0 0 .003-.014.018.018 0 0 0-.009-.012.02.02 0 0 0-.012-.004.02.02 0 0 0-.013.004.655.655 0 0 1-.337.182c-.026.006-.04-.005-.048-.026l-.006-.022.003-.003a.438.438 0 0 0 .174-.107.227.227 0 0 0 .057-.153c0-.163.247-.367.362-.477a.136.136 0 0 0 .042-.126 3.395 3.395 0 0 1-.047-.296c-.003-.034.011-.059.042-.072a.047.047 0 0 1 .028-.005c.009 0 .017.005.025.01l.023.022c.02.016.037.013.048-.008l.101-.161a.049.049 0 0 0 .006-.032.477.477 0 0 1 .163-.46.293.293 0 0 0 .073-.181.047.047 0 0 0-.028-.049l-.085-.054a.054.054 0 0 1-.022-.022.051.051 0 0 1-.006-.031.436.436 0 0 1 .093-.215c.011-.013.011-.027-.003-.037-.064-.049-.112-.17-.056-.242a.168.168 0 0 0 .028-.07.041.041 0 0 0-.011-.04c-.084-.075-.101-.155-.048-.244.009-.019.009-.035-.006-.048l-.137-.137a.046.046 0 0 1-.014-.04.139.139 0 0 0-.037-.107.029.029 0 0 0-.023-.01.03.03 0 0 0-.013.004.027.027 0 0 0-.009.01.639.639 0 0 1-.076.135l-.017.005c-.014 0-.02-.008-.017-.021l.028-.134c.006-.022-.002-.035-.028-.035l-.208-.008a.03.03 0 0 0-.014.003.027.027 0 0 0-.015.023c0 .005.001.01.004.014l.076.107a.026.026 0 0 1 .003.024.027.027 0 0 1-.02.017.115.115 0 0 1-.073-.011l-.186-.089a.134.134 0 0 0-.062-.01l-.14.008c-.031 0-.05-.011-.057-.038l-.008-.021a.043.043 0 0 0-.019-.026.047.047 0 0 0-.032-.007 1.827 1.827 0 0 1-.562.02.082.082 0 0 0-.046.008.077.077 0 0 0-.033.031 1.71 1.71 0 0 1-.47.548c-.061.045-.132.067-.202.091a.13.13 0 0 0-.056.035c-.116.123-.22.094-.377.091-.169-.003-.332-.01-.495-.019a.26.26 0 0 0-.113-.043.052.052 0 0 1-.028-.014.047.047 0 0 1-.014-.029.99.99 0 0 0-.146-.431.05.05 0 0 0-.021-.021.054.054 0 0 0-.057.004.05.05 0 0 0-.018.022l-.098.247a.062.062 0 0 1-.045.037.065.065 0 0 1-.056-.016.058.058 0 0 1-.017-.035l-.026-.155a.335.335 0 0 0-.02-.073l-.056-.147a.033.033 0 0 1 0-.025.035.035 0 0 1 .017-.018.037.037 0 0 1 .017-.003h.037c.02 0 .03-.008.04-.027.033-.102.08-.201.134-.295a.204.204 0 0 0-.003-.215c-.01-.018-.028-.02-.045-.005a2.318 2.318 0 0 0-.332.333c-.028.04-.047.035-.056-.014a.053.053 0 0 0-.014-.035c-.014-.01-.028-.013-.048-.005-.171.08-.303.175-.393.287a.26.26 0 0 1-.158.1c-.022.002-.028-.006-.025-.027.058-.143.131-.28.22-.408.027-.038.016-.075-.029-.113-.014-.016-.028-.016-.045 0l-.21.188c-.001-.02.006-.039.019-.054a.75.75 0 0 0 .197-.31c.042.002.067-.012.076-.041a.618.618 0 0 1 .098-.201c.062-.038.121-.08.174-.13.119-.106.127-.26.27-.34a.065.065 0 0 0 .026-.025.062.062 0 0 0 .008-.034c0-.188.065-.349.191-.488a.307.307 0 0 0 .068-.258.06.06 0 0 0-.01-.028.064.064 0 0 0-.024-.02.622.622 0 0 1-.16-.12.095.095 0 0 0-.056-.027c-.127-.014-.214 0-.265.034-.157.113-.31.21-.455.288-.197.101-.217.075-.065-.081l.12-.123a.266.266 0 0 0 .068-.119l.121-.51a.088.088 0 0 1 .026-.042l.014-.014a.052.052 0 0 0 .017-.037l.014-.537a.277.277 0 0 0 .025.143.228.228 0 0 0 .096.115c.01.006.02.014.025.025.006.01.009.022.008.034a.06.06 0 0 1-.012.033.064.064 0 0 1-.03.02c-.124.049-.112.196-.036.277a.49.49 0 0 1 .126.255c.003.032.023.053.054.072.157.08.309.1.464.06.23 0 .309-.028.233-.081.31.018.605.059.886.12.084.017.172.027.259.027.163 0 .312.043.478.057.163.013.326.053.478-.022a.622.622 0 0 0 .21-.174.4.4 0 0 0 .265-.08.696.696 0 0 0 .14-.159.118.118 0 0 1 .043-.032.54.54 0 0 0 .29-.293c.036-.088.017-.187.02-.281 0-.02.008-.04.022-.054.132-.142.45-.11.59-.037z" fill="#C89539"/><path d="M10.09 9.393a.514.514 0 0 1 .246.321c.134.378.174.78.118 1.175l-.104.62a.342.342 0 0 1-.043.177.033.033 0 0 1-.013.014.035.035 0 0 1-.037-.002.032.032 0 0 1-.011-.014.299.299 0 0 0-.144-.167.044.044 0 0 1-.02-.023.041.041 0 0 1 0-.03.045.045 0 0 1 .014-.017.242.242 0 0 0 .093-.174c.014-.15.034-.292.062-.43a.978.978 0 0 0-.04-.482c-.039-.134-.168-.268-.157-.41l.009-.18c0-.1-.056-.17-.056-.271-.006-.065.025-.1.084-.107zM6.18 10.4a.645.645 0 0 1-.467-.059.098.098 0 0 1-.038-.03.092.092 0 0 1-.018-.042.486.486 0 0 0-.124-.255c-.073-.08-.085-.228.036-.276a.065.065 0 0 0 .03-.021.06.06 0 0 0 .013-.033.062.062 0 0 0-.009-.034.066.066 0 0 0-.025-.025.214.214 0 0 1-.096-.115l.003-.065c0-.006.003-.013.008-.018a.037.037 0 0 1 .016-.011.038.038 0 0 1 .038.008.449.449 0 0 1 .152.303c.005.07.028.137.067.201.11.188.248.344.41.472h.004z" fill="#85511C"/><path d="M8.923 10.56a.07.07 0 0 1 .037-.014c.07-.008.095.019.078.08a.072.072 0 0 1-.028.038.57.57 0 0 0-.253.464c-.011.148.099.223.096.365l-.009.024a.05.05 0 0 1-.036.016c-.045-.002-.073-.026-.085-.064a.659.659 0 0 0-.106-.223.076.076 0 0 0-.04-.027.166.166 0 0 1-.07-.037.155.155 0 0 1-.042-.065.12.12 0 0 0-.034-.05l-.163-.135a.124.124 0 0 1-.04-.047.119.119 0 0 1-.01-.06.037.037 0 0 1 .012-.023.04.04 0 0 1 .027-.01c.008 0 .014 0 .02.006a.398.398 0 0 0 .235.06c.02 0 .037-.009.054-.022l.357-.277z" fill="#B87C29"/><path d="M9.87 11.126a1.477 1.477 0 0 1-.553.59.047.047 0 0 1-.033.003.045.045 0 0 1-.026-.02l-.037-.058a.071.071 0 0 0-.031-.027.076.076 0 0 0-.042-.006l-.191.025a.045.045 0 0 1-.024-.006.041.041 0 0 1-.017-.017.038.038 0 0 1 .007-.044c.11-.1.236-.218.281-.357a.412.412 0 0 1 .158-.207.03.03 0 0 0 .011-.014.028.028 0 0 0 .001-.017.03.03 0 0 0-.01-.015.032.032 0 0 0-.016-.008l-.107-.005a.054.054 0 0 1-.033-.014.05.05 0 0 1-.015-.031c0-.03.011-.054.04-.076a.95.95 0 0 0 .123-.11.147.147 0 0 1 .143-.046c.113.02.231.028.355.017.02-.001.039.004.055.015.017.01.029.026.035.044.02.059.025.12.014.177a.702.702 0 0 1-.087.207z" fill="#85511C"/><path d="M5.987 11.68c.062-.182.152-.383.273-.605.01-.022.028-.027.05-.016.037.013.05.04.048.077a.928.928 0 0 1-.169.446c-.098.144-.093.295-.138.456a.04.04 0 0 1-.014.018.044.044 0 0 1-.022.009c-.025.002-.042-.003-.05-.02a.222.222 0 0 1-.029-.13c.011-.079.028-.156.05-.234z" fill="#B87C29"/><path d="m7.022 12.338-.27.17c-.082.031-.15.034-.211.005-.107-.054-.115-.19-.135-.293a.215.215 0 0 1 .008-.118.976.976 0 0 0 .048-.198c.02-.17.183-.287.338-.365.143-.067.28-.046.413.07.183.16.107.391.06.59a.045.045 0 0 1-.015.023.048.048 0 0 1-.025.011.37.37 0 0 0-.208.105h-.003z" fill="#E1B051"/><path d="M5.373 11.979a.63.63 0 0 0-.098.2c-.008.03-.034.044-.076.041-.056-.228-.202-.343-.436-.349a.93.93 0 0 0 .377-.263.185.185 0 0 1 .13-.07c.011 0 .023.002.034.005a.089.089 0 0 1 .05.044.08.08 0 0 1 .008.032l.011.36zm4.619.217c.112-.008.182-.075.208-.204 0-.003.002-.007.005-.01a.025.025 0 0 1 .009-.006.027.027 0 0 1 .02 0l.022.008a.066.066 0 0 1 .031.027c.007.013.01.026.008.04-.033.23-.047.456-.045.67 0 .052-.02.06-.062.028-.036-.035-.064-.108-.078-.218a.074.074 0 0 0-.028-.053c-.099-.073-.203-.102-.225-.236a.656.656 0 0 1 .137-.553.028.028 0 0 1 .017-.01c.006 0 .012 0 .017.005v.01l-.056.156c-.006.024 0 .043.02.059.045.032.061.072.05.118a.085.085 0 0 1-.037.054.167.167 0 0 0-.056.056.039.039 0 0 0-.001.03c.003.01.011.019.021.024.006.005.014.005.023.005z" fill="#B87C29"/><path d="M4.764 11.871c.233.006.377.121.436.35a.778.778 0 0 1-.197.313l-.228.06c-.169-.162-.191-.339-.076-.537.006-.008.003-.014-.006-.02-.005-.005-.014-.002-.02.003a.491.491 0 0 1-.117.121c-.029-.002-.04-.01-.037-.027.045-.15.127-.241.245-.265v.002z" fill="#0B0802"/><path d="M4.415 12.293c0 .016-.003.026-.014.03-.048.045-.085.074-.11.08-.056.021-.084.059-.084.115a1.164 1.164 0 0 1-.034.247c-.04.147.014.236.155.268.028.008.06.008.088-.002a.14.14 0 0 0 .069-.052c.07-.09.15-.177.236-.26l.048-.01c.056 0 .056.032.003.101a.382.382 0 0 1-.068.07l-.202.156a.46.46 0 0 0-.107.112l-.084.13-.242.082.005-.018c0-.011.009-.017.023-.014.008 0 .017-.005.025-.019a.016.016 0 0 0 .003-.013 1.43 1.43 0 0 1-.042-.59l.053-.188c.02-.07.031-.145.031-.22a.306.306 0 0 0-.053-.177.055.055 0 0 0-.023-.021.06.06 0 0 0-.03-.006c-.093.005-.155.043-.183.115a.574.574 0 0 1-.107.188.704.704 0 0 0-.116.201c-.056.137-.12.26-.197.373a.882.882 0 0 1-.084.084.152.152 0 0 0-.04.117.089.089 0 0 1-.019.051.156.156 0 0 0-.034.108c0 .021.009.027.028.016a.064.064 0 0 1 .045 0c.107.062.221.11.34.145a.045.045 0 0 1 .018.035l-.003.018a.914.914 0 0 0-.085.48c.02.188.065.344.133.467.01.022.028.035.056.046.02.005.03 0 .034-.019l.01-.059.147.226c-.143.22-.022.413.07.614a.09.09 0 0 1-.01.091.846.846 0 0 1-.327.26c-.101.049-.197-.002-.264-.075l-.04-.027a.058.058 0 0 0-.056 0c-.056.027-.093.017-.113-.04-.073-.22-.14-.453-.202-.697a2.156 2.156 0 0 1 .093-1.315c.042-.115.076-.233.098-.357a2.4 2.4 0 0 1 .132-.432.434.434 0 0 1 .045-.077.086.086 0 0 0 .02-.049c0-.04.025-.075.068-.102a.437.437 0 0 0 .27-.322.085.085 0 0 1 .028-.048c.115-.094.2-.142.253-.147.244-.027.36.085.346.33z" fill="#EFE2AD"/><path d="M4.772 12.593c-.253-.032-.326-.174-.22-.432a.459.459 0 0 0 .121-.12c.006-.006.012-.009.02-.003.009.005.011.01.006.018-.116.199-.09.376.076.537h-.003zm.03-.515a.03.03 0 0 1 .016 0c.005.002.01.004.013.008a.026.026 0 0 1 .006.024.079.079 0 0 1-.019.034.085.085 0 0 1-.032.022c-.034.017-.048.006-.04-.026.009-.035.029-.054.057-.062z" fill="#FCF9F5"/><path d="M4.07 13.36a.11.11 0 0 0-.049.062.266.266 0 0 0-.084.134c.006-.075-.045-.072-.143.006-.13.096-.172.316-.17.464a.911.911 0 0 1 .088-.5.044.044 0 0 0-.017-.034 1.467 1.467 0 0 1-.34-.142.043.043 0 0 0-.045 0c-.02.008-.028.002-.028-.02a.139.139 0 0 1 .033-.107.072.072 0 0 0 .02-.053c0-.046.011-.086.042-.115.042-.043.07-.07.079-.084.079-.112.143-.236.2-.375a.768.768 0 0 1 .115-.199.574.574 0 0 0 .107-.188c.028-.072.09-.11.183-.115a.06.06 0 0 1 .032.005c.01.005.018.013.024.022a.304.304 0 0 1 .05.177c0 .075-.01.15-.03.223l-.054.187c-.027.2-.013.402.042.596l-.002.005c-.009.014-.017.02-.029.02-.01-.004-.02 0-.02.012l-.005.02z" fill="#FAF2CD"/><path d="M4.519 12.137c0 .013.008.021.037.024-.11.258-.037.402.219.43L5 12.533a.078.078 0 0 0-.017.051.417.417 0 0 1-.214.123l-.048.011c-.21-.008-.309-.22-.32-.397.011 0 .017-.013.014-.03a.523.523 0 0 0 .104-.155z" fill="#5B4F40"/><path d="M4.989 12.153c-.02.027-.02.06 0 .072.02.014.053.003.07-.021.02-.027.02-.059 0-.072-.02-.014-.053-.003-.07.021z" fill="#FCF9F5"/><path d="M6.592 13.521c-.042-.008-.062.008-.062.046.006.123-.006.236-.034.33a.82.82 0 0 0-.025.166c0 .124-.045.207.014.346l.006.285a.09.09 0 0 0 .022.059c.098.118.197.228.293.33.115.123.123.246.022.367-.084.1-.152.188-.29.218-.197.04-.377.107-.531.206-.113.072-.248.1-.377.14-.09.03-.093.061-.003.096l.287.116c.267.112.526.12.81.07.183-.033.262-.226.357-.355.093-.134.273-.131.397-.236.098-.08.213-.16.346-.236a.082.082 0 0 0 .039-.043c.04-.094.067-.19.163-.247.228-.134.45-.236.658-.306.197-.064.363-.171.554-.252a.047.047 0 0 1 .032 0c.01.003.02.01.025.019.014.021.014.04 0 .062-.099.153-.18.324-.33.44l-.433.348c-.095.075-.09.226-.107.336-.014.107-.081.198-.196.279a4.4 4.4 0 0 1-.35.214c-.07.038-.075.08-.01.132.014.01.033.019.056.019.022 0 .045.008.062.021l.171.142a.034.034 0 0 1 0 .054.038.038 0 0 1-.017.005c-.213.04-.438.08-.517.306a.06.06 0 0 0 .021.07c.007.005.015.008.024.01.04.011.079.006.112-.013.158-.08.35-.147.524-.08.106.04.213.059.32.059.101 0 .197.035.281.102.02.013.043.018.065.016a.194.194 0 0 0 .113-.057c.047.06.157.08.326.067.062-.005.107-.037.157-.067l.501-.29c.062-.048.118-.053.169-.018.017.01.034.013.053.008.18-.067.206-.188.293-.327a.142.142 0 0 1 .084-.057c.214-.05.352-.233.422-.429a.544.544 0 0 1 .112-.188.43.43 0 0 0 .118-.281.07.07 0 0 0-.028-.059c-.042-.038-.056-.084-.042-.143.031-.126.014-.233-.056-.322a.084.084 0 0 1-.02-.053l.006-.601c.05.177.112.349.183.51.087.206.14.364.163.477.064.349.073.7.02 1.052-.037-.091-.076-.07-.121.064-.045.14-.031.252-.113.384a.813.813 0 0 0-.093.34c-.02.175-.036.344-.047.51-.006.086-.057.15-.144.196a.082.082 0 0 0-.04.04c-.033.07-.044.13-.106.185-.113.105-.366.328-.405.473-.023.08-.093.123-.169.155a.453.453 0 0 0 .101-.204 1.3 1.3 0 0 1 .056-.214c.037-.089.085-.172.13-.247.166-.263.107-.56.067-.848a.074.074 0 0 0-.024-.044.081.081 0 0 0-.049-.02.85.85 0 0 0-.388.053c-.214.092-.394.15-.59.322-.141.121-.225.295-.372.392-.174.11-.413.225-.714.34-.315.119-.633.231-.95.341-.09.03-.178.07-.262.116-.298.16-.445.47-.79.55a.857.857 0 0 0-.301.134c-.13.083-.293.107-.445.134-.169.03-.326.1-.506.137-.158-.054-.324-.113-.498-.166a2.756 2.756 0 0 1-.484-.207 9.638 9.638 0 0 1-.528-.309c-.219-.139-.422-.3-.605-.48-.186-.182-.186-.413-.068-.628.088-.236.141-.448.15-.638.014-.228.03-.454.05-.673.006-.067.037-.18.09-.341.065-.196.073-.403.028-.617-.005-.022.003-.035.023-.04.014-.006.028-.003.045 0 .07.075.163.126.264.08a.878.878 0 0 0 .326-.263.094.094 0 0 0 .012-.091c-.093-.201-.214-.394-.07-.614a.53.53 0 0 1-.02.126.138.138 0 0 0 .016.118l.02.045c.02.094.079.167.175.215.126.07.261.123.405.164.118.035.236-.008.351-.132.084.003.23.032.436.091a.277.277 0 0 0 .29-.075c.056-.021.185-.043.38-.064.084-.01.253-.064.5-.161a.038.038 0 0 0 .02-.048v-.017a.025.025 0 0 0-.01-.012.026.026 0 0 0-.016-.004h-.008a2.067 2.067 0 0 1-.596.1c-.079 0-.152.032-.225.053-.132.043-.386-.072-.5-.131a.173.173 0 0 1 .016-.1.183.183 0 0 1 .07-.074.11.11 0 0 0 .037-.043c.017-.04.05-.06.098-.06a.69.69 0 0 0 .276-.026c.079-.016.12-.051.124-.1a.065.065 0 0 0-.01-.034.07.07 0 0 0-.027-.025.155.155 0 0 1-.065-.067c-.005-.01 0-.021.014-.027l.017-.002c.009-.003.014 0 .017.005.014.032.037.054.068.06.02.005.04 0 .062-.017.064-.048.095-.12.092-.22a.451.451 0 0 1 .2-.166c.02-.01.028-.027.023-.046a.605.605 0 0 0-.135-.282c-.074-.08-.192-.11-.282-.18-.115-.088-.272-.072-.405-.031a.025.025 0 0 0-.017.013v.008c0 .01-.005.019-.02.019a.174.174 0 0 0-.084.032 1.096 1.096 0 0 0-.303-.217c-.197-.116-.45-.102-.675-.097l.084-.129a.448.448 0 0 1 .104-.112l.203-.156a.388.388 0 0 0 .067-.07c.054-.07.05-.102-.003-.102a.417.417 0 0 0 .214-.123l.211-.188c.017-.016.03-.016.048 0 .042.038.05.075.028.113a2.138 2.138 0 0 0-.222.408c-.006.021 0 .03.025.027a.26.26 0 0 0 .158-.1c.09-.113.222-.206.393-.287.017-.008.034-.005.045.005a.053.053 0 0 1 .02.035c.006.049.025.054.056.014.085-.11.197-.223.33-.333.019-.016.033-.013.044.005.042.076.042.148 0 .215a1.87 1.87 0 0 0-.132.295c-.008.019-.02.027-.04.027h-.036a.037.037 0 0 0-.022.01.034.034 0 0 0-.012.02v.016l.057.147a.232.232 0 0 1 .02.073l.025.155c.001.01.005.02.01.027a.062.062 0 0 0 .024.018.065.065 0 0 0 .058-.002.06.06 0 0 0 .029-.03l.095-.246a.051.051 0 0 1 .019-.022.055.055 0 0 1 .056-.003.053.053 0 0 1 .02.02.992.992 0 0 1 .147.429c0 .01.005.021.013.03a.051.051 0 0 0 .03.015.263.263 0 0 1 .112.043z" fill="#E0C06E"/><path d="M7.81 12.757a.258.258 0 0 1-.118.021.076.076 0 0 0-.057.022c-.064.059-.115.134-.202.171a.506.506 0 0 1-.338.024c-.11-.15-.12-.295-.042-.437a.027.027 0 0 1 .01-.012.03.03 0 0 1 .03-.003.028.028 0 0 1 .01.01c.026.03.057.045.094.048.039 0 .05-.016.036-.05-.115-.248-.388.031-.436.133-.056.124-.011.236.135.333l.011.021c.006.014.003.027-.008.04a.085.085 0 0 1-.028.014c-.113-.03-.279-.048-.34-.145a.56.56 0 0 1-.076-.174.051.051 0 0 1 0-.03.053.053 0 0 1 .017-.024l.244-.214.273-.167c.2-.053.366-.03.492.067.093.07.189.164.281.285.012.01.017.021.017.03l-.003.034-.002.003z" fill="#0B0802"/><path d="M4.401 12.322c.008.177.113.39.32.397-.084.08-.165.17-.236.26a.14.14 0 0 1-.07.052.147.147 0 0 1-.087.002c-.14-.032-.194-.12-.155-.268.02-.08.028-.161.034-.247 0-.054.028-.094.084-.113a.469.469 0 0 0 .11-.08v-.003z" fill="#E1B051"/><path d="M7.092 12.995c-.02.025-.073.03-.16.022-.146-.097-.191-.21-.135-.333.048-.102.32-.38.436-.134.014.035.003.054-.037.051a.13.13 0 0 1-.093-.048.027.027 0 0 0-.011-.01.03.03 0 0 0-.03.003.027.027 0 0 0-.01.012c-.078.142-.067.287.04.437z" fill="#FCF9F5"/><path d="M9.997 14.294a1.832 1.832 0 0 0-.37-.027 4.42 4.42 0 0 1-.372-.008c-.25-.016-.5.023-.731.115-.301.121-.58.247-.836.379a.233.233 0 0 1-.084.027.206.206 0 0 1-.101-.02.689.689 0 0 0-.47-.037.086.086 0 0 1-.07-.01.298.298 0 0 1-.118-.137.114.114 0 0 0-.048-.054.122.122 0 0 0-.07-.016.263.263 0 0 1-.242-.1c-.06-.136-.014-.22-.014-.343a.59.59 0 0 1 .028-.166c.025-.097.036-.207.03-.33 0-.038.02-.054.062-.046.164.008.33.016.495.019.158.003.262.032.38-.091a.122.122 0 0 1 .054-.035c.07-.027.14-.046.202-.091a1.71 1.71 0 0 0 .47-.548.077.077 0 0 1 .034-.032.082.082 0 0 1 .047-.008c.194.022.38.016.56-.019a.047.047 0 0 1 .032.007c.01.006.016.015.019.026l.005.021c.009.027.028.04.056.038l.144-.008c.022 0 .042 0 .062.01l.185.089c.023.01.048.013.074.01a.029.029 0 0 0 .011-.005.027.027 0 0 0 .008-.01.026.026 0 0 0 0-.025l-.079-.107a.026.026 0 0 1 0-.027.028.028 0 0 1 .026-.013l.208.008c.025 0 .034.013.028.035l-.028.134c0 .013.003.021.017.021.005 0 .014 0 .017-.008a.692.692 0 0 0 .078-.131.027.027 0 0 1 .008-.01.029.029 0 0 1 .012-.006.029.029 0 0 1 .022.01.14.14 0 0 1 .037.108c0 .016.003.027.014.04l.138.134c.014.016.014.032.006.051-.054.089-.037.17.047.242.012.013.017.026.015.043a.162.162 0 0 1-.031.066c-.057.076-.009.196.056.245.014.01.014.024.003.037a.412.412 0 0 0-.093.215c-.002.01 0 .021.005.03.005.01.013.018.023.023l.084.054a.05.05 0 0 1 .028.048.294.294 0 0 1-.073.183z" fill="#FAF2CD"/><path d="M7.81 12.757c0 .027-.012.05-.034.075-.113.115-.242.255-.4.303-.185.054-.306-.014-.47-.043a.087.087 0 0 0 .029-.013c.011-.014.014-.027.008-.04l-.011-.022c.087.01.14 0 .16-.022.118.033.23.025.338-.024.09-.037.14-.112.208-.171a.073.073 0 0 1 .056-.022.253.253 0 0 0 .118-.024l-.003.003zm-3.497.52c.225-.005.479-.019.675.097a.263.263 0 0 0-.07.043c-.03.08-.093.107-.177.08a1.47 1.47 0 0 0-.627-.046c-.026.006-.056-.005-.093-.029a.113.113 0 0 1 .048-.059l.244-.086z" fill="#5B4F40"/><path d="M4.988 13.374c.121.059.222.131.304.214l.022.049c-.028.128-.12.356-.253.418a.116.116 0 0 0-.056.054.109.109 0 0 1-.048.053 3.66 3.66 0 0 0-.28.172c-.09.065-.226.091-.327.035a.992.992 0 0 1-.369-.354L3.984 14c-.005-.034 0-.058.009-.072.014-.016.03-.019.053-.008a.111.111 0 0 0 .096.01c.084-.026.081-.05-.006-.066a.458.458 0 0 1-.186-.094.417.417 0 0 1-.014-.215.266.266 0 0 1 .085-.134c.036.024.067.035.093.03.21-.03.424-.013.627.048.084.027.146-.003.177-.08.006-.011.028-.027.07-.046z" fill="#0B0802"/><path d="M6.012 14.224c.009-.024-.008-.046-.056-.067-.02-.01-.028-.027-.02-.046.017-.059 0-.11-.05-.155a2.12 2.12 0 0 1-.23-.242.318.318 0 0 0-.226-.107c-.028-.005-.04.01-.033.046-.017.005-.043 0-.082-.016l-.023-.049a.174.174 0 0 1 .085-.026c.014 0 .022-.011.02-.022v-.008a.025.025 0 0 1 .006-.009.026.026 0 0 1 .01-.004c.133-.04.29-.054.405.032.09.07.209.096.282.18a.62.62 0 0 1 .135.281c.005.022 0 .035-.023.046a.428.428 0 0 0-.197.166h-.003z" fill="#EFE2AD"/><path d="M3.937 13.556a.417.417 0 0 0 .014.215l.034.23-.003.014c-.189.14-.23.29-.124.445l-.011.06c0 .018-.014.026-.031.018a.1.1 0 0 1-.06-.046 1.218 1.218 0 0 1-.129-.466c-.005-.148.037-.368.166-.467.099-.075.15-.078.144 0v-.003zm2.075.668c.003.1-.028.172-.092.22-.023.016-.043.022-.062.016a.096.096 0 0 1-.068-.059c-.003-.008-.008-.008-.017-.005l-.017.002c-.016.006-.02.017-.014.027a.168.168 0 0 0 .065.067c.011.006.02.015.027.025.006.01.01.022.01.034 0 .049-.045.08-.124.102-.127.027-.22.038-.276.027a.232.232 0 0 1-.155-.118.075.075 0 0 1-.01-.054.648.648 0 0 0 .01-.193c-.008-.077.034-.142.085-.195a.076.076 0 0 0 .022-.054v-.413c-.005-.035.009-.054.037-.049.087.011.169.043.225.11.068.086.146.167.228.242.05.046.067.096.05.155-.005.022 0 .035.02.046.048.021.065.043.056.067z" fill="#FCF9F5"/><path d="M5.315 13.637c.04.016.064.021.081.016v.415a.072.072 0 0 1-.022.052c-.05.053-.093.118-.085.195a.73.73 0 0 1-.01.19.084.084 0 0 0 .008.054c.039.068.092.108.157.119-.048 0-.081.018-.098.058a.1.1 0 0 1-.037.043.183.183 0 0 0-.07.075.173.173 0 0 0-.017.1 88.48 88.48 0 0 1-.593-.215.75.75 0 0 0-.524 0c-.042.089-.036.166.023.234.042.048.101.099.171.115.096.021.27.048.338.115a.067.067 0 0 0 .05.022l.265-.003c-.113.123-.233.166-.352.132a2.216 2.216 0 0 1-.405-.161.332.332 0 0 1-.112-.09.313.313 0 0 1-.062-.128.13.13 0 0 0-.02-.045.14.14 0 0 1-.017-.118.528.528 0 0 0 .02-.126l-.146-.226c-.107-.155-.065-.306.124-.445.098.155.219.274.365.354.104.054.24.027.332-.035a3.13 3.13 0 0 1 .279-.172.11.11 0 0 0 .05-.053.098.098 0 0 1 .056-.054c.13-.062.225-.29.254-.418h-.003zm-1.364.134c.067.053.13.08.185.094.085.016.088.04.006.067a.112.112 0 0 1-.096-.011c-.022-.01-.04-.008-.053.008-.011.013-.014.038-.009.072l-.033-.23z" fill="#968C78"/><path d="M4.775 14.044c.079.033.149.043.157.027.009-.021-.05-.059-.13-.091-.078-.03-.148-.04-.157-.021-.005.018.051.056.13.088v-.003z" fill="#5B4F40"/><path d="M5.675 14.13c0 .016-.009.027-.026.035-.014.008-.025.003-.028-.013 0-.011 0-.022.006-.032.028-.054.045-.049.048.01z" fill="#968C78"/><path d="M9.998 14.294a.481.481 0 0 0-.164.459c0 .01 0 .021-.005.032l-.101.16c-.012.022-.029.028-.048.009l-.023-.022a.05.05 0 0 0-.028-.01c-.005 0-.017 0-.025.005-.031.013-.045.038-.042.072.01.097.028.194.047.295a.138.138 0 0 1-.042.127c-.112.107-.36.314-.365.477 0 .065-.02.116-.054.153a.44.44 0 0 1-.174.107v.003l.003.021c.008.022.022.033.047.027a.649.649 0 0 0 .338-.18.02.02 0 0 1 .025 0 .019.019 0 0 1 .008.012c0 .004 0 .009-.002.013l-.155.25a.065.065 0 0 0-.011.042.43.43 0 0 1-.008.17.036.036 0 0 0 .007.03.04.04 0 0 0 .03.015l.019-.003a.454.454 0 0 1 .118-.032c.011 0 .022.003.03.01a.055.055 0 0 1 .018.027.288.288 0 0 1-.102.269c-.093.084-.18.176-.258.273a.177.177 0 0 1-.144.053.075.075 0 0 1-.028-.012.457.457 0 0 0-.281-.102.896.896 0 0 1-.324-.06c-.174-.066-.365 0-.52.081a.155.155 0 0 1-.112.014.069.069 0 0 1-.042-.031.062.062 0 0 1-.006-.05c.079-.225.304-.268.517-.306a.035.035 0 0 0 .027-.025.033.033 0 0 0 0-.018.035.035 0 0 0-.01-.016l-.169-.142a.096.096 0 0 0-.064-.021.093.093 0 0 1-.056-.02c-.065-.05-.057-.093.01-.133.125-.065.24-.134.35-.212.115-.08.182-.172.196-.28.017-.11.012-.26.107-.337l.433-.346c.15-.116.231-.287.33-.44a.054.054 0 0 0 0-.062.047.047 0 0 0-.056-.019c-.192.08-.358.188-.555.252-.21.07-.43.172-.658.306-.096.054-.124.153-.163.247a.082.082 0 0 1-.04.043 2.275 2.275 0 0 0-.345.236c-.124.107-.304.105-.397.236-.096.129-.174.322-.357.354a1.386 1.386 0 0 1-.81-.07l-.287-.115c-.09-.035-.087-.067 0-.096.132-.04.264-.068.38-.14.162-.1.342-.17.531-.207.138-.026.208-.12.29-.217.101-.12.093-.241-.023-.367a6.365 6.365 0 0 1-.292-.33.091.091 0 0 1-.023-.06l-.005-.284a.256.256 0 0 0 .242.097.122.122 0 0 1 .07.016.114.114 0 0 1 .048.054.335.335 0 0 0 .118.136.083.083 0 0 0 .07.011.682.682 0 0 1 .47.038c.032.014.067.019.101.016a.233.233 0 0 0 .085-.024 9.43 9.43 0 0 1 .832-.376c.23-.093.481-.133.731-.118.125.007.25.009.374.005.127 0 .25.006.372.027v.003z" fill="#E7CF90"/><path d="m5.56 14.506-.014-.019c-.012-.019-.006-.027.017-.032.014-.003.028 0 .036.008a.027.027 0 0 1 .011.019c0 .016-.005.027-.02.032a.025.025 0 0 1-.019 0 .025.025 0 0 1-.011-.008z" fill="#968C78"/><path d="M4.963 14.613a.028.028 0 0 1-.022-.027c0-.024.006-.043.028-.053.02-.011.034-.008.045.01a.115.115 0 0 1 .014.04c0 .027-.014.038-.04.033l-.025-.003z" fill="#5B4F40"/><path d="M5.223 14.957c.115.056.368.171.5.128.073-.021.146-.053.225-.053.206-.003.41-.037.605-.1.005 0 .01.002.014.005a.024.024 0 0 1 .008.011l.006.014v.027a.04.04 0 0 1-.022.021c-.248.1-.414.153-.501.161-.197.027-.32.046-.38.067a4.242 4.242 0 0 0-.273-.118 1.58 1.58 0 0 0-.284-.08 5.507 5.507 0 0 1-1.015-.3.75.75 0 0 1 .523 0l.59.214.004.002z" fill="#0B0802"/><path d="M4.106 14.74c.332.133.669.235 1.012.302.113.022.208.046.287.08.096.038.186.076.273.116a.28.28 0 0 1-.29.075 2.155 2.155 0 0 0-.436-.09l-.264.002a.072.072 0 0 1-.05-.021c-.068-.068-.243-.094-.338-.116a.347.347 0 0 1-.172-.115c-.056-.067-.065-.145-.022-.234z" fill="#5B4F40"/><path d="m10.067 16.816-.5.29h-.045a.037.037 0 0 1-.03-.02.033.033 0 0 1 .002-.034l.239-.333a.27.27 0 0 0 .047-.142c0-.024-.014-.038-.039-.038-.18-.005-.16-.145-.174-.268-.006-.056.011-.1.053-.131.253-.19.464-.419.641-.682.138-.206.366-.311.535-.485a.029.029 0 0 1 .028-.008.024.024 0 0 1 .014.021.581.581 0 0 1-.14.408c-.11.126-.164.268-.26.397a.077.077 0 0 0-.014.062c.04.16.012.29-.084.391a.646.646 0 0 0-.126.177 2.021 2.021 0 0 0-.147.395z" fill="#B87C29"/><path d="M3.94 16.19c-.051.014-.049.054.005.13.025.026.053.058.084.082.262.21.4.424.751.553.023.01.042.027.05.049.029.053.049.104.065.155.045.12.127.23.254.327a.072.072 0 0 0 .084.002.064.064 0 0 0 .02-.023.068.068 0 0 1 .016-.021.038.038 0 0 1 .026-.009c.008 0 .017.003.022.009.163.139.225.482.279.697a.051.051 0 0 0 .025.03.055.055 0 0 0 .04.005c.008 0 .016-.005.022-.014a.964.964 0 0 0 .281-.528c.003-.021.017-.03.04-.027h.02c.002 0 .005 0 .008.002a.013.013 0 0 1 .005.006v.006l-.008.088c0 .024.008.032.034.03.016 0 .028-.009.036-.025l.132-.276a.38.38 0 0 1 .178-.164c.168-.08.348-.155.495-.265.125-.096.262-.178.407-.244a.026.026 0 0 0 .004-.019.027.027 0 0 0-.01-.016c-.005-.003-.016 0-.033.005.118-.048.205-.088.256-.118.14-.08.188-.045.149.105a1.46 1.46 0 0 1-.113.279.341.341 0 0 1-.151.153c-.197.107-.327.279-.53.37a.894.894 0 0 0-.291.204.846.846 0 0 0-.183.298c-.068.204-.197.375-.318.55-.141.188-.337.332-.563.415a.627.627 0 0 0-.185.078.046.046 0 0 1-.057-.005.73.73 0 0 1-.064-.223 2.491 2.491 0 0 0-.225-.775.757.757 0 0 0-.175-.242 27.725 27.725 0 0 1-.83-.8c-.12-.12-.18-.26-.255-.402a1.085 1.085 0 0 1-.093-.603.045.045 0 0 1 .02-.013.031.031 0 0 1 .022-.003c.008 0 .017.003.023.008l.23.18z" fill="#E1B051"/><path d="m3.94 16.19.258.183c.062.043.12.091.174.145.18.174.507.252.768.314.146.035.338.05.577.045a11.976 11.976 0 0 0 1.589-.147.027.027 0 0 1 .007.01.025.025 0 0 1-.001.024.028.028 0 0 1-.01.009 2.21 2.21 0 0 0-.399.236c-.146.11-.326.185-.494.265a.39.39 0 0 0-.178.161c-.042.097-.087.188-.132.28a.04.04 0 0 1-.014.018.043.043 0 0 1-.022.008c-.026 0-.034-.008-.034-.032l.008-.088v-.006a.015.015 0 0 0-.004-.004.015.015 0 0 0-.004-.003.016.016 0 0 0-.006 0h-.02c-.022-.004-.036.005-.039.026a.966.966 0 0 1-.281.528.053.053 0 0 1-.05.013.051.051 0 0 1-.024-.012.048.048 0 0 1-.013-.022c-.057-.215-.113-.558-.279-.697a.037.037 0 0 0-.022-.009c-.011 0-.02 0-.026.009a.07.07 0 0 0-.016.02.062.062 0 0 1-.02.024.066.066 0 0 1-.028.012.074.074 0 0 1-.056-.014.728.728 0 0 1-.254-.327 1.075 1.075 0 0 0-.064-.155.088.088 0 0 0-.05-.049c-.352-.129-.49-.343-.752-.552a.808.808 0 0 1-.084-.084c-.056-.072-.056-.115-.006-.128z" fill="#B87C29"/><path d="M11.545 16.384c.017.118.039.236.064.351.04.166.028.314.037.483.005.174.067.376.073.572 0 .131 0 .26-.008.389-.009.241-.501.617-.76.826-.22.18-.427.26-.619.241-.106-.067-.256-.067-.447 0-.056.019-.062.008-.02-.032a.776.776 0 0 0 .183-.303c.007-.021.02-.04.037-.054a.827.827 0 0 1 .225-.126c.073-.032.143-.075.166-.155.04-.145.292-.368.405-.473.062-.056.073-.115.107-.187a.083.083 0 0 1 .04-.038c.09-.046.14-.11.143-.196.012-.17.028-.34.047-.51a.767.767 0 0 1 .096-.34c.079-.132.065-.244.113-.384.042-.134.084-.155.118-.064z" fill="#C89539"/><path d="M10.307 18.731a.887.887 0 0 0-.222.126.113.113 0 0 0-.037.054.77.77 0 0 1-.183.303c-.042.04-.033.054.023.032.188-.067.338-.067.444 0a.212.212 0 0 1-.059.164.305.305 0 0 1-.146.086 4.43 4.43 0 0 0-.678.268c-.154.075-.318.086-.484.126-.05.014-.11 0-.151.038a.074.074 0 0 1-.06.018 1.264 1.264 0 0 0-.362.011 1.68 1.68 0 0 1-.324.032c-.725.008-1.487.033-2.219-.037a.673.673 0 0 1-.281-.094l-.3-.185c.182-.038.342-.107.505-.137.155-.027.318-.051.448-.134a.858.858 0 0 1 .3-.134c.346-.08.493-.392.788-.55.084-.046.174-.086.264-.116.318-.107.636-.222.95-.34.302-.116.54-.231.715-.341.144-.094.234-.268.372-.394.196-.17.376-.228.59-.32a.85.85 0 0 1 .388-.053.083.083 0 0 1 .048.02.077.077 0 0 1 .025.044c.04.287.099.585-.067.848a2.107 2.107 0 0 0-.132.247c-.011.027-.028.099-.054.214a.447.447 0 0 1-.101.204z" fill="#E7CF90"/><path opacity=".8" d="M4.949 10.342H3.844v2.216h1.105v4.153H3.844v2.216h4.452a4.035 4.035 0 0 0 1.837-.531c1-.577 1.867-1.706 1.867-3.622 0-2.012-.827-3.211-1.828-3.844a3.894 3.894 0 0 0-1.873-.588h-3.35zm3.31 6.37h-.818v-4.154h.844c.033.005.092.01.168.027.152.032.35.097.54.215.31.198.8.66.8 1.974 0 1.127-.45 1.524-.763 1.706a1.822 1.822 0 0 1-.77.231z" fill="#fff"/></g><defs><clipPath id="a"><path fill="#fff" d="M0 0h24v24H0z"/></clipPath></defs></svg>