<svg width="24" height="24" fill="none" xmlns="http://www.w3.org/2000/svg"><g clip-path="url(#a)"><path fill-rule="evenodd" clip-rule="evenodd" d="M9.784 3.154h13.433c.285.334.504.725.637 1.154H9.147c.134-.429.352-.82.637-1.154zM9 5.462h15v1.154H9V5.462zM24 7.77H9v1.153h15V7.77zM9 10.077h15v1.154H9v-1.154zm15 2.308H9v1.154h15v-1.154zM9.147 14.693h14.707a3.27 3.27 0 0 1-.637 1.154H9.784a3.274 3.274 0 0 1-.637-1.154z" fill="#F5F5F5"/><path fill-rule="evenodd" clip-rule="evenodd" d="M20.719 2H12.28c-1 0-1.896.448-2.498 1.154h13.434A3.274 3.274 0 0 0 20.719 2zM24 6.615H9V7.77h15V6.615zm-.147-2.307c.096.308.147.635.147.974v.18H9v-.18c0-.34.051-.666.147-.974h14.706zM24 8.923H9v1.154h15V8.923zm0 4.616v.18c0 .34-.051.666-.147.974H9.147A3.28 3.28 0 0 1 9 13.719v-.18h15zm-.783 2.307H9.783A3.274 3.274 0 0 0 12.281 17h8.438c1 0 1.896-.448 2.498-1.154zM9 11.231h15v1.154H9V11.23v.001z" fill="#FA4051"/><path d="M17 2h-4.75C10.455 2 9 3.47 9 5.281v4.796h8V2z" fill="#1939C9"/><path fill-rule="evenodd" clip-rule="evenodd" d="m11.613 2.721.062.187.197.002c.025 0 .036.032.015.047l-.158.117.06.188a.027.027 0 0 1-.041.03l-.16-.115-.16.114a.027.027 0 0 1-.04-.014.027.027 0 0 1 0-.016l.058-.187-.158-.117a.025.025 0 0 1-.01-.013.026.026 0 0 1 .01-.03.026.026 0 0 1 .016-.004l.196-.002.063-.187a.027.027 0 0 1 .025-.017.027.027 0 0 1 .025.017zm-1.743.541a.027.027 0 0 0 .04.03l.16-.115.16.115a.027.027 0 0 0 .03-.002.027.027 0 0 0 .01-.028l-.057-.187.158-.117a.027.027 0 0 0 .009-.013.028.028 0 0 0 0-.017.027.027 0 0 0-.025-.018l-.196-.002-.034-.1a3.302 3.302 0 0 0-.241.233l.046.034-.06.187zm.226 1.016.063.187.196.001c.026 0 .036.033.016.048l-.158.117.059.187a.027.027 0 0 1-.025.034.027.027 0 0 1-.015-.004l-.16-.115-.16.115a.027.027 0 0 1-.042-.03l.06-.187-.158-.117a.027.027 0 0 1 .015-.048l.197-.001.062-.187a.027.027 0 0 1 .025-.017.027.027 0 0 1 .025.017zm.064 1.912-.063-.186a.027.027 0 0 0-.025-.017.027.027 0 0 0-.025.017l-.062.186-.197.002a.027.027 0 0 0-.015.048l.158.117-.06.187a.027.027 0 0 0 .04.03l.16-.115.16.115a.027.027 0 0 0 .042-.014.027.027 0 0 0 0-.016l-.06-.187.159-.117a.027.027 0 0 0 .009-.013.028.028 0 0 0 0-.017.027.027 0 0 0-.025-.018l-.196-.002zm-.063 1.4.063.187.196.002c.026 0 .036.032.016.047l-.158.117.059.188a.027.027 0 0 1-.025.034.027.027 0 0 1-.015-.004l-.16-.115-.16.114a.027.027 0 0 1-.042-.03l.06-.187-.158-.117a.027.027 0 0 1 .015-.047l.197-.002.062-.187a.027.027 0 0 1 .025-.017.027.027 0 0 1 .025.017zm.063 1.63-.063-.187a.027.027 0 0 0-.025-.017.027.027 0 0 0-.025.017l-.062.187-.197.002a.027.027 0 0 0-.015.047l.158.117-.06.188a.027.027 0 0 0 .04.03l.16-.115.16.114a.027.027 0 0 0 .042-.014.027.027 0 0 0 0-.016l-.06-.187.159-.117a.026.026 0 0 0 .008-.013.027.027 0 0 0-.01-.028.027.027 0 0 0-.014-.006l-.196-.002zm.694-5.762.062.186.197.002c.026 0 .036.032.016.048l-.16.116.06.188a.027.027 0 0 1-.041.03l-.16-.115-.16.115a.027.027 0 0 1-.038-.014.027.027 0 0 1-.001-.016l.059-.188-.16-.116a.026.026 0 0 1-.01-.013.026.026 0 0 1 0-.017.026.026 0 0 1 .027-.018l.197-.002.062-.186a.027.027 0 0 1 .025-.017.027.027 0 0 1 .025.017zm.062 1.913-.062-.187a.027.027 0 0 0-.025-.017.027.027 0 0 0-.025.017l-.062.187-.197.001a.027.027 0 0 0-.025.035c.001.005.005.01.009.013l.159.117-.06.187a.027.027 0 0 0 .01.03.027.027 0 0 0 .03 0l.16-.115.16.115a.027.027 0 0 0 .03-.002.027.027 0 0 0 .01-.028l-.058-.187.159-.117a.027.027 0 0 0 .009-.013.028.028 0 0 0 0-.017.027.027 0 0 0-.025-.018l-.197-.001zm-.062 1.453.062.187.197.001c.026 0 .036.033.016.048l-.16.117.06.188a.027.027 0 0 1-.025.034.027.027 0 0 1-.014-.004l-.161-.115-.16.114a.027.027 0 0 1-.04-.014.027.027 0 0 1 0-.016l.059-.187-.16-.117a.027.027 0 0 1-.008-.013.026.026 0 0 1 0-.017.027.027 0 0 1 .025-.018l.197-.001.062-.187a.027.027 0 0 1 .025-.017.027.027 0 0 1 .025.017zm.062 1.66-.063-.184a.027.027 0 0 0-.025-.017.027.027 0 0 0-.025.017l-.062.186-.197.002a.027.027 0 0 0-.025.035c.001.005.005.01.009.013l.159.116-.06.188a.027.027 0 0 0 .01.03.027.027 0 0 0 .03 0l.16-.115.16.115a.027.027 0 0 0 .03-.002.027.027 0 0 0 .01-.028l-.058-.188.159-.116a.027.027 0 0 0 .009-.013.028.028 0 0 0 0-.017.027.027 0 0 0-.025-.018l-.197-.002v-.002zm.76-4.02-.062-.187a.027.027 0 0 0-.025-.017.027.027 0 0 0-.025.017l-.063.187-.196.001a.027.027 0 0 0-.025.035c.001.005.005.01.009.013l.158.117-.06.187a.027.027 0 0 0 .026.034c.005 0 .01-.001.015-.004l.16-.115.16.115a.027.027 0 0 0 .042-.013.026.026 0 0 0 0-.017l-.06-.187.158-.117a.027.027 0 0 0 0-.042.027.027 0 0 0-.015-.006l-.197-.001zm-.062 1.54.062.186.197.002c.025 0 .036.033.015.048l-.158.117.06.187a.027.027 0 0 1-.041.03l-.16-.115-.16.115a.027.027 0 0 1-.04-.014.027.027 0 0 1 0-.016l.058-.187-.158-.117a.026.026 0 0 1-.01-.013.026.026 0 0 1 .001-.017.027.027 0 0 1 .025-.018l.195-.002.063-.186a.027.027 0 0 1 .025-.017.027.027 0 0 1 .025.017zm.062 1.773-.062-.187a.027.027 0 0 0-.025-.017.027.027 0 0 0-.025.017l-.063.187-.196.002a.027.027 0 0 0-.024.018.026.026 0 0 0 0 .016c.001.005.004.01.008.013l.158.117-.06.188a.027.027 0 0 0 .026.034c.005 0 .01-.001.015-.004l.16-.115.16.114a.027.027 0 0 0 .042-.013.026.026 0 0 0 0-.017l-.06-.187.158-.117a.027.027 0 0 0 .008-.028.027.027 0 0 0-.023-.019l-.197-.002zm-.062 1.256.062.187.197.002c.025 0 .036.032.015.047l-.158.117.06.188a.027.027 0 0 1-.041.03l-.16-.115-.16.114a.027.027 0 0 1-.04-.014.027.027 0 0 1 0-.016l.058-.187-.158-.117a.027.027 0 0 1-.008-.013.026.026 0 0 1 .01-.028.027.027 0 0 1 .014-.006l.195-.002.063-.187a.027.027 0 0 1 .025-.017.027.027 0 0 1 .025.017zm.818-5.389-.062-.184a.027.027 0 0 0-.025-.017.027.027 0 0 0-.025.017l-.063.186-.196.002a.027.027 0 0 0-.025.035c.001.005.005.01.009.013l.158.116-.06.188a.027.027 0 0 0 .042.03l.16-.115.16.115a.027.027 0 0 0 .03-.002.027.027 0 0 0 .01-.028l-.06-.188.159-.116a.026.026 0 0 0-.015-.048l-.197-.002v-.002zm-.062 1.54.062.187.197.001c.025 0 .036.033.015.048l-.158.117.06.187a.027.027 0 0 1-.041.03l-.16-.115-.16.115a.027.027 0 0 1-.041-.03l.06-.187-.16-.117a.026.026 0 0 1-.008-.013.026.026 0 0 1 0-.017.027.027 0 0 1 .025-.018l.196-.002.062-.186a.027.027 0 0 1 .025-.017c.005 0 .01.002.015.005a.03.03 0 0 1 .01.012zm.062 1.827-.062-.187a.026.026 0 0 0-.05 0l-.063.187-.196.001a.027.027 0 0 0-.025.035c.001.005.005.01.009.013l.158.117-.06.188a.027.027 0 0 0 .042.03l.16-.115.16.114a.027.027 0 0 0 .03-.002.027.027 0 0 0 .01-.028l-.06-.187.159-.117a.027.027 0 0 0 0-.042.027.027 0 0 0-.015-.006l-.197-.001zm-.062 1.288.062.186.197.002c.025 0 .036.032.015.048l-.158.116.06.188a.027.027 0 0 1-.041.03l-.16-.115-.16.115a.027.027 0 0 1-.041-.03l.06-.188-.16-.116a.026.026 0 0 1-.008-.013.026.026 0 0 1 0-.017.027.027 0 0 1 .025-.018l.196-.002.062-.186a.027.027 0 0 1 .025-.017c.005 0 .01.002.015.005a.03.03 0 0 1 .01.012zm.822-5.39-.062-.188a.027.027 0 0 0-.025-.017.027.027 0 0 0-.025.017l-.063.187-.197.002a.026.026 0 0 0-.015.047l.158.117-.06.188a.027.027 0 0 0 .01.03.027.027 0 0 0 .03 0l.16-.115.16.114a.027.027 0 0 0 .042-.014.027.027 0 0 0 0-.016l-.06-.187.16-.117a.026.026 0 0 0 0-.042.026.026 0 0 0-.016-.005l-.197-.001zm-.062 1.369.062.187.197.001c.025 0 .036.033.015.048l-.158.117.06.187a.027.027 0 0 1-.042.03l-.16-.115-.16.115a.027.027 0 0 1-.04-.014.027.027 0 0 1 0-.016l.059-.187-.158-.117a.027.027 0 0 1-.01-.03.027.027 0 0 1 .025-.018l.197-.002.062-.186a.027.027 0 0 1 .025-.017c.005 0 .01.002.015.005a.03.03 0 0 1 .01.012zm.06 1.912-.062-.186a.027.027 0 0 0-.025-.017.027.027 0 0 0-.025.017l-.063.186-.197.002a.027.027 0 0 0-.024.019.027.027 0 0 0 .009.029l.158.117-.06.187a.027.027 0 0 0 .01.03.027.027 0 0 0 .03 0l.16-.115.16.115a.027.027 0 0 0 .042-.014.027.027 0 0 0 0-.016l-.06-.187.16-.117a.027.027 0 0 0 .009-.013.028.028 0 0 0 0-.017.027.027 0 0 0-.025-.018l-.197-.002zm-.062 1.4.062.187.197.002c.025 0 .036.032.015.047l-.158.117.06.188a.027.027 0 0 1-.042.03l-.16-.115-.16.114a.027.027 0 0 1-.04-.014.027.027 0 0 1 0-.016l.059-.187-.158-.117a.027.027 0 0 1-.008-.013.028.028 0 0 1 .009-.028.027.027 0 0 1 .014-.006l.197-.002.062-.187a.027.027 0 0 1 .025-.017c.005 0 .01.002.015.005a.03.03 0 0 1 .01.012zm.062 1.63-.062-.187a.027.027 0 0 0-.025-.017.027.027 0 0 0-.025.017l-.063.187-.197.002a.027.027 0 0 0-.023.019.028.028 0 0 0 0 .015c.001.005.004.01.008.013l.158.117-.06.188a.027.027 0 0 0 .01.03.027.027 0 0 0 .03 0l.16-.115.16.114a.027.027 0 0 0 .042-.014.027.027 0 0 0 0-.016l-.06-.187.16-.117a.026.026 0 0 0 .008-.013.027.027 0 0 0-.01-.028.027.027 0 0 0-.014-.006l-.197-.002zm.694-5.762.063.186.196.002c.026 0 .036.032.016.048L14 3.81l.059.19a.027.027 0 0 1-.025.034.027.027 0 0 1-.015-.004l-.16-.115-.16.115a.027.027 0 0 1-.041-.03l.059-.188-.158-.116a.027.027 0 0 1-.01-.03.027.027 0 0 1 .025-.018l.197-.002.062-.186a.026.026 0 0 1 .05 0v-.002zm.063 1.913-.063-.187a.026.026 0 0 0-.05 0l-.062.187-.197.001a.027.027 0 0 0-.024.019.027.027 0 0 0 .009.029l.158.117-.06.187a.027.027 0 0 0 .01.03.027.027 0 0 0 .03 0l.16-.115.16.115a.027.027 0 0 0 .041-.014.027.027 0 0 0 0-.016L14 5.537l.16-.117a.027.027 0 0 0 .009-.013.028.028 0 0 0 0-.017.027.027 0 0 0-.025-.018l-.196-.001zm-.063 1.453.063.187.196.001c.026 0 .036.033.016.048L14 7.177l.059.188a.027.027 0 0 1-.025.034.027.027 0 0 1-.015-.004l-.16-.115-.16.114a.027.027 0 0 1-.041-.03l.059-.187-.158-.117a.027.027 0 0 1-.01-.03.027.027 0 0 1 .025-.018l.197-.001.062-.187a.026.026 0 0 1 .05 0zm.063 1.66-.062-.184a.026.026 0 0 0-.05 0l-.062.186-.197.002a.027.027 0 0 0-.024.019.027.027 0 0 0 .009.029l.158.116-.06.188a.027.027 0 0 0 .01.03.027.027 0 0 0 .03 0l.16-.115.16.115a.027.027 0 0 0 .041-.014.027.027 0 0 0 0-.016L14 8.652l.16-.116a.027.027 0 0 0 .009-.013.028.028 0 0 0 0-.017.027.027 0 0 0-.025-.018l-.196-.002-.001-.002zm.695-5.764.063.187.196.002c.026 0 .036.032.016.047l-.158.117.059.188a.027.027 0 0 1-.025.034.027.027 0 0 1-.015-.004l-.16-.115-.16.114a.027.027 0 0 1-.042-.03l.06-.187-.16-.117a.025.025 0 0 1-.009-.013.026.026 0 0 1 .01-.03.026.026 0 0 1 .016-.004l.197-.002.062-.187a.026.026 0 0 1 .05 0zm.063 1.744-.063-.187a.027.027 0 0 0-.025-.017.027.027 0 0 0-.025.017l-.062.187-.197.001a.027.027 0 0 0-.025.035c.001.005.005.01.009.013l.159.117-.06.187a.027.027 0 0 0 .01.03.027.027 0 0 0 .03 0l.16-.115.16.115a.027.027 0 0 0 .03-.002.027.027 0 0 0 .01-.028l-.057-.187.158-.117a.027.027 0 0 0 .009-.013.028.028 0 0 0 0-.017.027.027 0 0 0-.025-.018l-.196-.001zm-.063 1.54.063.186.196.002c.026 0 .036.033.016.048l-.158.117.059.187a.027.027 0 0 1-.025.034.027.027 0 0 1-.015-.004l-.16-.115-.16.115a.027.027 0 0 1-.042-.03l.06-.187-.16-.117a.026.026 0 0 1-.008-.013.026.026 0 0 1 0-.017.027.027 0 0 1 .025-.018l.197-.002.062-.186a.027.027 0 0 1 .025-.017.027.027 0 0 1 .025.017zm.063 1.773-.063-.187a.027.027 0 0 0-.025-.017.027.027 0 0 0-.025.017l-.062.187-.197.002a.027.027 0 0 0-.024.018.026.026 0 0 0 0 .016c.001.005.004.01.008.013l.159.117-.06.188a.027.027 0 0 0 .01.03.027.027 0 0 0 .03 0l.16-.115.16.114a.027.027 0 0 0 .03-.002.027.027 0 0 0 .01-.028l-.057-.187.158-.117a.026.026 0 0 0 .008-.013.027.027 0 0 0-.01-.028.027.027 0 0 0-.014-.006l-.196-.002zm-.063 1.256.063.187.196.002c.026 0 .036.032.016.047l-.158.117.059.188a.027.027 0 0 1-.025.034.027.027 0 0 1-.015-.004l-.16-.115-.16.114a.027.027 0 0 1-.042-.03l.06-.187-.16-.117a.027.027 0 0 1-.007-.013.026.026 0 0 1 .01-.028.027.027 0 0 1 .014-.006l.197-.002.062-.187a.027.027 0 0 1 .025-.017.027.027 0 0 1 .025.017zm.818-5.389-.06-.184a.027.027 0 0 0-.025-.017.027.027 0 0 0-.025.017l-.062.186-.197.002a.027.027 0 0 0-.025.035c.001.005.004.01.009.013l.159.116-.06.188a.027.027 0 0 0 .025.034c.005 0 .01-.001.015-.004l.16-.115.16.115a.027.027 0 0 0 .03-.002.027.027 0 0 0 .01-.028l-.058-.188.159-.116a.026.026 0 0 0-.016-.048l-.197-.002-.002-.002zm-.06 1.541.062.187.197.001c.026 0 .036.033.016.048l-.16.117.06.187a.027.027 0 0 1-.041.03l-.16-.115-.16.115a.027.027 0 0 1-.039-.014.027.027 0 0 1 0-.016l.059-.187-.16-.117a.026.026 0 0 1-.008-.013.026.026 0 0 1 0-.017.027.027 0 0 1 .025-.018l.197-.002.062-.186a.027.027 0 0 1 .025-.017.027.027 0 0 1 .025.017zm.062 1.827-.062-.187a.027.027 0 0 0-.025-.017.027.027 0 0 0-.025.017l-.062.187-.197.001a.027.027 0 0 0-.025.035c.001.005.004.01.009.013l.159.117-.06.188a.027.027 0 0 0 .025.034c.005 0 .01-.001.015-.004l.16-.115.16.114a.027.027 0 0 0 .03-.002.027.027 0 0 0 .01-.028l-.058-.187.159-.117a.027.027 0 0 0 .009-.013.028.028 0 0 0 0-.017.027.027 0 0 0-.025-.018l-.197-.001zM15.4 8.299l.062.186.197.002c.026 0 .036.032.016.048l-.16.116.06.188a.027.027 0 0 1-.041.03l-.16-.115-.16.115a.027.027 0 0 1-.039-.014.027.027 0 0 1 0-.016l.059-.188-.16-.116a.026.026 0 0 1-.008-.013.026.026 0 0 1 0-.017.027.027 0 0 1 .025-.018l.197-.002.062-.186a.027.027 0 0 1 .025-.017.027.027 0 0 1 .025.017zm.82-5.39-.061-.188a.026.026 0 0 0-.05 0l-.063.187-.196.002a.026.026 0 0 0-.025.018.026.026 0 0 0 0 .016c.001.005.004.01.009.013l.158.117-.06.188a.027.027 0 0 0 .026.034c.005 0 .01-.001.015-.004l.16-.115.16.114a.027.027 0 0 0 .042-.013.026.026 0 0 0 0-.017l-.06-.187.158-.117a.027.027 0 0 0 .008-.028.027.027 0 0 0-.023-.019l-.197-.001zm-.061 1.369.062.187.197.001c.025 0 .036.033.015.048l-.158.117.06.187a.027.027 0 0 1-.041.03l-.16-.115-.16.115a.027.027 0 0 1-.041-.03l.06-.187-.16-.117a.027.027 0 0 1-.008-.013.026.026 0 0 1 0-.017.027.027 0 0 1 .025-.018l.196-.001.063-.187a.027.027 0 0 1 .025-.017.027.027 0 0 1 .025.017zm.06 1.912-.061-.186a.027.027 0 0 0-.025-.017.027.027 0 0 0-.025.017l-.063.186-.196.002a.027.027 0 0 0-.025.035c.001.005.005.01.009.013l.158.117-.06.187a.027.027 0 0 0 .026.034c.005 0 .01-.001.015-.004l.16-.115.16.115a.027.027 0 0 0 .042-.013.026.026 0 0 0 0-.017l-.06-.187.158-.117a.027.027 0 0 0 0-.042.027.027 0 0 0-.015-.006l-.197-.002zm-.061 1.4.062.187.197.002c.025 0 .036.032.015.047l-.158.117.06.188a.027.027 0 0 1-.041.03l-.16-.115-.16.114a.027.027 0 0 1-.041-.03l.06-.187-.16-.117a.027.027 0 0 1-.007-.013.026.026 0 0 1 .01-.028.027.027 0 0 1 .014-.006l.196-.002.063-.187a.027.027 0 0 1 .025-.017.027.027 0 0 1 .025.017zm.062 1.63-.062-.187a.027.027 0 0 0-.025-.017.027.027 0 0 0-.025.017l-.063.187-.196.002a.027.027 0 0 0-.024.018.026.026 0 0 0 0 .016c.001.005.004.01.008.013l.158.117-.06.188a.027.027 0 0 0 .026.034c.005 0 .01-.001.015-.004l.16-.115.16.114a.027.027 0 0 0 .042-.013.026.026 0 0 0 0-.017l-.06-.187.158-.117a.027.027 0 0 0 .008-.028.027.027 0 0 0-.023-.019l-.197-.002z" fill="#F5F5F5"/><path d="M11.719 7H3.28A3.281 3.281 0 0 0 0 10.281v8.438A3.28 3.28 0 0 0 3.281 22h8.438A3.281 3.281 0 0 0 15 18.719V10.28A3.281 3.281 0 0 0 11.719 7z" fill="#000"/><mask id="b" style="mask-type:luminance" maskUnits="userSpaceOnUse" x="3" y="10" width="9" height="3"><path d="M3.106 12.192h7.3a.095.095 0 0 0 .076-.04l1.488-1.924c.065-.085.018-.228-.075-.228H4.61a.094.094 0 0 0-.074.039l-1.505 1.924c-.066.084-.02.228.074.228v.001z" fill="#fff"/></mask><g mask="url(#b)"><path d="m2.964 12.121.064.071h-.064v-.07z" fill="#8478DC"/><path d="m2.964 12.032.143.16h-.079l-.064-.07v-.09z" fill="#8379DC"/><path d="m2.964 11.99.02-.026.201.228h-.078l-.143-.16v-.042z" fill="#827ADB"/><path d="m2.983 11.964.034-.05.247.278h-.079l-.202-.228z" fill="#817BDB"/><path d="m3.017 11.915.033-.05.292.327h-.079l-.246-.277z" fill="#807CDA"/><path d="m3.05 11.865.035-.05.335.377h-.078l-.292-.327z" fill="#7F7DDA"/><path d="m3.086 11.814.034-.049.38.427h-.079l-.335-.378z" fill="#7E7ED9"/><path d="m3.12 11.765.035-.05.424.477h-.078l-.381-.427z" fill="#7D7FD9"/><path d="m3.155 11.716.034-.05.469.526h-.079l-.424-.476z" fill="#7C80D9"/><path d="m3.188 11.666.034-.05.514.576h-.079l-.469-.526z" fill="#7B81D8"/><path d="m3.222 11.615.035-.05.558.627h-.079l-.514-.577z" fill="#7A82D8"/><path d="m3.257 11.566.034-.05.603.676h-.08l-.557-.626z" fill="#7983D7"/><path d="m3.292 11.517.035-.051.647.726h-.08l-.602-.675z" fill="#7884D7"/><path d="m3.326 11.466.034-.05.692.776h-.079l-.647-.726z" fill="#7785D7"/><path d="m3.36 11.416.035-.049.736.825h-.079l-.692-.776z" fill="#7686D6"/><path d="m3.396 11.367.033-.051.78.876h-.078l-.735-.825z" fill="#7587D6"/><path d="m3.43 11.316.034-.05.824.926H4.21l-.78-.876z" fill="#7488D5"/><path d="m3.463 11.267.035-.05.869.975h-.079l-.825-.925z" fill="#7389D5"/><path d="m3.499 11.217.033-.05.914 1.025h-.079l-.868-.975z" fill="#728AD4"/><path d="m3.532 11.166.035-.049.958 1.075h-.08l-.913-1.026z" fill="#718BD4"/><path d="m3.567 11.117.035-.052 1.005 1.127h-.082l-.958-1.075z" fill="#718BD4"/><path d="m3.603 11.065.036-.053 1.051 1.18h-.082l-1.005-1.127z" fill="#708CD4"/><path d="m3.64 11.012.035-.05 1.098 1.23H4.69l-1.05-1.18z" fill="#6F8DD3"/><path d="m3.675 10.961.036-.052 1.143 1.283h-.082l-1.097-1.23z" fill="#6E8ED3"/><path d="m3.71 10.909.036-.053 1.19 1.336h-.082L3.711 10.91z" fill="#6D8FD2"/><path d="m3.746 10.856.036-.052 1.238 1.388h-.084l-1.19-1.336z" fill="#6C90D2"/><path d="m3.782 10.804.037-.053 1.283 1.441H5.02l-1.238-1.388z" fill="#6B91D2"/><path d="m3.82 10.751.036-.05 1.329 1.491h-.082l-1.284-1.44z" fill="#6A92D1"/><path d="m3.855 10.7.035-.052 1.377 1.544h-.083L3.855 10.7z" fill="#6993D1"/><path d="m3.89 10.648.036-.052 1.423 1.596h-.082L3.89 10.648z" fill="#6894D0"/><path d="m3.926 10.595.037-.052 1.47 1.65h-.084l-1.423-1.598z" fill="#6795D0"/><path d="M3.962 10.543 4 10.491l1.515 1.701h-.082l-1.47-1.649z" fill="#6696D0"/><path d="m4 10.49.035-.05 1.563 1.752h-.082L4 10.491z" fill="#6597CF"/><path d="m4.035 10.44.036-.053 1.609 1.805h-.083L4.035 10.44z" fill="#6498CF"/><path d="m4.07 10.387.037-.052 1.654 1.857H5.68L4.07 10.387z" fill="#6399CE"/><path d="m4.107 10.335.037-.053 1.7 1.91h-.082l-1.655-1.857z" fill="#629ACE"/><path d="m4.144 10.282.035-.052 1.749 1.962h-.084l-1.7-1.91z" fill="#629BCE"/><path d="m4.178 10.23.036-.053 1.795 2.015h-.082l-1.75-1.962z" fill="#619CCD"/><path d="m4.215 10.177.036-.05 1.841 2.065H6.01l-1.795-2.015z" fill="#609DCD"/><path d="m4.25 10.127.037-.053 1.887 2.118H6.09l-1.84-2.066z" fill="#5F9ECC"/><path d="m4.287 10.074.035-.052 1.934 2.17h-.082l-1.887-2.118z" fill="#5E9FCC"/><path d="M4.322 10.022 4.336 10h.05l1.953 2.192h-.083l-1.934-2.17z" fill="#5DA0CC"/><path d="m4.469 10 1.953 2.192H6.34L4.387 10h.082z" fill="#5CA1CB"/><path d="m4.552 10 1.953 2.192h-.082L4.47 10h.082z" fill="#5BA2CB"/><path d="m4.634 10 1.952 2.192h-.082L4.55 10h.084z" fill="#5AA3CA"/><path d="m4.717 10 1.952 2.192h-.082L4.635 10h.082z" fill="#59A4CA"/><path d="m4.8 10 1.952 2.192H6.67L4.717 10H4.8z" fill="#58A5C9"/><path d="m4.88 10 1.954 2.192h-.083L4.798 10h.083z" fill="#57A6C9"/><path d="m4.963 10 1.954 2.192h-.083L4.881 10h.082z" fill="#56A7C9"/><path d="m5.046 10 1.953 2.192h-.082L4.963 10h.083z" fill="#55A8C8"/><path d="m5.13 10 1.952 2.192h-.083L5.046 10h.083z" fill="#54A9C8"/><path d="m5.211 10 1.952 2.192h-.082L5.13 10h.082z" fill="#53AAC7"/><path d="m5.294 10 1.953 2.192h-.083L5.21 10h.083z" fill="#52ABC7"/><path d="m5.376 10 1.954 2.192h-.083L5.294 10h.082z" fill="#51ACC7"/><path d="m5.458 10 1.953 2.192H7.33L5.375 10h.083z" fill="#50ADC6"/><path d="m5.542 10 1.952 2.192h-.082L5.458 10h.084z" fill="#4FAEC6"/><path d="m5.624 10 1.953 2.192h-.083L5.542 10h.082z" fill="#4EAFC5"/><path d="m5.706 10 1.952 2.192h-.082L5.624 10h.082z" fill="#4DB0C5"/><path d="m5.788 10 1.954 2.192h-.084L5.706 10h.082z" fill="#4CB1C5"/><path d="m5.87 10 1.954 2.192h-.082L5.789 10h.082z" fill="#4BB2C4"/><path d="m5.954 10 1.953 2.192h-.082L5.872 10h.082z" fill="#4AB3C4"/><path d="m6.036 10 1.952 2.192h-.082L5.952 10h.084z" fill="#49B4C3"/><path d="m6.118 10 1.952 2.192h-.082L6.036 10h.082z" fill="#48B5C3"/><path d="m6.2 10 1.954 2.192H8.07L6.118 10H6.2z" fill="#47B6C3"/><path d="m6.282 10 1.954 2.192h-.082L6.2 10h.082z" fill="#46B7C2"/><path d="m6.365 10 1.953 2.192h-.082L6.283 10h.082z" fill="#45B8C2"/><path d="m6.447 10 1.954 2.192h-.082L6.365 10h.082z" fill="#44B9C1"/><path d="m6.531 10 1.952 2.192h-.082L6.448 10h.083z" fill="#43BBC1"/><path d="m6.614 10 1.952 2.192h-.082L6.53 10h.083z" fill="#43BCC1"/><path d="m6.696 10 1.953 2.192h-.083L6.613 10h.083z" fill="#42BDC0"/><path d="m6.778 10 1.954 2.192h-.083L6.696 10h.082z" fill="#41BEC0"/><path d="m6.86 10 1.953 2.192h-.082L6.777 10h.083z" fill="#40BFBF"/><path d="m6.944 10 1.952 2.192h-.082L6.86 10h.084z" fill="#3FC0BF"/><path d="m7.026 10 1.952 2.192h-.082L6.944 10h.082z" fill="#3EC1BF"/><path d="m7.108 10 1.953 2.192h-.083L7.025 10h.083z" fill="#3DC2BE"/><path d="m7.19 10 1.954 2.192H9.06L7.108 10h.082z" fill="#3CC3BE"/><path d="m7.272 10 1.954 2.192h-.083L7.19 10h.082z" fill="#3BC4BD"/><path d="m7.355 10 1.953 2.192h-.082L7.272 10h.083z" fill="#3AC5BD"/><path d="m7.437 10 1.953 2.192h-.083L7.354 10h.083z" fill="#39C6BD"/><path d="m7.52 10 1.952 2.192H9.39L7.437 10h.083z" fill="#38C7BC"/><path d="m7.602 10 1.954 2.192h-.084L7.52 10h.082z" fill="#37C8BC"/><path d="m7.684 10 1.954 2.192h-.082L7.602 10h.082z" fill="#36C9BB"/><path d="m7.767 10 1.953 2.192h-.082L7.685 10h.082z" fill="#35CABB"/><path d="m7.85 10 1.953 2.192H9.72L7.767 10h.084z" fill="#34CBBB"/><path d="m7.933 10 1.952 2.192h-.082L7.85 10h.082z" fill="#33CCBA"/><path d="m8.015 10 1.953 2.192h-.083L7.933 10h.082z" fill="#32CDBA"/><path d="m8.097 10 1.954 2.192h-.084L8.015 10h.082z" fill="#31CEB9"/><path d="m8.18 10 1.953 2.192h-.082L8.098 10h.082z" fill="#30CFB9"/><path d="m8.261 10 1.954 2.192h-.082L8.179 10h.082z" fill="#2FD0B9"/><path d="m8.345 10 1.952 2.192h-.082L8.262 10h.083z" fill="#2ED1B8"/><path d="m8.427 10 1.953 2.192h-.083L8.345 10h.082z" fill="#2DD2B8"/><path d="m8.51 10 1.953 2.192h-.083L8.427 10h.082z" fill="#2CD3B7"/><path d="m8.592 10 1.954 2.192h-.083L8.51 10h.082z" fill="#2BD4B7"/><path d="m8.675 10 1.953 2.192h-.082L8.592 10h.083z" fill="#2AD5B6"/><path d="m8.758 10 1.924 2.16-.022.032h-.032L8.674 10h.084z" fill="#29D6B6"/><path d="m8.84 10 1.879 2.109-.037.051L8.758 10h.082z" fill="#28D7B6"/><path d="m8.922 10 1.832 2.057-.036.052L8.839 10h.083z" fill="#27D8B5"/><path d="m9.004 10 1.786 2.004-.036.053L8.922 10h.082z" fill="#26D9B5"/><path d="m9.086 10 1.74 1.952-.037.052L9.004 10h.082z" fill="#25DAB4"/><path d="m9.169 10 1.693 1.9-.036.052L9.086 10h.083z" fill="#25DBB4"/><path d="m9.252 10 1.647 1.848-.037.051L9.17 10h.083z" fill="#24DCB4"/><path d="m9.335 10 1.599 1.796-.035.052L9.252 10h.083z" fill="#23DDB3"/><path d="m9.417 10 1.553 1.743-.036.053L9.335 10h.082z" fill="#22DEB3"/><path d="m9.5 10 1.507 1.69-.036.053L9.417 10H9.5z" fill="#21DFB2"/><path d="m9.582 10 1.46 1.639-.035.052L9.5 10h.082z" fill="#20E0B2"/><path d="m9.665 10 1.413 1.586-.035.053L9.582 10h.083z" fill="#1FE1B2"/><path d="m9.747 10 1.367 1.535-.037.051L9.665 10h.082z" fill="#1EE2B1"/><path d="m9.83 10 1.32 1.483-.036.052L9.747 10h.082z" fill="#1DE3B1"/><path d="m9.911 10 1.274 1.43-.035.053L9.83 10h.081z" fill="#1CE4B0"/><path d="m9.994 10 1.228 1.378-.037.052L9.912 10h.082z" fill="#1BE5B0"/><path d="m10.075 10 1.182 1.325-.036.053L9.993 10h.082z" fill="#1AE6B0"/><path d="m10.16 10 1.134 1.274-.036.051L10.076 10h.084z" fill="#19E7AF"/><path d="m10.242 10 1.087 1.222-.035.052L10.16 10h.082z" fill="#18E8AF"/><path d="m10.324 10 1.042 1.17-.036.052L10.242 10h.082z" fill="#17E9AE"/><path d="m10.406 10 .995 1.117-.036.052L10.324 10h.082zM12.034 10.2l-.632.917L10.406 10h1.628v.2z" fill="#16EAAE"/></g><mask id="c" style="mask-type:luminance" maskUnits="userSpaceOnUse" x="3" y="16" width="9" height="4"><path d="M11.895 16.832H4.61a.092.092 0 0 0-.074.04l-1.505 1.924c-.066.085-.02.228.074.228h7.3a.096.096 0 0 0 .076-.04l1.488-1.924c.065-.085.018-.228-.075-.228z" fill="#fff"/></mask><g mask="url(#c)"><path d="m2.964 18.822.028-.039.214.241h-.242v-.202z" fill="#CE2DFB"/><path d="m2.991 18.783.034-.049.259.29h-.079l-.214-.24z" fill="#CE2DFB"/><path d="m3.025 18.734.035-.05.303.34h-.079l-.259-.29z" fill="#CD2EFB"/><path d="m3.06 18.683.034-.05.348.391h-.08l-.301-.34z" fill="#CC2FFA"/><path d="m3.095 18.634.035-.05.39.44h-.078l-.347-.39z" fill="#CB30FA"/><path d="m3.13 18.584.033-.05.437.49h-.08l-.39-.44z" fill="#CA31F9"/><path d="m3.164 18.533.033-.049.482.54H3.6l-.436-.49z" fill="#C932F9"/><path d="m3.198 18.484.035-.05.525.59h-.079l-.481-.54z" fill="#C833F8"/><path d="m3.233 18.435.034-.05.57.639h-.08l-.524-.59z" fill="#C734F8"/><path d="m3.266 18.385.035-.05.613.69h-.078l-.57-.64z" fill="#C635F8"/><path d="m3.301 18.334.034-.049.658.739h-.078l-.614-.69z" fill="#C536F7"/><path d="m3.335 18.285.035-.05.703.789h-.08l-.658-.739z" fill="#C437F7"/><path d="m3.371 18.236.034-.051.747.839h-.078l-.703-.788z" fill="#C338F6"/><path d="m3.403 18.185.034-.05.792.889h-.078l-.748-.84z" fill="#C239F6"/><path d="m3.438 18.135.035-.049.835.938H4.23l-.793-.889z" fill="#C13AF6"/><path d="m3.472 18.086.034-.05.88.988h-.078l-.836-.938z" fill="#C03BF5"/><path d="m3.507 18.035.035-.05.925 1.039h-.08l-.88-.989z" fill="#BF3CF5"/><path d="m3.543 17.986.034-.05.969 1.088h-.079l-.924-1.038z" fill="#BE3DF4"/><path d="m3.576 17.936.034-.05 1.014 1.138h-.08l-.968-1.088z" fill="#BD3EF4"/><path d="m3.609 17.885.035-.049 1.058 1.188h-.078l-1.015-1.139z" fill="#BC3FF3"/><path d="m3.644 17.836.034-.05 1.103 1.238h-.079l-1.058-1.188z" fill="#BB40F3"/><path d="m3.679 17.787.035-.05 1.146 1.287h-.078l-1.103-1.237z" fill="#BA41F3"/><path d="m3.714 17.737.034-.05 1.191 1.337h-.078l-1.147-1.287z" fill="#B942F2"/><path d="m3.748 17.686.035-.049 1.235 1.387H4.94l-1.191-1.338z" fill="#B843F2"/><path d="m3.782 17.637.034-.05 1.281 1.437h-.08l-1.235-1.387z" fill="#B744F1"/><path d="m3.816 17.588.034-.051 1.326 1.487h-.079l-1.28-1.436z" fill="#B645F1"/><path d="m3.85 17.537.035-.05 1.37 1.537h-.08L3.85 17.537z" fill="#B546F1"/><path d="m3.885 17.487.034-.049 1.414 1.586h-.079l-1.369-1.537z" fill="#B447F0"/><path d="m3.92 17.438.035-.05 1.457 1.636h-.079L3.92 17.438z" fill="#B348F0"/><path d="m3.954 17.387.033-.05 1.503 1.687H5.41l-1.457-1.637z" fill="#B249EF"/><path d="m3.989 17.338.035-.05 1.546 1.736H5.49L3.99 17.338z" fill="#B14AEF"/><path d="m4.023 17.288.034-.05 1.592 1.786h-.08l-1.546-1.736z" fill="#B04BEE"/><path d="m4.057 17.237.034-.049 1.637 1.836h-.08l-1.59-1.787z" fill="#AF4CEE"/><path d="m4.09 17.188.036-.05 1.68 1.886h-.079l-1.636-1.836z" fill="#AE4DEE"/><path d="m4.126 17.139.034-.051 1.725 1.936h-.079l-1.68-1.885z" fill="#AD4EED"/><path d="m4.16 17.088.035-.05 1.769 1.986h-.079L4.16 17.088z" fill="#AC4FED"/><path d="m4.195 17.038.034-.049 1.813 2.035h-.078l-1.769-1.986z" fill="#AB50EC"/><path d="m4.229 16.989.035-.05 1.857 2.085h-.08L4.23 16.989z" fill="#AA51EC"/><path d="m4.264 16.94.034-.051L6.2 19.024h-.078L4.264 16.94z" fill="#A952EB"/><path d="m4.298 16.889.034-.05 1.948 2.185H6.2l-1.903-2.135z" fill="#A853EB"/><path d="m4.333 16.84.004-.008h.068l1.954 2.192h-.08l-1.946-2.185z" fill="#A754EB"/><path d="m4.484 16.832 1.952 2.192h-.078l-1.954-2.192h.08z" fill="#A655EA"/><path d="m4.563 16.832 1.952 2.192h-.078l-1.953-2.192h.079z" fill="#A556EA"/><path d="m4.641 16.832 1.952 2.192h-.078l-1.952-2.192h.078z" fill="#A457E9"/><path d="m4.721 16.832 1.954 2.192h-.08l-1.952-2.192h.078z" fill="#A358E9"/><path d="m4.799 16.832 1.953 2.192h-.078L4.72 16.832H4.8z" fill="#A259E9"/><path d="m4.877 16.832 1.953 2.192h-.078l-1.954-2.192h.079z" fill="#A15AE8"/><path d="m4.956 16.832 1.954 2.192h-.08l-1.953-2.192h.08z" fill="#A05BE8"/><path d="m5.035 16.832 1.953 2.192h-.079l-1.953-2.192h.08z" fill="#9F5DE7"/><path d="m5.114 16.832 1.953 2.192h-.08l-1.951-2.192h.078z" fill="#9E5EE7"/><path d="m5.193 16.832 1.954 2.192h-.08l-1.952-2.192h.078z" fill="#9D5FE6"/><path d="m5.271 16.832 1.954 2.192h-.079l-1.953-2.192h.078z" fill="#9C60E6"/><path d="m5.35 16.832 1.954 2.192h-.079l-1.953-2.192h.079z" fill="#9B61E6"/><path d="m5.429 16.832 1.953 2.192h-.078L5.35 16.832h.079z" fill="#9A62E5"/><path d="m5.509 16.832 1.952 2.192h-.078l-1.954-2.192h.08z" fill="#9963E5"/><path d="m5.587 16.832 1.952 2.192h-.078l-1.953-2.192h.079z" fill="#9864E4"/><path d="m5.666 16.832 1.952 2.192H7.54l-1.953-2.192h.079z" fill="#9765E4"/><path d="m5.744 16.832 1.954 2.192h-.08l-1.952-2.192h.078z" fill="#9666E4"/><path d="m5.823 16.832 1.954 2.192h-.079l-1.953-2.192h.078z" fill="#9567E3"/><path d="m5.902 16.832 1.954 2.192h-.079l-1.953-2.192h.078z" fill="#9468E3"/><path d="m5.981 16.832 1.953 2.192h-.078l-1.954-2.192h.079z" fill="#9369E2"/><path d="m6.06 16.832 1.953 2.192h-.08L5.98 16.832h.08z" fill="#926AE2"/><path d="m6.14 16.832 1.951 2.192h-.078L6.06 16.832h.078z" fill="#916BE1"/><path d="m6.217 16.832 1.954 2.192h-.08l-1.952-2.192h.078z" fill="#906CE1"/><path d="m6.296 16.832 1.954 2.192H8.17l-1.953-2.192h.078z" fill="#8F6DE1"/><path d="m6.375 16.832 1.953 2.192h-.079l-1.953-2.192h.079z" fill="#8E6EE0"/><path d="m6.453 16.832 1.953 2.192h-.079l-1.953-2.192h.079z" fill="#8D6FE0"/><path d="m6.534 16.832 1.952 2.192h-.078l-1.954-2.192h.08z" fill="#8C70DF"/><path d="m6.612 16.832 1.952 2.192h-.079l-1.952-2.192h.079z" fill="#8B71DF"/><path d="m6.69 16.832 1.953 2.192h-.078l-1.953-2.192h.079z" fill="#8A72DE"/><path d="m6.77 16.832 1.953 2.192h-.08L6.69 16.832h.079z" fill="#8973DE"/><path d="m6.847 16.832 1.954 2.192h-.079l-1.953-2.192h.078z" fill="#8874DE"/><path d="m6.926 16.832 1.954 2.192H8.8l-1.953-2.192h.078z" fill="#8775DD"/><path d="m7.005 16.832 1.953 2.192H8.88l-1.954-2.192h.079z" fill="#8676DD"/><path d="m7.085 16.832 1.952 2.192H8.96l-1.954-2.192h.08z" fill="#8577DC"/><path d="m7.163 16.832 1.952 2.192h-.078l-1.953-2.192h.08z" fill="#8478DC"/><path d="m7.243 16.832 1.953 2.192h-.08l-1.952-2.192h.079z" fill="#8379DC"/><path d="m7.321 16.832 1.954 2.192h-.079l-1.953-2.192h.078z" fill="#827ADB"/><path d="m7.4 16.832 1.953 2.192h-.079l-1.953-2.192h.078z" fill="#817BDB"/><path d="m7.478 16.832 1.953 2.192h-.079L7.4 16.832h.079z" fill="#807CDA"/><path d="m7.558 16.832 1.952 2.192h-.079l-1.953-2.192h.08z" fill="#7F7DDA"/><path d="m7.637 16.832 1.952 2.192H9.51l-1.952-2.192h.079z" fill="#7E7ED9"/><path d="m7.715 16.832 1.952 2.192h-.079l-1.952-2.192h.079z" fill="#7D7FD9"/><path d="m7.793 16.832 1.953 2.192h-.08l-1.952-2.192h.079z" fill="#7C80D9"/><path d="m7.873 16.832 1.954 2.192h-.08l-1.953-2.192h.08z" fill="#7B81D8"/><path d="m7.951 16.832 1.954 2.192h-.079l-1.953-2.192h.078z" fill="#7A82D8"/><path d="m8.03 16.832 1.954 2.192h-.079l-1.953-2.192h.078z" fill="#7983D7"/><path d="m8.11 16.832 1.951 2.192h-.078l-1.954-2.192h.08z" fill="#7884D7"/><path d="m8.188 16.832 1.953 2.192h-.079L8.11 16.832h.078z" fill="#7785D7"/><path d="m8.267 16.832 1.953 2.192h-.08l-1.952-2.192h.079z" fill="#7686D6"/><path d="m8.345 16.832 1.953 2.192h-.078l-1.954-2.192h.079z" fill="#7587D6"/><path d="m8.424 16.832 1.953 2.192H10.3l-1.954-2.192h.079z" fill="#7488D5"/><path d="m8.502 16.832 1.954 2.192h-.079l-1.953-2.192h.078z" fill="#7389D5"/><path d="m8.583 16.832 1.952 2.192h-.079l-1.953-2.192h.08z" fill="#728AD4"/><path d="m8.66 16.832 1.953 2.192h-.079l-1.952-2.192h.079z" fill="#718BD4"/><path d="M8.742 16.832 10.675 19l-.015.023h-.048L8.66 16.832h.082z" fill="#718BD4"/><path d="m8.825 16.832 1.887 2.116-.036.053-1.933-2.17h.082z" fill="#708CD4"/><path d="m8.907 16.832 1.84 2.066-.035.05-1.887-2.116h.082z" fill="#6F8DD3"/><path d="m8.99 16.832 1.794 2.013-.037.053-1.84-2.066h.083z" fill="#6E8ED3"/><path d="m9.074 16.832 1.747 1.96-.037.053-1.793-2.013h.083z" fill="#6D8FD2"/><path d="m9.156 16.832 1.701 1.908-.036.053-1.747-1.961h.082z" fill="#6C90D2"/><path d="m9.238 16.832 1.654 1.856-.036.052-1.7-1.908h.082z" fill="#6B91D2"/><path d="m9.32 16.832 1.608 1.805-.036.05-1.654-1.855h.083z" fill="#6A92D1"/><path d="m9.403 16.832 1.561 1.752-.036.053-1.608-1.805h.083z" fill="#6993D1"/><path d="m9.486 16.832 1.515 1.7-.037.052-1.561-1.752h.083z" fill="#6894D0"/><path d="m9.569 16.832 1.467 1.647-.035.053-1.515-1.7h.083z" fill="#6795D0"/><path d="m9.65 16.832 1.421 1.595-.036.052-1.467-1.647h.082z" fill="#6696D0"/><path d="m9.733 16.832 1.375 1.543-.036.052-1.422-1.595h.083z" fill="#6597CF"/><path d="m9.815 16.832 1.329 1.492-.036.05-1.376-1.542h.083z" fill="#6498CF"/><path d="m9.897 16.832 1.282 1.44-.035.052-1.33-1.492h.083z" fill="#6399CE"/><path d="m9.98 16.832 1.235 1.387-.036.052-1.283-1.44h.084z" fill="#629ACE"/><path d="m10.062 16.832 1.19 1.334-.037.053-1.235-1.387h.082z" fill="#629BCE"/><path d="m10.145 16.832 1.143 1.282-.036.052-1.189-1.334h.082z" fill="#619CCD"/><path d="m10.227 16.832 1.096 1.23-.035.052-1.143-1.282h.082z" fill="#609DCD"/><path d="m10.31 16.832 1.05 1.178-.037.053-1.096-1.231h.082z" fill="#5F9ECC"/><path d="m10.392 16.832 1.004 1.126-.037.052-1.05-1.178h.083z" fill="#5E9FCC"/><path d="m10.476 16.832.957 1.073-.037.053-1.003-1.126h.083z" fill="#5DA0CC"/><path d="m10.558 16.832.91 1.021-.035.052-.957-1.073h.082z" fill="#5CA1CB"/><path d="m10.64 16.832.864.97-.037.051-.91-1.021h.083z" fill="#5BA2CB"/><path d="m10.722 16.832.818.918-.036.052-.864-.97h.082z" fill="#5AA3CA"/><path d="m10.804 16.832.772.865-.036.053-.818-.918h.082z" fill="#59A4CA"/><path d="m10.888 16.832.723.813-.035.052-.771-.865h.083z" fill="#58A5C9"/><path d="m10.97 16.832.678.76-.037.053-.723-.813h.082z" fill="#57A6C9"/><path d="m11.052 16.832.631.708-.036.052-.677-.76h.082z" fill="#56A7C9"/><path d="m11.134 16.832.586.657-.036.05-.632-.707h.082z" fill="#55A8C8"/><path d="m11.216 16.832.539.604-.035.053-.586-.657h.082z" fill="#54A9C8"/><path d="m11.299 16.832.492.552-.036.052-.538-.604h.082z" fill="#53AAC7"/><path d="m11.382 16.832.445.5-.036.052-.493-.552h.084z" fill="#52ABC7"/><path d="m11.464 16.832.4.447-.037.052-.445-.5h.082z" fill="#51ACC7"/><path d="m11.547 16.832.352.396-.035.051-.4-.447h.083z" fill="#50ADC6"/><path d="m11.629 16.832.306.344-.037.052-.352-.396h.083z" fill="#4FAEC6"/><path d="m11.711 16.832.26.291-.036.053-.306-.344h.082z" fill="#4EAFC5"/><path d="m11.795 16.832.212.239-.035.052-.26-.291h.083z" fill="#4DB0C5"/><path d="m11.877 16.832.157.177v.023l-.027.039-.212-.24h.082z" fill="#4CB1C5"/><path d="m11.96 16.832.075.084v.093l-.157-.177h.082z" fill="#4BB2C4"/><path d="m12.034 16.916-.075-.084h.075v.084z" fill="#4AB3C4"/></g><mask id="d" style="mask-type:luminance" maskUnits="userSpaceOnUse" x="3" y="13" width="9" height="3"><path d="M10.48 13.444a.094.094 0 0 0-.074-.04H3.105c-.093 0-.14.143-.074.228l1.505 1.924c.02.024.046.04.074.04h7.284c.093 0 .14-.144.075-.229l-1.488-1.923z" fill="#fff"/></mask><g mask="url(#d)"><path d="m2.964 15.482.101.112h-.078l-.023-.024v-.088z" fill="#AA51EC"/><path d="m2.964 15.392.18.202h-.079l-.101-.112v-.09z" fill="#A952EB"/><path d="m2.964 15.304.259.29h-.079l-.18-.202v-.088z" fill="#A853EB"/><path d="m2.964 15.216.339.378h-.08l-.26-.29v-.088z" fill="#A754EB"/><path d="m2.964 15.127.417.467h-.078l-.34-.378v-.09z" fill="#A655EA"/><path d="m2.964 15.039.496.555H3.38l-.417-.467v-.088z" fill="#A556EA"/><path d="m2.964 14.951.574.643H3.46l-.496-.555v-.088z" fill="#A457E9"/><path d="m2.964 14.863.653.731h-.079l-.574-.643v-.088z" fill="#A358E9"/><path d="m2.964 14.774.732.82h-.079l-.653-.731v-.09z" fill="#A259E9"/><path d="m2.964 14.686.811.908h-.08l-.731-.82v-.088z" fill="#A15AE8"/><path d="m2.964 14.598.89.996h-.079l-.811-.908v-.088z" fill="#A05BE8"/><path d="m2.964 14.508.969 1.086h-.079l-.89-.996v-.09z" fill="#9F5DE7"/><path d="m2.964 14.42 1.047 1.174h-.078l-.97-1.086v-.088z" fill="#9E5EE7"/><path d="m2.964 14.332 1.126 1.262h-.079L2.964 14.42v-.088z" fill="#9D5FE6"/><path d="m2.964 14.243 1.205 1.351H4.09l-1.126-1.262v-.09z" fill="#9C60E6"/><path d="m2.964 14.155 1.283 1.44H4.17l-1.205-1.352v-.088z" fill="#9B61E6"/><path d="m2.964 14.067 1.363 1.527h-.08l-1.283-1.44v-.087z" fill="#9A62E5"/><path d="m2.964 13.977 1.442 1.617h-.079l-1.363-1.527v-.09z" fill="#9963E5"/><path d="m2.964 13.89 1.52 1.704h-.078l-1.442-1.617v-.088z" fill="#9864E4"/><path d="m2.964 13.802 1.599 1.792h-.079l-1.52-1.704v-.088z" fill="#9765E4"/><path d="m2.964 13.712 1.678 1.882h-.08l-1.598-1.792v-.09z" fill="#9666E4"/><path d="m2.964 13.624 1.756 1.97h-.078l-1.678-1.882v-.088z" fill="#9567E3"/><path d="M2.964 13.536 4.8 15.594h-.08l-1.756-1.97v-.088z" fill="#9468E3"/><path d="m2.964 13.447 1.915 2.147H4.8l-1.836-2.058v-.09z" fill="#9369E2"/><path d="m2.964 13.414.008-.01h.032l1.953 2.19H4.88l-1.915-2.147v-.033z" fill="#926AE2"/><path d="m3.081 13.403 1.954 2.191h-.08l-1.953-2.19h.08z" fill="#916BE1"/><path d="m3.161 13.403 1.953 2.191h-.079l-1.953-2.19h.08z" fill="#906CE1"/><path d="m3.24 13.403 1.952 2.191h-.078l-1.952-2.19h.078z" fill="#8F6DE1"/><path d="m3.32 13.403 1.952 2.191h-.079l-1.952-2.19h.078z" fill="#8E6EE0"/><path d="m3.397 13.403 1.954 2.191h-.08l-1.952-2.19h.078z" fill="#8D6FE0"/><path d="m3.478 13.403 1.953 2.191h-.079L3.4 13.404h.079z" fill="#8C70DF"/><path d="m3.556 13.403 1.953 2.191h-.078l-1.954-2.19h.079z" fill="#8B71DF"/><path d="m3.635 13.403 1.953 2.191h-.079l-1.953-2.19h.08z" fill="#8A72DE"/><path d="m3.713 13.403 1.953 2.191h-.079l-1.952-2.19h.078z" fill="#8973DE"/><path d="m3.792 13.403 1.953 2.191h-.079l-1.952-2.19h.078z" fill="#8874DE"/><path d="m3.872 13.403 1.953 2.191h-.08l-1.952-2.19h.079z" fill="#8775DD"/><path d="m3.95 13.403 1.953 2.191h-.078l-1.954-2.19h.079z" fill="#8676DD"/><path d="m4.028 13.403 1.953 2.191h-.078l-1.954-2.19h.079z" fill="#8577DC"/><path d="m4.107 13.403 1.953 2.191h-.078l-1.954-2.19h.079z" fill="#8478DC"/><path d="m4.187 13.403 1.953 2.191h-.08l-1.953-2.19h.08z" fill="#8379DC"/><path d="m4.265 13.403 1.952 2.191H6.14l-1.952-2.19h.078z" fill="#827ADB"/><path d="m4.343 13.403 1.953 2.191h-.08l-1.951-2.19h.078z" fill="#817BDB"/><path d="m4.423 13.403 1.954 2.191h-.08l-1.952-2.19h.078z" fill="#807CDA"/><path d="m4.501 13.403 1.954 2.191h-.079l-1.953-2.19H4.5z" fill="#7F7DDA"/><path d="m4.58 13.403 1.953 2.191h-.079L4.5 13.404h.08z" fill="#7E7ED9"/><path d="m4.66 13.403 1.952 2.191h-.078l-1.954-2.19h.08z" fill="#7D7FD9"/><path d="m4.739 13.403 1.952 2.191h-.079l-1.952-2.19h.079z" fill="#7C80D9"/><path d="m4.817 13.403 1.952 2.191h-.078l-1.953-2.19h.079z" fill="#7B81D8"/><path d="m4.896 13.403 1.953 2.191h-.08l-1.952-2.19h.079z" fill="#7A82D8"/><path d="m4.974 13.403 1.953 2.191h-.079l-1.953-2.19h.079z" fill="#7983D7"/><path d="m5.054 13.403 1.953 2.191H6.93l-1.954-2.19h.079z" fill="#7884D7"/><path d="m5.13 13.403 1.954 2.191h-.078l-1.954-2.19h.079z" fill="#7785D7"/><path d="m5.21 13.403 1.952 2.191h-.078l-1.954-2.19h.08z" fill="#7686D6"/><path d="m5.29 13.403 1.952 2.191h-.078l-1.953-2.19h.079z" fill="#7587D6"/><path d="m5.37 13.403 1.951 2.191h-.078l-1.952-2.19h.078z" fill="#7488D5"/><path d="m5.447 13.403 1.954 2.191h-.08l-1.952-2.19h.078z" fill="#7389D5"/><path d="m5.525 13.403 1.954 2.191H7.4l-1.953-2.19h.078z" fill="#728AD4"/><path d="m5.604 13.403 1.954 2.191h-.079l-1.953-2.19h.079z" fill="#718BD4"/><path d="m5.688 13.403 1.953 2.191h-.083l-1.953-2.19h.083z" fill="#718BD4"/><path d="m5.77 13.403 1.952 2.191H7.64l-1.952-2.19h.082z" fill="#708CD4"/><path d="m5.853 13.403 1.952 2.191h-.082l-1.952-2.19h.082z" fill="#6F8DD3"/><path d="m5.935 13.403 1.954 2.191h-.084l-1.952-2.19h.082z" fill="#6E8ED3"/><path d="m6.017 13.403 1.953 2.191h-.082l-1.953-2.19h.082z" fill="#6D8FD2"/><path d="m6.1 13.403 1.953 2.191H7.97l-1.954-2.19H6.1z" fill="#6C90D2"/><path d="m6.183 13.403 1.952 2.191h-.082l-1.954-2.19h.084z" fill="#6B91D2"/><path d="m6.265 13.403 1.952 2.191h-.082l-1.952-2.19h.082z" fill="#6A92D1"/><path d="m6.347 13.403 1.954 2.191h-.084l-1.952-2.19h.082z" fill="#6993D1"/><path d="m6.429 13.403 1.953 2.191H8.3l-1.953-2.19h.082z" fill="#6894D0"/><path d="m6.512 13.403 1.953 2.191h-.082l-1.953-2.19h.082z" fill="#6795D0"/><path d="m6.595 13.403 1.952 2.191h-.082l-1.954-2.19h.084z" fill="#6696D0"/><path d="m6.677 13.403 1.952 2.191h-.082l-1.952-2.19h.082z" fill="#6597CF"/><path d="m6.76 13.403 1.952 2.191H8.63l-1.953-2.19h.083z" fill="#6498CF"/><path d="m6.842 13.403 1.953 2.191h-.083l-1.953-2.19h.083z" fill="#6399CE"/><path d="m6.924 13.403 1.954 2.191h-.083l-1.953-2.19h.082z" fill="#629ACE"/><path d="m7.006 13.403 1.953 2.191h-.082l-1.954-2.19h.083z" fill="#629BCE"/><path d="m7.09 13.403 1.953 2.191H8.96l-1.953-2.19h.083z" fill="#619CCD"/><path d="m7.173 13.403 1.952 2.191h-.082l-1.953-2.19h.083z" fill="#609DCD"/><path d="m7.255 13.403 1.953 2.191h-.083l-1.953-2.19h.083z" fill="#5F9ECC"/><path d="m7.337 13.403 1.954 2.191h-.083l-1.953-2.19h.082z" fill="#5E9FCC"/><path d="m7.419 13.403 1.953 2.191H9.29l-1.954-2.19h.083z" fill="#5DA0CC"/><path d="m7.502 13.403 1.953 2.191h-.083l-1.953-2.19h.083z" fill="#5CA1CB"/><path d="m7.585 13.403 1.952 2.191h-.082l-1.953-2.19h.083z" fill="#5BA2CB"/><path d="m7.667 13.403 1.952 2.191h-.082l-1.953-2.19h.083z" fill="#5AA3CA"/><path d="m7.748 13.403 1.954 2.191h-.084l-1.952-2.19h.082z" fill="#59A4CA"/><path d="m7.83 13.403 1.954 2.191h-.082l-1.953-2.19h.082z" fill="#58A5C9"/><path d="m7.914 13.403 1.953 2.191h-.082l-1.953-2.19h.082z" fill="#57A6C9"/><path d="m7.997 13.403 1.952 2.191h-.082l-1.954-2.19h.084z" fill="#56A7C9"/><path d="m8.079 13.403 1.952 2.191H9.95l-1.952-2.19h.082z" fill="#55A8C8"/><path d="m8.161 13.403 1.954 2.191h-.084l-1.952-2.19h.082z" fill="#54A9C8"/><path d="m8.243 13.403 1.954 2.191h-.082l-1.954-2.19h.082z" fill="#53AAC7"/><path d="m8.326 13.403 1.953 2.191h-.082l-1.953-2.19h.082z" fill="#52ABC7"/><path d="m8.408 13.403 1.954 2.191h-.082l-1.954-2.19h.082z" fill="#51ACC7"/><path d="m8.492 13.403 1.952 2.191h-.082l-1.953-2.19h.083z" fill="#50ADC6"/><path d="m8.574 13.403 1.953 2.191h-.083l-1.952-2.19h.082z" fill="#4FAEC6"/><path d="m8.656 13.403 1.953 2.191h-.083l-1.952-2.19h.082z" fill="#4EAFC5"/><path d="m8.739 13.403 1.954 2.191h-.083l-1.953-2.19h.082z" fill="#4DB0C5"/><path d="m8.82 13.403 1.954 2.191h-.082l-1.954-2.19h.083z" fill="#4CB1C5"/><path d="m8.903 13.403 1.952 2.191h-.082l-1.953-2.19h.083z" fill="#4BB2C4"/><path d="m8.987 13.403 1.952 2.191h-.082l-1.953-2.19h.083z" fill="#4AB3C4"/><path d="m9.07 13.403 1.953 2.191h-.084l-1.952-2.19h.082z" fill="#49B4C3"/><path d="m9.15 13.403 1.954 2.191h-.083l-1.953-2.19h.082z" fill="#48B5C3"/><path d="m9.233 13.403 1.953 2.191h-.082l-1.954-2.19h.083z" fill="#47B6C3"/><path d="m9.315 13.403 1.954 2.191h-.083l-1.953-2.19h.082z" fill="#46B7C2"/><path d="m9.398 13.403 1.953 2.191h-.083l-1.953-2.19h.083z" fill="#45B8C2"/><path d="m9.48 13.403 1.953 2.191h-.082l-1.953-2.19h.083z" fill="#44B9C1"/><path d="m9.563 13.403 1.954 2.191h-.084l-1.952-2.19h.082z" fill="#43BBC1"/><path d="m9.645 13.403 1.953 2.191h-.082l-1.954-2.19h.083z" fill="#43BCC1"/><path d="m9.728 13.403 1.953 2.191H11.6l-1.953-2.19h.082z" fill="#42BDC0"/><path d="m9.811 13.403 1.953 2.191h-.082l-1.954-2.19h.083z" fill="#41BEC0"/><path d="m9.894 13.403 1.952 2.191h-.082l-1.952-2.19h.082z" fill="#40BFBF"/><path d="m9.976 13.403 1.953 2.191h-.083l-1.952-2.19h.082z" fill="#3FC0BF"/><path d="m10.059 13.403 1.953 2.191h-.083l-1.952-2.19h.082z" fill="#3EC1BF"/><path d="m10.14 13.403 1.895 2.125v.056l-.008.01h-.015l-1.953-2.19h.082z" fill="#3DC2BE"/><path d="m10.223 13.403 1.812 2.032v.093l-1.894-2.125h.082z" fill="#3CC3BE"/><path d="m10.305 13.403 1.729 1.94v.092l-1.812-2.032h.083z" fill="#3BC4BD"/><path d="m10.387 13.403 1.647 1.847v.093l-1.729-1.94h.082z" fill="#3AC5BD"/><path d="m10.47 13.403 1.564 1.755v.092l-1.646-1.847h.082z" fill="#39C6BD"/><path d="m10.553 13.403 1.482 1.662v.093l-1.564-1.755h.082z" fill="#38C7BC"/><path d="m10.636 13.403 1.399 1.57v.092l-1.482-1.662h.082z" fill="#37C8BC"/><path d="m10.718 13.403 1.316 1.477v.093l-1.4-1.57h.084z" fill="#36C9BB"/><path d="m10.8 13.403 1.234 1.384v.093l-1.316-1.477h.082z" fill="#35CABB"/><path d="m10.883 13.403 1.152 1.292v.092l-1.234-1.384h.082z" fill="#34CBBB"/><path d="m10.965 13.403 1.07 1.2v.092l-1.152-1.292h.082z" fill="#33CCBA"/><path d="m11.048 13.403.987 1.107v.092l-1.07-1.199h.083z" fill="#32CDBA"/><path d="m11.13 13.403.904 1.014v.093l-.987-1.107h.083z" fill="#31CEB9"/><path d="m11.213 13.403.822.922v.092l-.905-1.014h.083z" fill="#30CFB9"/><path d="m11.296 13.403.739.829v.093l-.822-.921h.083z" fill="#2FD0B9"/><path d="m11.378 13.403.657.736v.093l-.74-.829h.083z" fill="#2ED1B8"/><path d="m11.46 13.403.575.644v.092l-.657-.736h.083z" fill="#2DD2B8"/><path d="m11.542 13.403.492.551v.093l-.575-.644h.083z" fill="#2CD3B7"/><path d="m11.626 13.403.408.459v.092l-.492-.55h.084z" fill="#2BD4B7"/><path d="m11.709 13.403.326.366v.093l-.409-.459h.083z" fill="#2AD5B6"/><path d="m11.79 13.403.244.274v.092l-.327-.366h.082z" fill="#29D6B6"/><path d="m11.872 13.403.162.181v.093l-.244-.274h.082z" fill="#28D7B6"/><path d="m11.955 13.403.08.088v.093l-.162-.18h.082z" fill="#27D8B5"/><path d="m12.035 13.491-.08-.088h.08v.088z" fill="#26D9B5"/></g></g><defs><clipPath id="a"><path fill="#fff" d="M0 0h24v24H0z"/></clipPath></defs></svg>