<svg width="24" height="24" fill="none" xmlns="http://www.w3.org/2000/svg"><g clip-path="url(#a)"><path fill-rule="evenodd" clip-rule="evenodd" d="M9.784 3.154h13.433c.285.334.504.725.637 1.154H9.147c.134-.429.352-.82.637-1.154zM9 5.462h15v1.154H9V5.462zM24 7.77H9v1.153h15V7.77zM9 10.077h15v1.154H9v-1.154zm15 2.308H9v1.154h15v-1.154zM9.147 14.693h14.707a3.27 3.27 0 0 1-.637 1.154H9.784a3.274 3.274 0 0 1-.637-1.154z" fill="#F5F5F5"/><path fill-rule="evenodd" clip-rule="evenodd" d="M20.719 2H12.28c-1 0-1.896.448-2.498 1.154h13.434A3.274 3.274 0 0 0 20.719 2zM24 6.615H9V7.77h15V6.615zm-.147-2.307c.096.308.147.635.147.974v.18H9v-.18c0-.34.051-.666.147-.974h14.706zM24 8.923H9v1.154h15V8.923zm0 4.616v.18c0 .34-.051.666-.147.974H9.147A3.28 3.28 0 0 1 9 13.719v-.18h15zm-.783 2.307H9.783A3.274 3.274 0 0 0 12.281 17h8.438c1 0 1.896-.448 2.498-1.154zM9 11.231h15v1.154H9V11.23v.001z" fill="#FA4051"/><path d="M17 2h-4.75C10.455 2 9 3.47 9 5.281v4.796h8V2z" fill="#1939C9"/><path fill-rule="evenodd" clip-rule="evenodd" d="m11.613 2.721.062.187.197.002c.025 0 .036.032.015.047l-.158.117.06.188a.027.027 0 0 1-.041.03l-.16-.115-.16.114a.027.027 0 0 1-.04-.014.027.027 0 0 1 0-.016l.058-.187-.158-.117a.025.025 0 0 1-.01-.013.026.026 0 0 1 .01-.03.026.026 0 0 1 .016-.004l.196-.002.063-.187a.027.027 0 0 1 .025-.017.027.027 0 0 1 .025.017zm-1.743.541a.027.027 0 0 0 .04.03l.16-.115.16.115a.027.027 0 0 0 .03-.002.027.027 0 0 0 .01-.028l-.057-.187.158-.117a.027.027 0 0 0 .009-.013.028.028 0 0 0 0-.017.027.027 0 0 0-.025-.018l-.196-.002-.034-.1a3.302 3.302 0 0 0-.241.233l.046.034-.06.187zm.226 1.016.063.187.196.001c.026 0 .036.033.016.048l-.158.117.059.187a.027.027 0 0 1-.025.034.027.027 0 0 1-.015-.004l-.16-.115-.16.115a.027.027 0 0 1-.042-.03l.06-.187-.158-.117a.027.027 0 0 1 .015-.048l.197-.001.062-.187a.027.027 0 0 1 .025-.017.027.027 0 0 1 .025.017zm.064 1.912-.063-.186a.027.027 0 0 0-.025-.017.027.027 0 0 0-.025.017l-.062.186-.197.002a.027.027 0 0 0-.015.048l.158.117-.06.187a.027.027 0 0 0 .04.03l.16-.115.16.115a.027.027 0 0 0 .042-.014.027.027 0 0 0 0-.016l-.06-.187.159-.117a.027.027 0 0 0 .009-.013.028.028 0 0 0 0-.017.027.027 0 0 0-.025-.018l-.196-.002zm-.063 1.4.063.187.196.002c.026 0 .036.032.016.047l-.158.117.059.188a.027.027 0 0 1-.025.034.027.027 0 0 1-.015-.004l-.16-.115-.16.114a.027.027 0 0 1-.042-.03l.06-.187-.158-.117a.027.027 0 0 1 .015-.047l.197-.002.062-.187a.027.027 0 0 1 .025-.017.027.027 0 0 1 .025.017zm.063 1.63-.063-.187a.027.027 0 0 0-.025-.017.027.027 0 0 0-.025.017l-.062.187-.197.002a.027.027 0 0 0-.015.047l.158.117-.06.188a.027.027 0 0 0 .04.03l.16-.115.16.114a.027.027 0 0 0 .042-.014.027.027 0 0 0 0-.016l-.06-.187.159-.117a.026.026 0 0 0 .008-.013.027.027 0 0 0-.01-.028.027.027 0 0 0-.014-.006l-.196-.002zm.694-5.762.062.186.197.002c.026 0 .036.032.016.048l-.16.116.06.188a.027.027 0 0 1-.041.03l-.16-.115-.16.115a.027.027 0 0 1-.038-.014.027.027 0 0 1-.001-.016l.059-.188-.16-.116a.026.026 0 0 1-.01-.013.026.026 0 0 1 0-.017.026.026 0 0 1 .027-.018l.197-.002.062-.186a.027.027 0 0 1 .025-.017.027.027 0 0 1 .025.017zm.062 1.913-.062-.187a.027.027 0 0 0-.025-.017.027.027 0 0 0-.025.017l-.062.187-.197.001a.027.027 0 0 0-.025.035c.001.005.005.01.009.013l.159.117-.06.187a.027.027 0 0 0 .01.03.027.027 0 0 0 .03 0l.16-.115.16.115a.027.027 0 0 0 .03-.002.027.027 0 0 0 .01-.028l-.058-.187.159-.117a.027.027 0 0 0 .009-.013.028.028 0 0 0 0-.017.027.027 0 0 0-.025-.018l-.197-.001zm-.062 1.453.062.187.197.001c.026 0 .036.033.016.048l-.16.117.06.188a.027.027 0 0 1-.025.034.027.027 0 0 1-.014-.004l-.161-.115-.16.114a.027.027 0 0 1-.04-.014.027.027 0 0 1 0-.016l.059-.187-.16-.117a.027.027 0 0 1-.008-.013.026.026 0 0 1 0-.017.027.027 0 0 1 .025-.018l.197-.001.062-.187a.027.027 0 0 1 .025-.017.027.027 0 0 1 .025.017zm.062 1.66-.063-.184a.027.027 0 0 0-.025-.017.027.027 0 0 0-.025.017l-.062.186-.197.002a.027.027 0 0 0-.025.035c.001.005.005.01.009.013l.159.116-.06.188a.027.027 0 0 0 .01.03.027.027 0 0 0 .03 0l.16-.115.16.115a.027.027 0 0 0 .03-.002.027.027 0 0 0 .01-.028l-.058-.188.159-.116a.027.027 0 0 0 .009-.013.028.028 0 0 0 0-.017.027.027 0 0 0-.025-.018l-.197-.002v-.002zm.76-4.02-.062-.187a.027.027 0 0 0-.025-.017.027.027 0 0 0-.025.017l-.063.187-.196.001a.027.027 0 0 0-.025.035c.001.005.005.01.009.013l.158.117-.06.187a.027.027 0 0 0 .026.034c.005 0 .01-.001.015-.004l.16-.115.16.115a.027.027 0 0 0 .042-.013.026.026 0 0 0 0-.017l-.06-.187.158-.117a.027.027 0 0 0 0-.042.027.027 0 0 0-.015-.006l-.197-.001zm-.062 1.54.062.186.197.002c.025 0 .036.033.015.048l-.158.117.06.187a.027.027 0 0 1-.041.03l-.16-.115-.16.115a.027.027 0 0 1-.04-.014.027.027 0 0 1 0-.016l.058-.187-.158-.117a.026.026 0 0 1-.01-.013.026.026 0 0 1 .001-.017.027.027 0 0 1 .025-.018l.195-.002.063-.186a.027.027 0 0 1 .025-.017.027.027 0 0 1 .025.017zm.062 1.773-.062-.187a.027.027 0 0 0-.025-.017.027.027 0 0 0-.025.017l-.063.187-.196.002a.027.027 0 0 0-.024.018.026.026 0 0 0 0 .016c.001.005.004.01.008.013l.158.117-.06.188a.027.027 0 0 0 .026.034c.005 0 .01-.001.015-.004l.16-.115.16.114a.027.027 0 0 0 .042-.013.026.026 0 0 0 0-.017l-.06-.187.158-.117a.027.027 0 0 0 .008-.028.027.027 0 0 0-.023-.019l-.197-.002zm-.062 1.256.062.187.197.002c.025 0 .036.032.015.047l-.158.117.06.188a.027.027 0 0 1-.041.03l-.16-.115-.16.114a.027.027 0 0 1-.04-.014.027.027 0 0 1 0-.016l.058-.187-.158-.117a.027.027 0 0 1-.008-.013.026.026 0 0 1 .01-.028.027.027 0 0 1 .014-.006l.195-.002.063-.187a.027.027 0 0 1 .025-.017.027.027 0 0 1 .025.017zm.818-5.389-.062-.184a.027.027 0 0 0-.025-.017.027.027 0 0 0-.025.017l-.063.186-.196.002a.027.027 0 0 0-.025.035c.001.005.005.01.009.013l.158.116-.06.188a.027.027 0 0 0 .042.03l.16-.115.16.115a.027.027 0 0 0 .03-.002.027.027 0 0 0 .01-.028l-.06-.188.159-.116a.026.026 0 0 0-.015-.048l-.197-.002v-.002zm-.062 1.54.062.187.197.001c.025 0 .036.033.015.048l-.158.117.06.187a.027.027 0 0 1-.041.03l-.16-.115-.16.115a.027.027 0 0 1-.041-.03l.06-.187-.16-.117a.026.026 0 0 1-.008-.013.026.026 0 0 1 0-.017.027.027 0 0 1 .025-.018l.196-.002.062-.186a.027.027 0 0 1 .025-.017c.005 0 .01.002.015.005a.03.03 0 0 1 .01.012zm.062 1.827-.062-.187a.026.026 0 0 0-.05 0l-.063.187-.196.001a.027.027 0 0 0-.025.035c.001.005.005.01.009.013l.158.117-.06.188a.027.027 0 0 0 .042.03l.16-.115.16.114a.027.027 0 0 0 .03-.002.027.027 0 0 0 .01-.028l-.06-.187.159-.117a.027.027 0 0 0 0-.042.027.027 0 0 0-.015-.006l-.197-.001zm-.062 1.288.062.186.197.002c.025 0 .036.032.015.048l-.158.116.06.188a.027.027 0 0 1-.041.03l-.16-.115-.16.115a.027.027 0 0 1-.041-.03l.06-.188-.16-.116a.026.026 0 0 1-.008-.013.026.026 0 0 1 0-.017.027.027 0 0 1 .025-.018l.196-.002.062-.186a.027.027 0 0 1 .025-.017c.005 0 .01.002.015.005a.03.03 0 0 1 .01.012zm.822-5.39-.062-.188a.027.027 0 0 0-.025-.017.027.027 0 0 0-.025.017l-.063.187-.197.002a.026.026 0 0 0-.015.047l.158.117-.06.188a.027.027 0 0 0 .01.03.027.027 0 0 0 .03 0l.16-.115.16.114a.027.027 0 0 0 .042-.014.027.027 0 0 0 0-.016l-.06-.187.16-.117a.026.026 0 0 0 0-.042.026.026 0 0 0-.016-.005l-.197-.001zm-.062 1.369.062.187.197.001c.025 0 .036.033.015.048l-.158.117.06.187a.027.027 0 0 1-.042.03l-.16-.115-.16.115a.027.027 0 0 1-.04-.014.027.027 0 0 1 0-.016l.059-.187-.158-.117a.027.027 0 0 1-.01-.03.027.027 0 0 1 .025-.018l.197-.002.062-.186a.027.027 0 0 1 .025-.017c.005 0 .01.002.015.005a.03.03 0 0 1 .01.012zm.06 1.912-.062-.186a.027.027 0 0 0-.025-.017.027.027 0 0 0-.025.017l-.063.186-.197.002a.027.027 0 0 0-.024.019.027.027 0 0 0 .009.029l.158.117-.06.187a.027.027 0 0 0 .01.03.027.027 0 0 0 .03 0l.16-.115.16.115a.027.027 0 0 0 .042-.014.027.027 0 0 0 0-.016l-.06-.187.16-.117a.027.027 0 0 0 .009-.013.028.028 0 0 0 0-.017.027.027 0 0 0-.025-.018l-.197-.002zm-.062 1.4.062.187.197.002c.025 0 .036.032.015.047l-.158.117.06.188a.027.027 0 0 1-.042.03l-.16-.115-.16.114a.027.027 0 0 1-.04-.014.027.027 0 0 1 0-.016l.059-.187-.158-.117a.027.027 0 0 1-.008-.013.028.028 0 0 1 .009-.028.027.027 0 0 1 .014-.006l.197-.002.062-.187a.027.027 0 0 1 .025-.017c.005 0 .01.002.015.005a.03.03 0 0 1 .01.012zm.062 1.63-.062-.187a.027.027 0 0 0-.025-.017.027.027 0 0 0-.025.017l-.063.187-.197.002a.027.027 0 0 0-.023.019.028.028 0 0 0 0 .015c.001.005.004.01.008.013l.158.117-.06.188a.027.027 0 0 0 .01.03.027.027 0 0 0 .03 0l.16-.115.16.114a.027.027 0 0 0 .042-.014.027.027 0 0 0 0-.016l-.06-.187.16-.117a.026.026 0 0 0 .008-.013.027.027 0 0 0-.01-.028.027.027 0 0 0-.014-.006l-.197-.002zm.694-5.762.063.186.196.002c.026 0 .036.032.016.048L14 3.81l.059.19a.027.027 0 0 1-.025.034.027.027 0 0 1-.015-.004l-.16-.115-.16.115a.027.027 0 0 1-.041-.03l.059-.188-.158-.116a.027.027 0 0 1-.01-.03.027.027 0 0 1 .025-.018l.197-.002.062-.186a.026.026 0 0 1 .05 0v-.002zm.063 1.913-.063-.187a.026.026 0 0 0-.05 0l-.062.187-.197.001a.027.027 0 0 0-.024.019.027.027 0 0 0 .009.029l.158.117-.06.187a.027.027 0 0 0 .01.03.027.027 0 0 0 .03 0l.16-.115.16.115a.027.027 0 0 0 .041-.014.027.027 0 0 0 0-.016L14 5.537l.16-.117a.027.027 0 0 0 .009-.013.028.028 0 0 0 0-.017.027.027 0 0 0-.025-.018l-.196-.001zm-.063 1.453.063.187.196.001c.026 0 .036.033.016.048L14 7.177l.059.188a.027.027 0 0 1-.025.034.027.027 0 0 1-.015-.004l-.16-.115-.16.114a.027.027 0 0 1-.041-.03l.059-.187-.158-.117a.027.027 0 0 1-.01-.03.027.027 0 0 1 .025-.018l.197-.001.062-.187a.026.026 0 0 1 .05 0zm.063 1.66-.062-.184a.026.026 0 0 0-.05 0l-.062.186-.197.002a.027.027 0 0 0-.024.019.027.027 0 0 0 .009.029l.158.116-.06.188a.027.027 0 0 0 .01.03.027.027 0 0 0 .03 0l.16-.115.16.115a.027.027 0 0 0 .041-.014.027.027 0 0 0 0-.016L14 8.652l.16-.116a.027.027 0 0 0 .009-.013.028.028 0 0 0 0-.017.027.027 0 0 0-.025-.018l-.196-.002-.001-.002zm.695-5.764.063.187.196.002c.026 0 .036.032.016.047l-.158.117.059.188a.027.027 0 0 1-.025.034.027.027 0 0 1-.015-.004l-.16-.115-.16.114a.027.027 0 0 1-.042-.03l.06-.187-.16-.117a.025.025 0 0 1-.009-.013.026.026 0 0 1 .01-.03.026.026 0 0 1 .016-.004l.197-.002.062-.187a.026.026 0 0 1 .05 0zm.063 1.744-.063-.187a.027.027 0 0 0-.025-.017.027.027 0 0 0-.025.017l-.062.187-.197.001a.027.027 0 0 0-.025.035c.001.005.005.01.009.013l.159.117-.06.187a.027.027 0 0 0 .01.03.027.027 0 0 0 .03 0l.16-.115.16.115a.027.027 0 0 0 .03-.002.027.027 0 0 0 .01-.028l-.057-.187.158-.117a.027.027 0 0 0 .009-.013.028.028 0 0 0 0-.017.027.027 0 0 0-.025-.018l-.196-.001zm-.063 1.54.063.186.196.002c.026 0 .036.033.016.048l-.158.117.059.187a.027.027 0 0 1-.025.034.027.027 0 0 1-.015-.004l-.16-.115-.16.115a.027.027 0 0 1-.042-.03l.06-.187-.16-.117a.026.026 0 0 1-.008-.013.026.026 0 0 1 0-.017.027.027 0 0 1 .025-.018l.197-.002.062-.186a.027.027 0 0 1 .025-.017.027.027 0 0 1 .025.017zm.063 1.773-.063-.187a.027.027 0 0 0-.025-.017.027.027 0 0 0-.025.017l-.062.187-.197.002a.027.027 0 0 0-.024.018.026.026 0 0 0 0 .016c.001.005.004.01.008.013l.159.117-.06.188a.027.027 0 0 0 .01.03.027.027 0 0 0 .03 0l.16-.115.16.114a.027.027 0 0 0 .03-.002.027.027 0 0 0 .01-.028l-.057-.187.158-.117a.026.026 0 0 0 .008-.013.027.027 0 0 0-.01-.028.027.027 0 0 0-.014-.006l-.196-.002zm-.063 1.256.063.187.196.002c.026 0 .036.032.016.047l-.158.117.059.188a.027.027 0 0 1-.025.034.027.027 0 0 1-.015-.004l-.16-.115-.16.114a.027.027 0 0 1-.042-.03l.06-.187-.16-.117a.027.027 0 0 1-.007-.013.026.026 0 0 1 .01-.028.027.027 0 0 1 .014-.006l.197-.002.062-.187a.027.027 0 0 1 .025-.017.027.027 0 0 1 .025.017zm.818-5.389-.06-.184a.027.027 0 0 0-.025-.017.027.027 0 0 0-.025.017l-.062.186-.197.002a.027.027 0 0 0-.025.035c.001.005.004.01.009.013l.159.116-.06.188a.027.027 0 0 0 .025.034c.005 0 .01-.001.015-.004l.16-.115.16.115a.027.027 0 0 0 .03-.002.027.027 0 0 0 .01-.028l-.058-.188.159-.116a.026.026 0 0 0-.016-.048l-.197-.002-.002-.002zm-.06 1.541.062.187.197.001c.026 0 .036.033.016.048l-.16.117.06.187a.027.027 0 0 1-.041.03l-.16-.115-.16.115a.027.027 0 0 1-.039-.014.027.027 0 0 1 0-.016l.059-.187-.16-.117a.026.026 0 0 1-.008-.013.026.026 0 0 1 0-.017.027.027 0 0 1 .025-.018l.197-.002.062-.186a.027.027 0 0 1 .025-.017.027.027 0 0 1 .025.017zm.062 1.827-.062-.187a.027.027 0 0 0-.025-.017.027.027 0 0 0-.025.017l-.062.187-.197.001a.027.027 0 0 0-.025.035c.001.005.004.01.009.013l.159.117-.06.188a.027.027 0 0 0 .025.034c.005 0 .01-.001.015-.004l.16-.115.16.114a.027.027 0 0 0 .03-.002.027.027 0 0 0 .01-.028l-.058-.187.159-.117a.027.027 0 0 0 .009-.013.028.028 0 0 0 0-.017.027.027 0 0 0-.025-.018l-.197-.001zM15.4 8.299l.062.186.197.002c.026 0 .036.032.016.048l-.16.116.06.188a.027.027 0 0 1-.041.03l-.16-.115-.16.115a.027.027 0 0 1-.039-.014.027.027 0 0 1 0-.016l.059-.188-.16-.116a.026.026 0 0 1-.008-.013.026.026 0 0 1 0-.017.027.027 0 0 1 .025-.018l.197-.002.062-.186a.027.027 0 0 1 .025-.017.027.027 0 0 1 .025.017zm.82-5.39-.061-.188a.026.026 0 0 0-.05 0l-.063.187-.196.002a.026.026 0 0 0-.025.018.026.026 0 0 0 0 .016c.001.005.004.01.009.013l.158.117-.06.188a.027.027 0 0 0 .026.034c.005 0 .01-.001.015-.004l.16-.115.16.114a.027.027 0 0 0 .042-.013.026.026 0 0 0 0-.017l-.06-.187.158-.117a.027.027 0 0 0 .008-.028.027.027 0 0 0-.023-.019l-.197-.001zm-.061 1.369.062.187.197.001c.025 0 .036.033.015.048l-.158.117.06.187a.027.027 0 0 1-.041.03l-.16-.115-.16.115a.027.027 0 0 1-.041-.03l.06-.187-.16-.117a.027.027 0 0 1-.008-.013.026.026 0 0 1 0-.017.027.027 0 0 1 .025-.018l.196-.001.063-.187a.027.027 0 0 1 .025-.017.027.027 0 0 1 .025.017zm.06 1.912-.061-.186a.027.027 0 0 0-.025-.017.027.027 0 0 0-.025.017l-.063.186-.196.002a.027.027 0 0 0-.025.035c.001.005.005.01.009.013l.158.117-.06.187a.027.027 0 0 0 .026.034c.005 0 .01-.001.015-.004l.16-.115.16.115a.027.027 0 0 0 .042-.013.026.026 0 0 0 0-.017l-.06-.187.158-.117a.027.027 0 0 0 0-.042.027.027 0 0 0-.015-.006l-.197-.002zm-.061 1.4.062.187.197.002c.025 0 .036.032.015.047l-.158.117.06.188a.027.027 0 0 1-.041.03l-.16-.115-.16.114a.027.027 0 0 1-.041-.03l.06-.187-.16-.117a.027.027 0 0 1-.007-.013.026.026 0 0 1 .01-.028.027.027 0 0 1 .014-.006l.196-.002.063-.187a.027.027 0 0 1 .025-.017.027.027 0 0 1 .025.017zm.062 1.63-.062-.187a.027.027 0 0 0-.025-.017.027.027 0 0 0-.025.017l-.063.187-.196.002a.027.027 0 0 0-.024.018.026.026 0 0 0 0 .016c.001.005.004.01.008.013l.158.117-.06.188a.027.027 0 0 0 .026.034c.005 0 .01-.001.015-.004l.16-.115.16.114a.027.027 0 0 0 .042-.013.026.026 0 0 0 0-.017l-.06-.187.158-.117a.027.027 0 0 0 .008-.028.027.027 0 0 0-.023-.019l-.197-.002z" fill="#F5F5F5"/><path d="M11.719 7H3.28A3.281 3.281 0 0 0 0 10.281v8.438A3.28 3.28 0 0 0 3.281 22h8.438A3.281 3.281 0 0 0 15 18.719V10.28A3.281 3.281 0 0 0 11.719 7z" fill="#F6921A"/><path d="M10.166 11.726a4.572 4.572 0 0 0-.973-.475l-.054-.02.376-1.566-.918-.237-.366 1.522-.735-.18.369-1.533L6.947 9l-.377 1.57-1.85-.481-.244 1.017c.138.034.272.063.404.1.14.039.284.072.417.133.235.108.312.322.257.561-.18.77-.368 1.539-.552 2.307-.152.63-.301 1.263-.457 1.892a.334.334 0 0 1-.26.26c-.068.016-.132 0-.195-.017a24.813 24.813 0 0 1-.593-.155c-.035-.01-.048-.002-.062.032-.138.335-.278.668-.419 1.002a.9.9 0 0 0-.016.045l1.847.483-.38 1.586.917.237.376-1.564.731.197c-.125.522-.25 1.037-.374 1.558l.917.237.38-1.58c.095.018.187.04.279.054.133.02.267.036.401.052.096.011.191.026.286.027.163.002.326.002.488-.009.128-.008.257-.026.382-.053.49-.105.884-.366 1.148-.812.257-.431.404-.9.402-1.412a1.436 1.436 0 0 0-.328-.922 2.1 2.1 0 0 0-.66-.522l.057-.017c.442-.12.77-.386.96-.824.095-.22.144-.452.164-.691a1.518 1.518 0 0 0-.244-1 2.07 2.07 0 0 0-.583-.565zM8.302 17.1c-.2.066-.408.085-.616.074a5.168 5.168 0 0 1-.476-.045 8.012 8.012 0 0 1-1-.228l-.156-.042.504-2.097.407.097c.33.08.656.168.97.3.232.1.455.215.646.39a.929.929 0 0 1 .31.522c.087.467-.155.885-.592 1.028l.003.001zm.889-3.864c-.033.382-.218.7-.697.792a1.99 1.99 0 0 1-.408.034c-.13-.001-.26-.025-.39-.044-.303-.047-.596-.133-.89-.213-.003 0-.005-.002-.013-.008.15-.63.302-1.26.456-1.898.17.041.336.078.501.12.28.072.554.158.812.294.174.092.336.202.46.362.129.164.188.35.17.56h-.001z" fill="#FEFEFE"/></g><defs><clipPath id="a"><path fill="#fff" d="M0 0h24v24H0z"/></clipPath></defs></svg>