<svg width="24" height="24" fill="none" xmlns="http://www.w3.org/2000/svg"><g clip-path="url(#a)"><path fill-rule="evenodd" clip-rule="evenodd" d="M9.784 3.154h13.433c.285.334.504.725.637 1.154H9.147c.134-.429.352-.82.637-1.154zM9 5.462h15v1.154H9V5.462zM24 7.77H9v1.153h15V7.77zM9 10.077h15v1.154H9v-1.154zm15 2.308H9v1.154h15v-1.154zM9.147 14.693h14.707a3.27 3.27 0 0 1-.637 1.154H9.784a3.274 3.274 0 0 1-.637-1.154z" fill="#F5F5F5"/><path fill-rule="evenodd" clip-rule="evenodd" d="M20.719 2H12.28c-1 0-1.896.448-2.498 1.154h13.434A3.274 3.274 0 0 0 20.719 2zM24 6.615H9V7.77h15V6.615zm-.147-2.307c.096.308.147.635.147.974v.18H9v-.18c0-.34.051-.666.147-.974h14.706zM24 8.923H9v1.154h15V8.923zm0 4.616v.18c0 .34-.051.666-.147.974H9.147A3.28 3.28 0 0 1 9 13.719v-.18h15zm-.783 2.307H9.783A3.274 3.274 0 0 0 12.281 17h8.438c1 0 1.896-.448 2.498-1.154zM9 11.231h15v1.154H9V11.23v.001z" fill="#FA4051"/><path d="M17 2h-4.75C10.455 2 9 3.47 9 5.281v4.796h8V2z" fill="#1939C9"/><path fill-rule="evenodd" clip-rule="evenodd" d="m11.613 2.721.062.187.197.002c.025 0 .036.032.015.047l-.158.117.06.188a.027.027 0 0 1-.041.03l-.16-.115-.16.114a.027.027 0 0 1-.04-.014.027.027 0 0 1 0-.016l.058-.187-.158-.117a.025.025 0 0 1-.01-.013.026.026 0 0 1 .01-.03.026.026 0 0 1 .016-.004l.196-.002.063-.187a.027.027 0 0 1 .025-.017.027.027 0 0 1 .025.017zm-1.743.541a.027.027 0 0 0 .04.03l.16-.115.16.115a.027.027 0 0 0 .03-.002.027.027 0 0 0 .01-.028l-.057-.187.158-.117a.027.027 0 0 0 .009-.013.028.028 0 0 0 0-.017.027.027 0 0 0-.025-.018l-.196-.002-.034-.1a3.302 3.302 0 0 0-.241.233l.046.034-.06.187zm.226 1.016.063.187.196.001c.026 0 .036.033.016.048l-.158.117.059.187a.027.027 0 0 1-.025.034.027.027 0 0 1-.015-.004l-.16-.115-.16.115a.027.027 0 0 1-.042-.03l.06-.187-.158-.117a.027.027 0 0 1 .015-.048l.197-.001.062-.187a.027.027 0 0 1 .025-.017.027.027 0 0 1 .025.017zm.064 1.912-.063-.186a.027.027 0 0 0-.025-.017.027.027 0 0 0-.025.017l-.062.186-.197.002a.027.027 0 0 0-.015.048l.158.117-.06.187a.027.027 0 0 0 .04.03l.16-.115.16.115a.027.027 0 0 0 .042-.014.027.027 0 0 0 0-.016l-.06-.187.159-.117a.027.027 0 0 0 .009-.013.028.028 0 0 0 0-.017.027.027 0 0 0-.025-.018l-.196-.002zm-.063 1.4.063.187.196.002c.026 0 .036.032.016.047l-.158.117.059.188a.027.027 0 0 1-.025.034.027.027 0 0 1-.015-.004l-.16-.115-.16.114a.027.027 0 0 1-.042-.03l.06-.187-.158-.117a.027.027 0 0 1 .015-.047l.197-.002.062-.187a.027.027 0 0 1 .025-.017.027.027 0 0 1 .025.017zm.063 1.63-.063-.187a.027.027 0 0 0-.025-.017.027.027 0 0 0-.025.017l-.062.187-.197.002a.027.027 0 0 0-.015.047l.158.117-.06.188a.027.027 0 0 0 .04.03l.16-.115.16.114a.027.027 0 0 0 .042-.014.027.027 0 0 0 0-.016l-.06-.187.159-.117a.026.026 0 0 0 .008-.013.027.027 0 0 0-.01-.028.027.027 0 0 0-.014-.006l-.196-.002zm.694-5.762.062.186.197.002c.026 0 .036.032.016.048l-.16.116.06.188a.027.027 0 0 1-.041.03l-.16-.115-.16.115a.027.027 0 0 1-.038-.014.027.027 0 0 1-.001-.016l.059-.188-.16-.116a.026.026 0 0 1-.01-.013.026.026 0 0 1 0-.017.026.026 0 0 1 .027-.018l.197-.002.062-.186a.027.027 0 0 1 .025-.017.027.027 0 0 1 .025.017zm.062 1.913-.062-.187a.027.027 0 0 0-.025-.017.027.027 0 0 0-.025.017l-.062.187-.197.001a.027.027 0 0 0-.025.035c.001.005.005.01.009.013l.159.117-.06.187a.027.027 0 0 0 .01.03.027.027 0 0 0 .03 0l.16-.115.16.115a.027.027 0 0 0 .03-.002.027.027 0 0 0 .01-.028l-.058-.187.159-.117a.027.027 0 0 0 .009-.013.028.028 0 0 0 0-.017.027.027 0 0 0-.025-.018l-.197-.001zm-.062 1.453.062.187.197.001c.026 0 .036.033.016.048l-.16.117.06.188a.027.027 0 0 1-.025.034.027.027 0 0 1-.014-.004l-.161-.115-.16.114a.027.027 0 0 1-.04-.014.027.027 0 0 1 0-.016l.059-.187-.16-.117a.027.027 0 0 1-.008-.013.026.026 0 0 1 0-.017.027.027 0 0 1 .025-.018l.197-.001.062-.187a.027.027 0 0 1 .025-.017.027.027 0 0 1 .025.017zm.062 1.66-.063-.184a.027.027 0 0 0-.025-.017.027.027 0 0 0-.025.017l-.062.186-.197.002a.027.027 0 0 0-.025.035c.001.005.005.01.009.013l.159.116-.06.188a.027.027 0 0 0 .01.03.027.027 0 0 0 .03 0l.16-.115.16.115a.027.027 0 0 0 .03-.002.027.027 0 0 0 .01-.028l-.058-.188.159-.116a.027.027 0 0 0 .009-.013.028.028 0 0 0 0-.017.027.027 0 0 0-.025-.018l-.197-.002v-.002zm.76-4.02-.062-.187a.027.027 0 0 0-.025-.017.027.027 0 0 0-.025.017l-.063.187-.196.001a.027.027 0 0 0-.025.035c.001.005.005.01.009.013l.158.117-.06.187a.027.027 0 0 0 .026.034c.005 0 .01-.001.015-.004l.16-.115.16.115a.027.027 0 0 0 .042-.013.026.026 0 0 0 0-.017l-.06-.187.158-.117a.027.027 0 0 0 0-.042.027.027 0 0 0-.015-.006l-.197-.001zm-.062 1.54.062.186.197.002c.025 0 .036.033.015.048l-.158.117.06.187a.027.027 0 0 1-.041.03l-.16-.115-.16.115a.027.027 0 0 1-.04-.014.027.027 0 0 1 0-.016l.058-.187-.158-.117a.026.026 0 0 1-.01-.013.026.026 0 0 1 .001-.017.027.027 0 0 1 .025-.018l.195-.002.063-.186a.027.027 0 0 1 .025-.017.027.027 0 0 1 .025.017zm.062 1.773-.062-.187a.027.027 0 0 0-.025-.017.027.027 0 0 0-.025.017l-.063.187-.196.002a.027.027 0 0 0-.024.018.026.026 0 0 0 0 .016c.001.005.004.01.008.013l.158.117-.06.188a.027.027 0 0 0 .026.034c.005 0 .01-.001.015-.004l.16-.115.16.114a.027.027 0 0 0 .042-.013.026.026 0 0 0 0-.017l-.06-.187.158-.117a.027.027 0 0 0 .008-.028.027.027 0 0 0-.023-.019l-.197-.002zm-.062 1.256.062.187.197.002c.025 0 .036.032.015.047l-.158.117.06.188a.027.027 0 0 1-.041.03l-.16-.115-.16.114a.027.027 0 0 1-.04-.014.027.027 0 0 1 0-.016l.058-.187-.158-.117a.027.027 0 0 1-.008-.013.026.026 0 0 1 .01-.028.027.027 0 0 1 .014-.006l.195-.002.063-.187a.027.027 0 0 1 .025-.017.027.027 0 0 1 .025.017zm.818-5.389-.062-.184a.027.027 0 0 0-.025-.017.027.027 0 0 0-.025.017l-.063.186-.196.002a.027.027 0 0 0-.025.035c.001.005.005.01.009.013l.158.116-.06.188a.027.027 0 0 0 .042.03l.16-.115.16.115a.027.027 0 0 0 .03-.002.027.027 0 0 0 .01-.028l-.06-.188.159-.116a.026.026 0 0 0-.015-.048l-.197-.002v-.002zm-.062 1.54.062.187.197.001c.025 0 .036.033.015.048l-.158.117.06.187a.027.027 0 0 1-.041.03l-.16-.115-.16.115a.027.027 0 0 1-.041-.03l.06-.187-.16-.117a.026.026 0 0 1-.008-.013.026.026 0 0 1 0-.017.027.027 0 0 1 .025-.018l.196-.002.062-.186a.027.027 0 0 1 .025-.017c.005 0 .01.002.015.005a.03.03 0 0 1 .01.012zm.062 1.827-.062-.187a.026.026 0 0 0-.05 0l-.063.187-.196.001a.027.027 0 0 0-.025.035c.001.005.005.01.009.013l.158.117-.06.188a.027.027 0 0 0 .042.03l.16-.115.16.114a.027.027 0 0 0 .03-.002.027.027 0 0 0 .01-.028l-.06-.187.159-.117a.027.027 0 0 0 0-.042.027.027 0 0 0-.015-.006l-.197-.001zm-.062 1.288.062.186.197.002c.025 0 .036.032.015.048l-.158.116.06.188a.027.027 0 0 1-.041.03l-.16-.115-.16.115a.027.027 0 0 1-.041-.03l.06-.188-.16-.116a.026.026 0 0 1-.008-.013.026.026 0 0 1 0-.017.027.027 0 0 1 .025-.018l.196-.002.062-.186a.027.027 0 0 1 .025-.017c.005 0 .01.002.015.005a.03.03 0 0 1 .01.012zm.822-5.39-.062-.188a.027.027 0 0 0-.025-.017.027.027 0 0 0-.025.017l-.063.187-.197.002a.026.026 0 0 0-.015.047l.158.117-.06.188a.027.027 0 0 0 .01.03.027.027 0 0 0 .03 0l.16-.115.16.114a.027.027 0 0 0 .042-.014.027.027 0 0 0 0-.016l-.06-.187.16-.117a.026.026 0 0 0 0-.042.026.026 0 0 0-.016-.005l-.197-.001zm-.062 1.369.062.187.197.001c.025 0 .036.033.015.048l-.158.117.06.187a.027.027 0 0 1-.042.03l-.16-.115-.16.115a.027.027 0 0 1-.04-.014.027.027 0 0 1 0-.016l.059-.187-.158-.117a.027.027 0 0 1-.01-.03.027.027 0 0 1 .025-.018l.197-.002.062-.186a.027.027 0 0 1 .025-.017c.005 0 .01.002.015.005a.03.03 0 0 1 .01.012zm.06 1.912-.062-.186a.027.027 0 0 0-.025-.017.027.027 0 0 0-.025.017l-.063.186-.197.002a.027.027 0 0 0-.024.019.027.027 0 0 0 .009.029l.158.117-.06.187a.027.027 0 0 0 .01.03.027.027 0 0 0 .03 0l.16-.115.16.115a.027.027 0 0 0 .042-.014.027.027 0 0 0 0-.016l-.06-.187.16-.117a.027.027 0 0 0 .009-.013.028.028 0 0 0 0-.017.027.027 0 0 0-.025-.018l-.197-.002zm-.062 1.4.062.187.197.002c.025 0 .036.032.015.047l-.158.117.06.188a.027.027 0 0 1-.042.03l-.16-.115-.16.114a.027.027 0 0 1-.04-.014.027.027 0 0 1 0-.016l.059-.187-.158-.117a.027.027 0 0 1-.008-.013.028.028 0 0 1 .009-.028.027.027 0 0 1 .014-.006l.197-.002.062-.187a.027.027 0 0 1 .025-.017c.005 0 .01.002.015.005a.03.03 0 0 1 .01.012zm.062 1.63-.062-.187a.027.027 0 0 0-.025-.017.027.027 0 0 0-.025.017l-.063.187-.197.002a.027.027 0 0 0-.023.019.028.028 0 0 0 0 .015c.001.005.004.01.008.013l.158.117-.06.188a.027.027 0 0 0 .01.03.027.027 0 0 0 .03 0l.16-.115.16.114a.027.027 0 0 0 .042-.014.027.027 0 0 0 0-.016l-.06-.187.16-.117a.026.026 0 0 0 .008-.013.027.027 0 0 0-.01-.028.027.027 0 0 0-.014-.006l-.197-.002zm.694-5.762.063.186.196.002c.026 0 .036.032.016.048L14 3.81l.059.19a.027.027 0 0 1-.025.034.027.027 0 0 1-.015-.004l-.16-.115-.16.115a.027.027 0 0 1-.041-.03l.059-.188-.158-.116a.027.027 0 0 1-.01-.03.027.027 0 0 1 .025-.018l.197-.002.062-.186a.026.026 0 0 1 .05 0v-.002zm.063 1.913-.063-.187a.026.026 0 0 0-.05 0l-.062.187-.197.001a.027.027 0 0 0-.024.019.027.027 0 0 0 .009.029l.158.117-.06.187a.027.027 0 0 0 .01.03.027.027 0 0 0 .03 0l.16-.115.16.115a.027.027 0 0 0 .041-.014.027.027 0 0 0 0-.016L14 5.537l.16-.117a.027.027 0 0 0 .009-.013.028.028 0 0 0 0-.017.027.027 0 0 0-.025-.018l-.196-.001zm-.063 1.453.063.187.196.001c.026 0 .036.033.016.048L14 7.177l.059.188a.027.027 0 0 1-.025.034.027.027 0 0 1-.015-.004l-.16-.115-.16.114a.027.027 0 0 1-.041-.03l.059-.187-.158-.117a.027.027 0 0 1-.01-.03.027.027 0 0 1 .025-.018l.197-.001.062-.187a.026.026 0 0 1 .05 0zm.063 1.66-.062-.184a.026.026 0 0 0-.05 0l-.062.186-.197.002a.027.027 0 0 0-.024.019.027.027 0 0 0 .009.029l.158.116-.06.188a.027.027 0 0 0 .01.03.027.027 0 0 0 .03 0l.16-.115.16.115a.027.027 0 0 0 .041-.014.027.027 0 0 0 0-.016L14 8.652l.16-.116a.027.027 0 0 0 .009-.013.028.028 0 0 0 0-.017.027.027 0 0 0-.025-.018l-.196-.002-.001-.002zm.695-5.764.063.187.196.002c.026 0 .036.032.016.047l-.158.117.059.188a.027.027 0 0 1-.025.034.027.027 0 0 1-.015-.004l-.16-.115-.16.114a.027.027 0 0 1-.042-.03l.06-.187-.16-.117a.025.025 0 0 1-.009-.013.026.026 0 0 1 .01-.03.026.026 0 0 1 .016-.004l.197-.002.062-.187a.026.026 0 0 1 .05 0zm.063 1.744-.063-.187a.027.027 0 0 0-.025-.017.027.027 0 0 0-.025.017l-.062.187-.197.001a.027.027 0 0 0-.025.035c.001.005.005.01.009.013l.159.117-.06.187a.027.027 0 0 0 .01.03.027.027 0 0 0 .03 0l.16-.115.16.115a.027.027 0 0 0 .03-.002.027.027 0 0 0 .01-.028l-.057-.187.158-.117a.027.027 0 0 0 .009-.013.028.028 0 0 0 0-.017.027.027 0 0 0-.025-.018l-.196-.001zm-.063 1.54.063.186.196.002c.026 0 .036.033.016.048l-.158.117.059.187a.027.027 0 0 1-.025.034.027.027 0 0 1-.015-.004l-.16-.115-.16.115a.027.027 0 0 1-.042-.03l.06-.187-.16-.117a.026.026 0 0 1-.008-.013.026.026 0 0 1 0-.017.027.027 0 0 1 .025-.018l.197-.002.062-.186a.027.027 0 0 1 .025-.017.027.027 0 0 1 .025.017zm.063 1.773-.063-.187a.027.027 0 0 0-.025-.017.027.027 0 0 0-.025.017l-.062.187-.197.002a.027.027 0 0 0-.024.018.026.026 0 0 0 0 .016c.001.005.004.01.008.013l.159.117-.06.188a.027.027 0 0 0 .01.03.027.027 0 0 0 .03 0l.16-.115.16.114a.027.027 0 0 0 .03-.002.027.027 0 0 0 .01-.028l-.057-.187.158-.117a.026.026 0 0 0 .008-.013.027.027 0 0 0-.01-.028.027.027 0 0 0-.014-.006l-.196-.002zm-.063 1.256.063.187.196.002c.026 0 .036.032.016.047l-.158.117.059.188a.027.027 0 0 1-.025.034.027.027 0 0 1-.015-.004l-.16-.115-.16.114a.027.027 0 0 1-.042-.03l.06-.187-.16-.117a.027.027 0 0 1-.007-.013.026.026 0 0 1 .01-.028.027.027 0 0 1 .014-.006l.197-.002.062-.187a.027.027 0 0 1 .025-.017.027.027 0 0 1 .025.017zm.818-5.389-.06-.184a.027.027 0 0 0-.025-.017.027.027 0 0 0-.025.017l-.062.186-.197.002a.027.027 0 0 0-.025.035c.001.005.004.01.009.013l.159.116-.06.188a.027.027 0 0 0 .025.034c.005 0 .01-.001.015-.004l.16-.115.16.115a.027.027 0 0 0 .03-.002.027.027 0 0 0 .01-.028l-.058-.188.159-.116a.026.026 0 0 0-.016-.048l-.197-.002-.002-.002zm-.06 1.541.062.187.197.001c.026 0 .036.033.016.048l-.16.117.06.187a.027.027 0 0 1-.041.03l-.16-.115-.16.115a.027.027 0 0 1-.039-.014.027.027 0 0 1 0-.016l.059-.187-.16-.117a.026.026 0 0 1-.008-.013.026.026 0 0 1 0-.017.027.027 0 0 1 .025-.018l.197-.002.062-.186a.027.027 0 0 1 .025-.017.027.027 0 0 1 .025.017zm.062 1.827-.062-.187a.027.027 0 0 0-.025-.017.027.027 0 0 0-.025.017l-.062.187-.197.001a.027.027 0 0 0-.025.035c.001.005.004.01.009.013l.159.117-.06.188a.027.027 0 0 0 .025.034c.005 0 .01-.001.015-.004l.16-.115.16.114a.027.027 0 0 0 .03-.002.027.027 0 0 0 .01-.028l-.058-.187.159-.117a.027.027 0 0 0 .009-.013.028.028 0 0 0 0-.017.027.027 0 0 0-.025-.018l-.197-.001zM15.4 8.299l.062.186.197.002c.026 0 .036.032.016.048l-.16.116.06.188a.027.027 0 0 1-.041.03l-.16-.115-.16.115a.027.027 0 0 1-.039-.014.027.027 0 0 1 0-.016l.059-.188-.16-.116a.026.026 0 0 1-.008-.013.026.026 0 0 1 0-.017.027.027 0 0 1 .025-.018l.197-.002.062-.186a.027.027 0 0 1 .025-.017.027.027 0 0 1 .025.017zm.82-5.39-.061-.188a.026.026 0 0 0-.05 0l-.063.187-.196.002a.026.026 0 0 0-.025.018.026.026 0 0 0 0 .016c.001.005.004.01.009.013l.158.117-.06.188a.027.027 0 0 0 .026.034c.005 0 .01-.001.015-.004l.16-.115.16.114a.027.027 0 0 0 .042-.013.026.026 0 0 0 0-.017l-.06-.187.158-.117a.027.027 0 0 0 .008-.028.027.027 0 0 0-.023-.019l-.197-.001zm-.061 1.369.062.187.197.001c.025 0 .036.033.015.048l-.158.117.06.187a.027.027 0 0 1-.041.03l-.16-.115-.16.115a.027.027 0 0 1-.041-.03l.06-.187-.16-.117a.027.027 0 0 1-.008-.013.026.026 0 0 1 0-.017.027.027 0 0 1 .025-.018l.196-.001.063-.187a.027.027 0 0 1 .025-.017.027.027 0 0 1 .025.017zm.06 1.912-.061-.186a.027.027 0 0 0-.025-.017.027.027 0 0 0-.025.017l-.063.186-.196.002a.027.027 0 0 0-.025.035c.001.005.005.01.009.013l.158.117-.06.187a.027.027 0 0 0 .026.034c.005 0 .01-.001.015-.004l.16-.115.16.115a.027.027 0 0 0 .042-.013.026.026 0 0 0 0-.017l-.06-.187.158-.117a.027.027 0 0 0 0-.042.027.027 0 0 0-.015-.006l-.197-.002zm-.061 1.4.062.187.197.002c.025 0 .036.032.015.047l-.158.117.06.188a.027.027 0 0 1-.041.03l-.16-.115-.16.114a.027.027 0 0 1-.041-.03l.06-.187-.16-.117a.027.027 0 0 1-.007-.013.026.026 0 0 1 .01-.028.027.027 0 0 1 .014-.006l.196-.002.063-.187a.027.027 0 0 1 .025-.017.027.027 0 0 1 .025.017zm.062 1.63-.062-.187a.027.027 0 0 0-.025-.017.027.027 0 0 0-.025.017l-.063.187-.196.002a.027.027 0 0 0-.024.018.026.026 0 0 0 0 .016c.001.005.004.01.008.013l.158.117-.06.188a.027.027 0 0 0 .026.034c.005 0 .01-.001.015-.004l.16-.115.16.114a.027.027 0 0 0 .042-.013.026.026 0 0 0 0-.017l-.06-.187.158-.117a.027.027 0 0 0 .008-.028.027.027 0 0 0-.023-.019l-.197-.002z" fill="#F5F5F5"/><path d="M11.719 7H3.28A3.281 3.281 0 0 0 0 10.281v8.438A3.28 3.28 0 0 0 3.281 22h8.438A3.281 3.281 0 0 0 15 18.719V10.28A3.281 3.281 0 0 0 11.719 7z" fill="#FC1E1F"/><path d="M3.272 15.89c0-.822.448-1.8.672-2.186-.342-.977-.897-3.02-.384-3.382.512-.361 1.75.839 2.305 1.484.226-.109.868-.326 1.626-.326.757 0 1.47.217 1.731.326 1.492-1.518 2.116-1.622 2.241-1.484.528.606-.022 2.507-.363 3.382.22.32.66 1.207.66 2.187 0 1.225-1.937 2.982-4.277 2.982s-4.21-1.954-4.21-2.982z" fill="#EB9A2E"/><path fill-rule="evenodd" clip-rule="evenodd" d="M4.078 13.194c-.2-.616-.54-1.931-.3-2.27.24-.34 1.202.51 1.653.978-.26.188-.895.71-1.353 1.292zm6.92 0c.2-.616.54-1.931.3-2.27-.24-.34-1.202.51-1.654.978.26.188.895.71 1.354 1.292z" fill="#E58014"/><path d="M5.976 14.043c-.224.037-.453.05-.68.04a.182.182 0 0 1-.113-.042.152.152 0 0 1-.054-.1c-.021-.252.084-.588.398-.575.376.017.54.27.598.479.026.093-.046.18-.15.198zm3.09 0c.268.044.515.048.68.04a.182.182 0 0 0 .113-.042.152.152 0 0 0 .054-.1c.021-.252-.084-.588-.398-.575-.376.017-.54.27-.599.479-.025.093.047.18.15.198z" fill="#FEFFF7"/><path d="M7.254 18.822c-3.22-.446-3.996-2.143-3.981-2.936 1.664-.112 2.234.473 2.311.78.044-.467.477-1.402 1.853-1.402 1.377 0 1.81.935 1.854 1.402.851-.948 2.037-.849 2.523-.68-.787 2.38-3.368 2.883-4.56 2.836z" fill="#EAEAE8"/><path fill-rule="evenodd" clip-rule="evenodd" d="M7.938 15.714h-.893a.237.237 0 0 0-.159.061.196.196 0 0 0-.065.146v.4c.013.13.145.379.56.42v.399a.232.232 0 0 0-.064.083h-.534v.005a.983.983 0 0 0-.185-.123.06.06 0 0 0-.062.006.051.051 0 0 0-.014.015.048.048 0 0 0-.005.04.053.053 0 0 0 .027.03c.036.018.091.05.139.087a.396.396 0 0 1 .059.056.1.1 0 0 1 .024.042.05.05 0 0 0 .014.026v.223c0 .028.025.052.056.052a.06.06 0 0 0 .04-.016.049.049 0 0 0 .016-.036v-.304h1.2v.304c0 .028.026.052.057.052a.061.061 0 0 0 .04-.016.048.048 0 0 0 .016-.036v-.248l.001-.01.001-.002a.442.442 0 0 1 .076-.07c.052-.037.115-.075.157-.098a.053.053 0 0 0 .026-.032.048.048 0 0 0-.006-.039.053.053 0 0 0-.014-.015.058.058 0 0 0-.042-.01.057.057 0 0 0-.02.007c-.06.032-.117.068-.17.107l-.005.003h-.56a.199.199 0 0 0-.045-.053v-.426c.43-.035.553-.29.558-.422v-.401a.196.196 0 0 0-.065-.146.237.237 0 0 0-.159-.06zm-.82 1.76.118.132.09-.078.164.145.17-.145.08.078.109-.132h-.732z" fill="#000001"/><path d="M5.055 14.384c-.165-.058-.167.08-.147.156v.115c0 .104.035.206.1.292a.564.564 0 0 0 .263.19c.5.17 1.343.407 1.251.16-.122-.327-1.261-.839-1.467-.913zm4.887 0c.164-.058.166.08.147.156v.115a.486.486 0 0 1-.1.292.564.564 0 0 1-.263.19c-.5.17-1.344.407-1.251.16.121-.327 1.26-.839 1.467-.913z" fill="#000"/><path fill-rule="evenodd" clip-rule="evenodd" d="M5.862 11.569c-.485-.546-1.085-1.157-1.826-1.425-1.73-.625-.504 2.976-.323 3.495-.237.419-.687 1.4-.687 2.228 0 1.793 2.85 3.11 4.49 3.11 1.713 0 4.484-1.274 4.484-3.11 0-.972-.406-1.83-.645-2.196.368-.953 1.047-2.688.313-3.544-.495-.538-2.248 1.191-2.46 1.404-.322-.119-.99-.262-1.718-.262-.714 0-1.335.178-1.628.3zm-2.306-1.235a.321.321 0 0 0-.11.161c-.029.081-.047.185-.054.31-.015.25.016.563.076.902.118.677.345 1.433.517 1.922l.016.042-.024.04c-.224.384-.67 1.352-.67 2.156 0 .233.109.531.32.853.208.32.513.656.892.96.758.61 1.839 1.018 2.997 1.018 1.161 0 2.192-.36 2.966-.945.778-.588 1.242-1.314 1.242-1.886 0-.964-.438-1.839-.653-2.15l-.03-.043.019-.048c.172-.437.396-1.13.51-1.788.058-.329.088-.645.07-.914-.017-.27-.08-.477-.19-.605-.003-.002-.025-.015-.095-.005a1.194 1.194 0 0 0-.382.149c-.351.192-.881.593-1.638 1.355l-.054.055-.074-.03a5.05 5.05 0 0 0-1.717-.32c-.576 0-1.173.111-1.686.356a8.03 8.03 0 0 0-1.23-1.18c-.202-.152-.727-.568-1.018-.365z" fill="#000"/></g><defs><clipPath id="a"><path fill="#fff" d="M0 0h24v24H0z"/></clipPath></defs></svg>