<svg width="24" height="24" fill="none" xmlns="http://www.w3.org/2000/svg"><g clip-path="url(#a)"><path fill-rule="evenodd" clip-rule="evenodd" d="M9.784 3.154h13.433c.285.334.504.725.637 1.154H9.147c.134-.429.352-.82.637-1.154zM9 5.462h15v1.154H9V5.462zM24 7.77H9v1.153h15V7.77zM9 10.077h15v1.154H9v-1.154zm15 2.308H9v1.154h15v-1.154zM9.147 14.693h14.707a3.27 3.27 0 0 1-.637 1.154H9.784a3.274 3.274 0 0 1-.637-1.154z" fill="#F5F5F5"/><path fill-rule="evenodd" clip-rule="evenodd" d="M20.719 2H12.28c-1 0-1.896.448-2.498 1.154h13.434A3.274 3.274 0 0 0 20.719 2zM24 6.615H9V7.77h15V6.615zm-.147-2.307c.096.308.147.635.147.974v.18H9v-.18c0-.34.051-.666.147-.974h14.706zM24 8.923H9v1.154h15V8.923zm0 4.616v.18c0 .34-.051.666-.147.974H9.147A3.28 3.28 0 0 1 9 13.719v-.18h15zm-.783 2.307H9.783A3.274 3.274 0 0 0 12.281 17h8.438c1 0 1.896-.448 2.498-1.154zM9 11.231h15v1.154H9V11.23v.001z" fill="#FA4051"/><path d="M17 2h-4.75C10.455 2 9 3.47 9 5.281v4.796h8V2z" fill="#1939C9"/><path fill-rule="evenodd" clip-rule="evenodd" d="m11.613 2.721.062.187.197.002c.025 0 .036.032.015.047l-.158.117.06.188a.027.027 0 0 1-.041.03l-.16-.115-.16.114a.027.027 0 0 1-.04-.014.027.027 0 0 1 0-.016l.058-.187-.158-.117a.025.025 0 0 1-.01-.013.026.026 0 0 1 .01-.03.026.026 0 0 1 .016-.004l.196-.002.063-.187a.027.027 0 0 1 .025-.017.027.027 0 0 1 .025.017zm-1.743.541a.027.027 0 0 0 .04.03l.16-.115.16.115a.027.027 0 0 0 .03-.002.027.027 0 0 0 .01-.028l-.057-.187.158-.117a.027.027 0 0 0 .009-.013.028.028 0 0 0 0-.017.027.027 0 0 0-.025-.018l-.196-.002-.034-.1a3.302 3.302 0 0 0-.241.233l.046.034-.06.187zm.226 1.016.063.187.196.001c.026 0 .036.033.016.048l-.158.117.059.187a.027.027 0 0 1-.025.034.027.027 0 0 1-.015-.004l-.16-.115-.16.115a.027.027 0 0 1-.042-.03l.06-.187-.158-.117a.027.027 0 0 1 .015-.048l.197-.001.062-.187a.027.027 0 0 1 .025-.017.027.027 0 0 1 .025.017zm.064 1.912-.063-.186a.027.027 0 0 0-.025-.017.027.027 0 0 0-.025.017l-.062.186-.197.002a.027.027 0 0 0-.015.048l.158.117-.06.187a.027.027 0 0 0 .04.03l.16-.115.16.115a.027.027 0 0 0 .042-.014.027.027 0 0 0 0-.016l-.06-.187.159-.117a.027.027 0 0 0 .009-.013.028.028 0 0 0 0-.017.027.027 0 0 0-.025-.018l-.196-.002zm-.063 1.4.063.187.196.002c.026 0 .036.032.016.047l-.158.117.059.188a.027.027 0 0 1-.025.034.027.027 0 0 1-.015-.004l-.16-.115-.16.114a.027.027 0 0 1-.042-.03l.06-.187-.158-.117a.027.027 0 0 1 .015-.047l.197-.002.062-.187a.027.027 0 0 1 .025-.017.027.027 0 0 1 .025.017zm.063 1.63-.063-.187a.027.027 0 0 0-.025-.017.027.027 0 0 0-.025.017l-.062.187-.197.002a.027.027 0 0 0-.015.047l.158.117-.06.188a.027.027 0 0 0 .04.03l.16-.115.16.114a.027.027 0 0 0 .042-.014.027.027 0 0 0 0-.016l-.06-.187.159-.117a.026.026 0 0 0 .008-.013.027.027 0 0 0-.01-.028.027.027 0 0 0-.014-.006l-.196-.002zm.694-5.762.062.186.197.002c.026 0 .036.032.016.048l-.16.116.06.188a.027.027 0 0 1-.041.03l-.16-.115-.16.115a.027.027 0 0 1-.038-.014.027.027 0 0 1-.001-.016l.059-.188-.16-.116a.026.026 0 0 1-.01-.013.026.026 0 0 1 0-.017.026.026 0 0 1 .027-.018l.197-.002.062-.186a.027.027 0 0 1 .025-.017.027.027 0 0 1 .025.017zm.062 1.913-.062-.187a.027.027 0 0 0-.025-.017.027.027 0 0 0-.025.017l-.062.187-.197.001a.027.027 0 0 0-.025.035c.001.005.005.01.009.013l.159.117-.06.187a.027.027 0 0 0 .01.03.027.027 0 0 0 .03 0l.16-.115.16.115a.027.027 0 0 0 .03-.002.027.027 0 0 0 .01-.028l-.058-.187.159-.117a.027.027 0 0 0 .009-.013.028.028 0 0 0 0-.017.027.027 0 0 0-.025-.018l-.197-.001zm-.062 1.453.062.187.197.001c.026 0 .036.033.016.048l-.16.117.06.188a.027.027 0 0 1-.025.034.027.027 0 0 1-.014-.004l-.161-.115-.16.114a.027.027 0 0 1-.04-.014.027.027 0 0 1 0-.016l.059-.187-.16-.117a.027.027 0 0 1-.008-.013.026.026 0 0 1 0-.017.027.027 0 0 1 .025-.018l.197-.001.062-.187a.027.027 0 0 1 .025-.017.027.027 0 0 1 .025.017zm.062 1.66-.063-.184a.027.027 0 0 0-.025-.017.027.027 0 0 0-.025.017l-.062.186-.197.002a.027.027 0 0 0-.025.035c.001.005.005.01.009.013l.159.116-.06.188a.027.027 0 0 0 .01.03.027.027 0 0 0 .03 0l.16-.115.16.115a.027.027 0 0 0 .03-.002.027.027 0 0 0 .01-.028l-.058-.188.159-.116a.027.027 0 0 0 .009-.013.028.028 0 0 0 0-.017.027.027 0 0 0-.025-.018l-.197-.002v-.002zm.76-4.02-.062-.187a.027.027 0 0 0-.025-.017.027.027 0 0 0-.025.017l-.063.187-.196.001a.027.027 0 0 0-.025.035c.001.005.005.01.009.013l.158.117-.06.187a.027.027 0 0 0 .026.034c.005 0 .01-.001.015-.004l.16-.115.16.115a.027.027 0 0 0 .042-.013.026.026 0 0 0 0-.017l-.06-.187.158-.117a.027.027 0 0 0 0-.042.027.027 0 0 0-.015-.006l-.197-.001zm-.062 1.54.062.186.197.002c.025 0 .036.033.015.048l-.158.117.06.187a.027.027 0 0 1-.041.03l-.16-.115-.16.115a.027.027 0 0 1-.04-.014.027.027 0 0 1 0-.016l.058-.187-.158-.117a.026.026 0 0 1-.01-.013.026.026 0 0 1 .001-.017.027.027 0 0 1 .025-.018l.195-.002.063-.186a.027.027 0 0 1 .025-.017.027.027 0 0 1 .025.017zm.062 1.773-.062-.187a.027.027 0 0 0-.025-.017.027.027 0 0 0-.025.017l-.063.187-.196.002a.027.027 0 0 0-.024.018.026.026 0 0 0 0 .016c.001.005.004.01.008.013l.158.117-.06.188a.027.027 0 0 0 .026.034c.005 0 .01-.001.015-.004l.16-.115.16.114a.027.027 0 0 0 .042-.013.026.026 0 0 0 0-.017l-.06-.187.158-.117a.027.027 0 0 0 .008-.028.027.027 0 0 0-.023-.019l-.197-.002zm-.062 1.256.062.187.197.002c.025 0 .036.032.015.047l-.158.117.06.188a.027.027 0 0 1-.041.03l-.16-.115-.16.114a.027.027 0 0 1-.04-.014.027.027 0 0 1 0-.016l.058-.187-.158-.117a.027.027 0 0 1-.008-.013.026.026 0 0 1 .01-.028.027.027 0 0 1 .014-.006l.195-.002.063-.187a.027.027 0 0 1 .025-.017.027.027 0 0 1 .025.017zm.818-5.389-.062-.184a.027.027 0 0 0-.025-.017.027.027 0 0 0-.025.017l-.063.186-.196.002a.027.027 0 0 0-.025.035c.001.005.005.01.009.013l.158.116-.06.188a.027.027 0 0 0 .042.03l.16-.115.16.115a.027.027 0 0 0 .03-.002.027.027 0 0 0 .01-.028l-.06-.188.159-.116a.026.026 0 0 0-.015-.048l-.197-.002v-.002zm-.062 1.54.062.187.197.001c.025 0 .036.033.015.048l-.158.117.06.187a.027.027 0 0 1-.041.03l-.16-.115-.16.115a.027.027 0 0 1-.041-.03l.06-.187-.16-.117a.026.026 0 0 1-.008-.013.026.026 0 0 1 0-.017.027.027 0 0 1 .025-.018l.196-.002.062-.186a.027.027 0 0 1 .025-.017c.005 0 .01.002.015.005a.03.03 0 0 1 .01.012zm.062 1.827-.062-.187a.026.026 0 0 0-.05 0l-.063.187-.196.001a.027.027 0 0 0-.025.035c.001.005.005.01.009.013l.158.117-.06.188a.027.027 0 0 0 .042.03l.16-.115.16.114a.027.027 0 0 0 .03-.002.027.027 0 0 0 .01-.028l-.06-.187.159-.117a.027.027 0 0 0 0-.042.027.027 0 0 0-.015-.006l-.197-.001zm-.062 1.288.062.186.197.002c.025 0 .036.032.015.048l-.158.116.06.188a.027.027 0 0 1-.041.03l-.16-.115-.16.115a.027.027 0 0 1-.041-.03l.06-.188-.16-.116a.026.026 0 0 1-.008-.013.026.026 0 0 1 0-.017.027.027 0 0 1 .025-.018l.196-.002.062-.186a.027.027 0 0 1 .025-.017c.005 0 .01.002.015.005a.03.03 0 0 1 .01.012zm.822-5.39-.062-.188a.027.027 0 0 0-.025-.017.027.027 0 0 0-.025.017l-.063.187-.197.002a.026.026 0 0 0-.015.047l.158.117-.06.188a.027.027 0 0 0 .01.03.027.027 0 0 0 .03 0l.16-.115.16.114a.027.027 0 0 0 .042-.014.027.027 0 0 0 0-.016l-.06-.187.16-.117a.026.026 0 0 0 0-.042.026.026 0 0 0-.016-.005l-.197-.001zm-.062 1.369.062.187.197.001c.025 0 .036.033.015.048l-.158.117.06.187a.027.027 0 0 1-.042.03l-.16-.115-.16.115a.027.027 0 0 1-.04-.014.027.027 0 0 1 0-.016l.059-.187-.158-.117a.027.027 0 0 1-.01-.03.027.027 0 0 1 .025-.018l.197-.002.062-.186a.027.027 0 0 1 .025-.017c.005 0 .01.002.015.005a.03.03 0 0 1 .01.012zm.06 1.912-.062-.186a.027.027 0 0 0-.025-.017.027.027 0 0 0-.025.017l-.063.186-.197.002a.027.027 0 0 0-.024.019.027.027 0 0 0 .009.029l.158.117-.06.187a.027.027 0 0 0 .01.03.027.027 0 0 0 .03 0l.16-.115.16.115a.027.027 0 0 0 .042-.014.027.027 0 0 0 0-.016l-.06-.187.16-.117a.027.027 0 0 0 .009-.013.028.028 0 0 0 0-.017.027.027 0 0 0-.025-.018l-.197-.002zm-.062 1.4.062.187.197.002c.025 0 .036.032.015.047l-.158.117.06.188a.027.027 0 0 1-.042.03l-.16-.115-.16.114a.027.027 0 0 1-.04-.014.027.027 0 0 1 0-.016l.059-.187-.158-.117a.027.027 0 0 1-.008-.013.028.028 0 0 1 .009-.028.027.027 0 0 1 .014-.006l.197-.002.062-.187a.027.027 0 0 1 .025-.017c.005 0 .01.002.015.005a.03.03 0 0 1 .01.012zm.062 1.63-.062-.187a.027.027 0 0 0-.025-.017.027.027 0 0 0-.025.017l-.063.187-.197.002a.027.027 0 0 0-.023.019.028.028 0 0 0 0 .015c.001.005.004.01.008.013l.158.117-.06.188a.027.027 0 0 0 .01.03.027.027 0 0 0 .03 0l.16-.115.16.114a.027.027 0 0 0 .042-.014.027.027 0 0 0 0-.016l-.06-.187.16-.117a.026.026 0 0 0 .008-.013.027.027 0 0 0-.01-.028.027.027 0 0 0-.014-.006l-.197-.002zm.694-5.762.063.186.196.002c.026 0 .036.032.016.048L14 3.81l.059.19a.027.027 0 0 1-.025.034.027.027 0 0 1-.015-.004l-.16-.115-.16.115a.027.027 0 0 1-.041-.03l.059-.188-.158-.116a.027.027 0 0 1-.01-.03.027.027 0 0 1 .025-.018l.197-.002.062-.186a.026.026 0 0 1 .05 0v-.002zm.063 1.913-.063-.187a.026.026 0 0 0-.05 0l-.062.187-.197.001a.027.027 0 0 0-.024.019.027.027 0 0 0 .009.029l.158.117-.06.187a.027.027 0 0 0 .01.03.027.027 0 0 0 .03 0l.16-.115.16.115a.027.027 0 0 0 .041-.014.027.027 0 0 0 0-.016L14 5.537l.16-.117a.027.027 0 0 0 .009-.013.028.028 0 0 0 0-.017.027.027 0 0 0-.025-.018l-.196-.001zm-.063 1.453.063.187.196.001c.026 0 .036.033.016.048L14 7.177l.059.188a.027.027 0 0 1-.025.034.027.027 0 0 1-.015-.004l-.16-.115-.16.114a.027.027 0 0 1-.041-.03l.059-.187-.158-.117a.027.027 0 0 1-.01-.03.027.027 0 0 1 .025-.018l.197-.001.062-.187a.026.026 0 0 1 .05 0zm.063 1.66-.062-.184a.026.026 0 0 0-.05 0l-.062.186-.197.002a.027.027 0 0 0-.024.019.027.027 0 0 0 .009.029l.158.116-.06.188a.027.027 0 0 0 .01.03.027.027 0 0 0 .03 0l.16-.115.16.115a.027.027 0 0 0 .041-.014.027.027 0 0 0 0-.016L14 8.652l.16-.116a.027.027 0 0 0 .009-.013.028.028 0 0 0 0-.017.027.027 0 0 0-.025-.018l-.196-.002-.001-.002zm.695-5.764.063.187.196.002c.026 0 .036.032.016.047l-.158.117.059.188a.027.027 0 0 1-.025.034.027.027 0 0 1-.015-.004l-.16-.115-.16.114a.027.027 0 0 1-.042-.03l.06-.187-.16-.117a.025.025 0 0 1-.009-.013.026.026 0 0 1 .01-.03.026.026 0 0 1 .016-.004l.197-.002.062-.187a.026.026 0 0 1 .05 0zm.063 1.744-.063-.187a.027.027 0 0 0-.025-.017.027.027 0 0 0-.025.017l-.062.187-.197.001a.027.027 0 0 0-.025.035c.001.005.005.01.009.013l.159.117-.06.187a.027.027 0 0 0 .01.03.027.027 0 0 0 .03 0l.16-.115.16.115a.027.027 0 0 0 .03-.002.027.027 0 0 0 .01-.028l-.057-.187.158-.117a.027.027 0 0 0 .009-.013.028.028 0 0 0 0-.017.027.027 0 0 0-.025-.018l-.196-.001zm-.063 1.54.063.186.196.002c.026 0 .036.033.016.048l-.158.117.059.187a.027.027 0 0 1-.025.034.027.027 0 0 1-.015-.004l-.16-.115-.16.115a.027.027 0 0 1-.042-.03l.06-.187-.16-.117a.026.026 0 0 1-.008-.013.026.026 0 0 1 0-.017.027.027 0 0 1 .025-.018l.197-.002.062-.186a.027.027 0 0 1 .025-.017.027.027 0 0 1 .025.017zm.063 1.773-.063-.187a.027.027 0 0 0-.025-.017.027.027 0 0 0-.025.017l-.062.187-.197.002a.027.027 0 0 0-.024.018.026.026 0 0 0 0 .016c.001.005.004.01.008.013l.159.117-.06.188a.027.027 0 0 0 .01.03.027.027 0 0 0 .03 0l.16-.115.16.114a.027.027 0 0 0 .03-.002.027.027 0 0 0 .01-.028l-.057-.187.158-.117a.026.026 0 0 0 .008-.013.027.027 0 0 0-.01-.028.027.027 0 0 0-.014-.006l-.196-.002zm-.063 1.256.063.187.196.002c.026 0 .036.032.016.047l-.158.117.059.188a.027.027 0 0 1-.025.034.027.027 0 0 1-.015-.004l-.16-.115-.16.114a.027.027 0 0 1-.042-.03l.06-.187-.16-.117a.027.027 0 0 1-.007-.013.026.026 0 0 1 .01-.028.027.027 0 0 1 .014-.006l.197-.002.062-.187a.027.027 0 0 1 .025-.017.027.027 0 0 1 .025.017zm.818-5.389-.06-.184a.027.027 0 0 0-.025-.017.027.027 0 0 0-.025.017l-.062.186-.197.002a.027.027 0 0 0-.025.035c.001.005.004.01.009.013l.159.116-.06.188a.027.027 0 0 0 .025.034c.005 0 .01-.001.015-.004l.16-.115.16.115a.027.027 0 0 0 .03-.002.027.027 0 0 0 .01-.028l-.058-.188.159-.116a.026.026 0 0 0-.016-.048l-.197-.002-.002-.002zm-.06 1.541.062.187.197.001c.026 0 .036.033.016.048l-.16.117.06.187a.027.027 0 0 1-.041.03l-.16-.115-.16.115a.027.027 0 0 1-.039-.014.027.027 0 0 1 0-.016l.059-.187-.16-.117a.026.026 0 0 1-.008-.013.026.026 0 0 1 0-.017.027.027 0 0 1 .025-.018l.197-.002.062-.186a.027.027 0 0 1 .025-.017.027.027 0 0 1 .025.017zm.062 1.827-.062-.187a.027.027 0 0 0-.025-.017.027.027 0 0 0-.025.017l-.062.187-.197.001a.027.027 0 0 0-.025.035c.001.005.004.01.009.013l.159.117-.06.188a.027.027 0 0 0 .025.034c.005 0 .01-.001.015-.004l.16-.115.16.114a.027.027 0 0 0 .03-.002.027.027 0 0 0 .01-.028l-.058-.187.159-.117a.027.027 0 0 0 .009-.013.028.028 0 0 0 0-.017.027.027 0 0 0-.025-.018l-.197-.001zM15.4 8.299l.062.186.197.002c.026 0 .036.032.016.048l-.16.116.06.188a.027.027 0 0 1-.041.03l-.16-.115-.16.115a.027.027 0 0 1-.039-.014.027.027 0 0 1 0-.016l.059-.188-.16-.116a.026.026 0 0 1-.008-.013.026.026 0 0 1 0-.017.027.027 0 0 1 .025-.018l.197-.002.062-.186a.027.027 0 0 1 .025-.017.027.027 0 0 1 .025.017zm.82-5.39-.061-.188a.026.026 0 0 0-.05 0l-.063.187-.196.002a.026.026 0 0 0-.025.018.026.026 0 0 0 0 .016c.001.005.004.01.009.013l.158.117-.06.188a.027.027 0 0 0 .026.034c.005 0 .01-.001.015-.004l.16-.115.16.114a.027.027 0 0 0 .042-.013.026.026 0 0 0 0-.017l-.06-.187.158-.117a.027.027 0 0 0 .008-.028.027.027 0 0 0-.023-.019l-.197-.001zm-.061 1.369.062.187.197.001c.025 0 .036.033.015.048l-.158.117.06.187a.027.027 0 0 1-.041.03l-.16-.115-.16.115a.027.027 0 0 1-.041-.03l.06-.187-.16-.117a.027.027 0 0 1-.008-.013.026.026 0 0 1 0-.017.027.027 0 0 1 .025-.018l.196-.001.063-.187a.027.027 0 0 1 .025-.017.027.027 0 0 1 .025.017zm.06 1.912-.061-.186a.027.027 0 0 0-.025-.017.027.027 0 0 0-.025.017l-.063.186-.196.002a.027.027 0 0 0-.025.035c.001.005.005.01.009.013l.158.117-.06.187a.027.027 0 0 0 .026.034c.005 0 .01-.001.015-.004l.16-.115.16.115a.027.027 0 0 0 .042-.013.026.026 0 0 0 0-.017l-.06-.187.158-.117a.027.027 0 0 0 0-.042.027.027 0 0 0-.015-.006l-.197-.002zm-.061 1.4.062.187.197.002c.025 0 .036.032.015.047l-.158.117.06.188a.027.027 0 0 1-.041.03l-.16-.115-.16.114a.027.027 0 0 1-.041-.03l.06-.187-.16-.117a.027.027 0 0 1-.007-.013.026.026 0 0 1 .01-.028.027.027 0 0 1 .014-.006l.196-.002.063-.187a.027.027 0 0 1 .025-.017.027.027 0 0 1 .025.017zm.062 1.63-.062-.187a.027.027 0 0 0-.025-.017.027.027 0 0 0-.025.017l-.063.187-.196.002a.027.027 0 0 0-.024.018.026.026 0 0 0 0 .016c.001.005.004.01.008.013l.158.117-.06.188a.027.027 0 0 0 .026.034c.005 0 .01-.001.015-.004l.16-.115.16.114a.027.027 0 0 0 .042-.013.026.026 0 0 0 0-.017l-.06-.187.158-.117a.027.027 0 0 0 .008-.028.027.027 0 0 0-.023-.019l-.197-.002z" fill="#F5F5F5"/><path d="M11.719 7H3.28A3.281 3.281 0 0 0 0 10.281v8.438A3.28 3.28 0 0 0 3.281 22h8.438A3.281 3.281 0 0 0 15 18.719V10.28A3.281 3.281 0 0 0 11.719 7z" fill="#23292F"/><path d="m3 19 2.39-2.795.35-.405c1.015-1.195 2.556-1.21 3.582-.024.903 1.044 1.796 2.098 2.694 3.147.014.015.032.025.038.066-.027.002-.054.008-.08.008-.397 0-.794.004-1.19 0a.18.18 0 0 1-.127-.06c-.684-.794-1.362-1.596-2.048-2.387-.587-.676-1.557-.668-2.135.008-.679.795-1.357 1.59-2.036 2.383-.024.029-.063.056-.096.056C3.904 19.001 3.467 19 3 19zM12.018 10c-.362.447-.72.902-1.092 1.345-.53.634-1.068 1.26-1.605 1.887-.77.903-1.994 1.108-2.947.504-.271-.172-.499-.404-.714-.657-.842-.987-1.687-1.973-2.53-2.96a6.2 6.2 0 0 0-.094-.105l.099-.01c.4 0 .801-.004 1.202 0 .045 0 .104.03.136.068.675.785 1.343 1.58 2.023 2.362.588.674 1.551.666 2.137-.014.672-.779 1.333-1.568 2-2.351.027-.032.07-.065.104-.066.434-.004.867-.003 1.281-.003z" fill="#fff"/></g><defs><clipPath id="a"><path fill="#fff" d="M0 0h24v24H0z"/></clipPath></defs></svg>