<svg width="24" height="24" viewBox="0 0 24 24" fill="none" xmlns="http://www.w3.org/2000/svg">
<path d="M20.719 2H12.28C11.41 2.00027 10.5757 2.34606 9.96063 2.96134C9.34554 3.57661 9 4.411 9 5.281V13.719C9 14.5892 9.34568 15.4237 9.96098 16.039C10.5763 16.6543 11.4108 17 12.281 17H20.719C21.5892 17 22.4237 16.6543 23.039 16.039C23.6543 15.4237 24 14.5892 24 13.719V5.28C23.9997 4.41 23.6539 3.57572 23.0387 2.96063C22.4234 2.34554 21.589 2 20.719 2Z" fill="#F6F6F6"/>
<path d="M16.5 13C16.9596 13 17.4148 12.9095 17.8394 12.7336C18.264 12.5577 18.6499 12.2999 18.9749 11.9749C19.2999 11.6499 19.5577 11.264 19.7336 10.8394C19.9095 10.4148 20 9.95963 20 9.5C20 9.04037 19.9095 8.58525 19.7336 8.16061C19.5577 7.73597 19.2999 7.35013 18.9749 7.02513C18.6499 6.70012 18.264 6.44231 17.8394 6.26642C17.4148 6.09053 16.9596 6 16.5 6C15.5717 6 14.6815 6.36875 14.0251 7.02513C13.3687 7.6815 13 8.57174 13 9.5C13 10.4283 13.3687 11.3185 14.0251 11.9749C14.6815 12.6313 15.5717 13 16.5 13Z" fill="#FB4B4E"/>
<path d="M11.719 7H3.28C2.41 7.00027 1.57572 7.34606 0.960629 7.96134C0.345538 8.57661 -4.0409e-08 9.411 0 10.281L0 18.719C0 19.5892 0.345676 20.4237 0.960983 21.039C1.57629 21.6543 2.41082 22 3.281 22H11.719C12.5892 22 13.4237 21.6543 14.039 21.039C14.6543 20.4237 15 19.5892 15 18.719V10.28C14.9997 9.41 14.6539 8.57572 14.0387 7.96063C13.4234 7.34554 12.589 7 11.719 7Z" fill="#0A48B6"/>
<path fill-rule="evenodd" clip-rule="evenodd" d="M7.74017 10.301L7.61417 9.92599C7.61053 9.91563 7.60376 9.90666 7.5948 9.90032C7.58585 9.89397 7.57514 9.89056 7.56417 9.89056C7.55319 9.89056 7.54248 9.89397 7.53353 9.90032C7.52457 9.90666 7.51781 9.91563 7.51417 9.92599L7.38817 10.301L6.99317 10.305C6.98195 10.305 6.97103 10.3085 6.96197 10.3151C6.9529 10.3217 6.94616 10.331 6.94271 10.3417C6.93927 10.3524 6.9393 10.3639 6.94279 10.3745C6.94629 10.3852 6.95307 10.3944 6.96217 10.401L7.28017 10.636L7.16017 11.013C7.14517 11.061 7.20017 11.102 7.24217 11.072L7.56417 10.842L7.88617 11.072C7.92717 11.102 7.98317 11.062 7.96717 11.012L7.84817 10.636L8.16617 10.401C8.17526 10.3944 8.18205 10.3852 8.18554 10.3745C8.18904 10.3639 8.18906 10.3524 8.18562 10.3417C8.18217 10.331 8.17543 10.3217 8.16637 10.3151C8.1573 10.3085 8.14638 10.305 8.13517 10.305L7.74017 10.301ZM7.74017 18.355L7.61417 17.98C7.61053 17.9696 7.60376 17.9607 7.5948 17.9543C7.58585 17.948 7.57514 17.9446 7.56417 17.9446C7.55319 17.9446 7.54248 17.948 7.53353 17.9543C7.52457 17.9607 7.51781 17.9696 7.51417 17.98L7.38817 18.355L6.99317 18.358C6.98195 18.358 6.97103 18.3615 6.96197 18.3681C6.9529 18.3747 6.94616 18.384 6.94271 18.3947C6.93927 18.4054 6.9393 18.4169 6.94279 18.4275C6.94629 18.4382 6.95307 18.4474 6.96217 18.454L7.28017 18.689L7.16017 19.066C7.14517 19.115 7.20017 19.156 7.24217 19.126L7.56417 18.896L7.88617 19.126C7.92717 19.156 7.98317 19.115 7.96717 19.066L7.84817 18.689L8.16617 18.454C8.17526 18.4474 8.18205 18.4382 8.18554 18.4275C8.18904 18.4169 8.18906 18.4054 8.18562 18.3947C8.18217 18.384 8.17543 18.3747 8.16637 18.3681C8.1573 18.3615 8.14638 18.358 8.13517 18.358L7.74017 18.355ZM11.6402 13.953L11.7662 14.328L12.1612 14.331C12.2132 14.331 12.2342 14.397 12.1932 14.428L11.8742 14.662L11.9942 15.039C11.998 15.0497 11.9983 15.0615 11.9949 15.0724C11.9916 15.0833 11.9848 15.0928 11.9755 15.0996C11.9663 15.1063 11.9552 15.1099 11.9438 15.1098C11.9323 15.1097 11.9213 15.1059 11.9122 15.099L11.5902 14.869L11.2692 15.099C11.2601 15.1059 11.249 15.1097 11.2376 15.1098C11.2262 15.1099 11.215 15.1063 11.2058 15.0996C11.1966 15.0928 11.1898 15.0833 11.1864 15.0724C11.1831 15.0615 11.1833 15.0497 11.1872 15.039L11.3072 14.662L10.9882 14.428C10.9786 14.4216 10.9714 14.4123 10.9676 14.4014C10.9639 14.3906 10.9637 14.3788 10.9672 14.3678C10.9707 14.3569 10.9777 14.3474 10.987 14.3407C10.9964 14.3341 11.0077 14.3307 11.0192 14.331L11.4152 14.328L11.5402 13.953C11.5438 13.9426 11.5506 13.9337 11.5595 13.9273C11.5685 13.921 11.5792 13.9176 11.5902 13.9176C11.6011 13.9176 11.6118 13.921 11.6208 13.9273C11.6298 13.9337 11.6365 13.9426 11.6402 13.953ZM3.71317 14.328L3.58817 13.953C3.58475 13.9423 3.57802 13.9329 3.56894 13.9263C3.55986 13.9196 3.54891 13.9161 3.53767 13.9161C3.52642 13.9161 3.51547 13.9196 3.50639 13.9263C3.49731 13.9329 3.49058 13.9423 3.48717 13.953L3.36217 14.328L2.96717 14.331C2.95559 14.3304 2.94415 14.3337 2.93461 14.3402C2.92506 14.3468 2.91792 14.3563 2.91429 14.3673C2.91066 14.3783 2.91074 14.3902 2.91451 14.4012C2.91828 14.4121 2.92553 14.4215 2.93517 14.428L3.25317 14.662L3.13417 15.039C3.11917 15.089 3.17417 15.129 3.21617 15.099L3.53817 14.869L3.85917 15.099C3.90117 15.129 3.95617 15.089 3.94117 15.039L3.82117 14.662L4.14017 14.428C4.14971 14.4216 4.15691 14.4123 4.1607 14.4014C4.16448 14.3906 4.16463 14.3788 4.16113 14.3678C4.15764 14.3569 4.15068 14.3474 4.1413 14.3407C4.13193 14.3341 4.12065 14.3307 4.10917 14.331L3.71317 14.328ZM4.19317 11.85L4.31917 12.225L4.71417 12.228C4.76517 12.228 4.78617 12.294 4.74517 12.324L4.42717 12.559L4.54717 12.936C4.551 12.9467 4.55127 12.9585 4.54791 12.9694C4.54456 12.9803 4.53776 12.9898 4.52855 12.9966C4.51933 13.0033 4.50818 13.0069 4.49676 13.0068C4.48534 13.0067 4.47426 13.0029 4.46517 12.996L4.14317 12.766L3.82117 12.996C3.81205 13.0025 3.80112 13.0059 3.78993 13.0058C3.77874 13.0057 3.76787 13.0021 3.75888 12.9954C3.74989 12.9887 3.74323 12.9794 3.73987 12.9687C3.73651 12.9581 3.73661 12.9466 3.74017 12.936L3.85917 12.559L3.54117 12.324C3.53207 12.3174 3.52529 12.3082 3.52179 12.2975C3.5183 12.2869 3.51827 12.2754 3.52171 12.2647C3.52516 12.254 3.5319 12.2447 3.54096 12.2381C3.55003 12.2315 3.56095 12.228 3.57217 12.228L3.96717 12.225L4.09217 11.85C4.09531 11.8389 4.10199 11.8291 4.11119 11.8221C4.1204 11.8152 4.13162 11.8114 4.14317 11.8114C4.15471 11.8114 4.16593 11.8152 4.17514 11.8221C4.18434 11.8291 4.19002 11.8389 4.19317 11.85ZM11.2932 16.252L11.1672 15.877C11.1635 15.8666 11.1568 15.8577 11.1478 15.8513C11.1388 15.845 11.1281 15.8416 11.1172 15.8416C11.1062 15.8416 11.0955 15.845 11.0865 15.8513C11.0776 15.8577 11.0708 15.8666 11.0672 15.877L10.9412 16.252L10.5462 16.255C10.5349 16.2548 10.5238 16.2582 10.5146 16.2647C10.5053 16.2712 10.4984 16.2805 10.4949 16.2912C10.4913 16.3019 10.4912 16.3135 10.4947 16.3243C10.4982 16.335 10.505 16.3444 10.5142 16.351L10.8332 16.586L10.7132 16.963C10.6982 17.012 10.7532 17.053 10.7952 17.023L11.1172 16.793L11.4382 17.023C11.4802 17.053 11.5362 17.012 11.5202 16.963L11.4002 16.586L11.7192 16.351C11.7283 16.3444 11.735 16.3352 11.7385 16.3245C11.742 16.3139 11.7421 16.3024 11.7386 16.2917C11.7352 16.281 11.7284 16.2717 11.7194 16.2651C11.7103 16.2585 11.6994 16.255 11.6882 16.255L11.2922 16.252H11.2932ZM9.69317 10.376L9.81817 10.751L10.2132 10.754C10.2642 10.754 10.2862 10.82 10.2442 10.851L9.92617 11.085L10.0462 11.462C10.05 11.4727 10.0503 11.4845 10.0469 11.4954C10.0436 11.5063 10.0368 11.5158 10.0275 11.5226C10.0183 11.5293 10.0072 11.5329 9.99576 11.5328C9.98434 11.5327 9.97326 11.5289 9.96417 11.522L9.64217 11.292L9.32017 11.522C9.31105 11.5285 9.30012 11.5319 9.28893 11.5318C9.27774 11.5317 9.26687 11.5281 9.25788 11.5214C9.24888 11.5147 9.24223 11.5054 9.23887 11.4947C9.23551 11.4841 9.23561 11.4726 9.23917 11.462L9.35817 11.085L9.04017 10.851C9.03062 10.8446 9.02342 10.8353 9.01964 10.8244C9.01585 10.8136 9.0157 10.8018 9.0192 10.7908C9.0227 10.7799 9.02965 10.7704 9.03903 10.7637C9.0484 10.7571 9.05968 10.7537 9.07117 10.754L9.46617 10.751L9.59217 10.376C9.59581 10.3656 9.60257 10.3567 9.61153 10.3503C9.62048 10.344 9.63119 10.3406 9.64217 10.3406C9.65314 10.3406 9.66385 10.344 9.6728 10.3503C9.68176 10.3567 9.68953 10.3656 9.69317 10.376ZM5.79117 17.726L5.66617 17.351C5.66253 17.3406 5.65576 17.3317 5.6468 17.3253C5.63785 17.319 5.62714 17.3156 5.61617 17.3156C5.60519 17.3156 5.59448 17.319 5.58553 17.3253C5.57657 17.3317 5.56981 17.3406 5.56617 17.351L5.44017 17.726L5.04517 17.729C5.03387 17.7288 5.0228 17.7322 5.01357 17.7387C5.00433 17.7452 4.99743 17.7545 4.99386 17.7652C4.99028 17.7759 4.99023 17.7875 4.9937 17.7983C4.99718 17.809 5.004 17.8184 5.01317 17.825L5.33217 18.06L5.21217 18.437C5.19717 18.486 5.25217 18.527 5.29417 18.497L5.61617 18.267L5.93717 18.497C5.97917 18.527 6.03517 18.486 6.01917 18.437L5.89917 18.06L6.21817 17.825C6.22726 17.8184 6.23405 17.8092 6.23754 17.7985C6.24104 17.7879 6.24106 17.7764 6.23762 17.7657C6.23417 17.755 6.22743 17.7457 6.21837 17.7391C6.2093 17.7325 6.19838 17.729 6.18717 17.729L5.79117 17.726ZM11.0662 11.85L10.9412 12.225L10.5462 12.228C10.5349 12.2278 10.5238 12.2312 10.5146 12.2377C10.5053 12.2442 10.4984 12.2535 10.4949 12.2642C10.4913 12.2749 10.4912 12.2865 10.4947 12.2973C10.4982 12.308 10.505 12.3174 10.5142 12.324L10.8332 12.559L10.7132 12.936C10.6982 12.986 10.7532 13.026 10.7952 12.996L11.1172 12.766L11.4382 12.996C11.4802 13.026 11.5362 12.986 11.5202 12.936L11.4002 12.559L11.7192 12.324C11.7283 12.3174 11.735 12.3082 11.7385 12.2975C11.742 12.2869 11.7421 12.2754 11.7386 12.2647C11.7352 12.254 11.7284 12.2447 11.7194 12.2381C11.7103 12.2315 11.6994 12.228 11.6882 12.228L11.2922 12.225L11.1672 11.85C11.1635 11.8396 11.1568 11.8307 11.1478 11.8243C11.1388 11.818 11.1281 11.8146 11.1172 11.8146C11.1062 11.8146 11.0955 11.818 11.0865 11.8243C11.0776 11.8307 11.0708 11.8396 11.0672 11.85H11.0662ZM3.96717 16.252L4.09217 15.877C4.09531 15.8659 4.10199 15.8561 4.11119 15.8491C4.1204 15.8422 4.13162 15.8384 4.14317 15.8384C4.15471 15.8384 4.16593 15.8422 4.17514 15.8491C4.18434 15.8561 4.19102 15.8659 4.19417 15.877L4.31917 16.252L4.71417 16.255C4.76517 16.255 4.78717 16.321 4.74517 16.351L4.42717 16.586L4.54717 16.963C4.551 16.9737 4.55127 16.9855 4.54791 16.9964C4.54456 17.0073 4.53776 17.0168 4.52855 17.0236C4.51933 17.0303 4.50818 17.0339 4.49676 17.0338C4.48534 17.0337 4.47426 17.0299 4.46517 17.023L4.14317 16.793L3.82117 17.023C3.81205 17.0295 3.80112 17.0329 3.78993 17.0328C3.77874 17.0327 3.76787 17.0291 3.75888 17.0224C3.74989 17.0157 3.74323 17.0064 3.73987 16.9957C3.73651 16.9851 3.73661 16.9736 3.74017 16.963L3.85917 16.586L3.54117 16.351C3.53207 16.3444 3.52529 16.3352 3.52179 16.3245C3.5183 16.3139 3.51827 16.3024 3.52171 16.2917C3.52516 16.281 3.5319 16.2717 3.54096 16.2651C3.55003 16.2585 3.56095 16.255 3.57217 16.255L3.96717 16.252ZM5.56517 10.376L5.44017 10.751L5.04517 10.754C5.03359 10.7534 5.02215 10.7567 5.0126 10.7632C5.00306 10.7698 4.99592 10.7793 4.99229 10.7903C4.98866 10.8013 4.98873 10.8132 4.99251 10.8242C4.99628 10.8351 5.00353 10.8445 5.01317 10.851L5.33217 11.085L5.21217 11.462C5.19717 11.512 5.25217 11.552 5.29417 11.522L5.61617 11.292L5.93717 11.522C5.97917 11.552 6.03517 11.512 6.01917 11.462L5.89917 11.085L6.21817 10.851C6.22771 10.8446 6.23491 10.8353 6.2387 10.8244C6.24248 10.8136 6.24263 10.8018 6.23913 10.7908C6.23564 10.7799 6.22868 10.7704 6.2193 10.7637C6.20993 10.7571 6.19865 10.7537 6.18717 10.754L5.79117 10.751L5.66617 10.376C5.66253 10.3656 5.65576 10.3567 5.6468 10.3503C5.63785 10.344 5.62714 10.3406 5.61617 10.3406C5.60519 10.3406 5.59448 10.344 5.58553 10.3503C5.57657 10.3567 5.56881 10.3656 5.56517 10.376ZM9.46617 17.726L9.59217 17.351C9.59581 17.3406 9.60257 17.3317 9.61153 17.3253C9.62048 17.319 9.63119 17.3156 9.64217 17.3156C9.65314 17.3156 9.66385 17.319 9.6728 17.3253C9.68176 17.3317 9.68853 17.3406 9.69217 17.351L9.81817 17.726L10.2132 17.729C10.2642 17.729 10.2862 17.795 10.2442 17.825L9.92617 18.06L10.0462 18.437C10.05 18.4477 10.0503 18.4595 10.0469 18.4704C10.0436 18.4813 10.0368 18.4908 10.0275 18.4976C10.0183 18.5043 10.0072 18.5079 9.99576 18.5078C9.98434 18.5077 9.97326 18.5039 9.96417 18.497L9.64217 18.267L9.32017 18.497C9.31105 18.5035 9.30012 18.5069 9.28893 18.5068C9.27774 18.5067 9.26687 18.5031 9.25788 18.4964C9.24888 18.4897 9.24223 18.4804 9.23887 18.4697C9.23551 18.4591 9.23561 18.4476 9.23917 18.437L9.35817 18.06L9.04017 17.825C9.03107 17.8184 9.02429 17.8092 9.02079 17.7985C9.0173 17.7879 9.01727 17.7764 9.02071 17.7657C9.02416 17.755 9.0309 17.7457 9.03996 17.7391C9.04903 17.7325 9.05995 17.729 9.07117 17.729L9.46617 17.726Z" fill="#FFE15A"/>
</svg>
