<svg width="24" height="24" fill="none" xmlns="http://www.w3.org/2000/svg"><g clip-path="url(#a)"><mask id="b" style="mask-type:luminance" maskUnits="userSpaceOnUse" x="0" y="0" width="24" height="24"><path d="M0 0h24v24H0V0z" fill="#fff"/></mask><g mask="url(#b)"><path fill-rule="evenodd" clip-rule="evenodd" d="M9.784 3.154h13.433c.285.334.504.725.637 1.154H9.147c.134-.429.352-.82.637-1.154zM9 5.462h15v1.154H9V5.462zM24 7.77H9v1.153h15V7.77zM9 10.077h15v1.154H9v-1.154zm15 2.308H9v1.154h15v-1.154zM9.147 14.693h14.707a3.27 3.27 0 0 1-.637 1.154H9.784a3.274 3.274 0 0 1-.637-1.154z" fill="#F5F5F5"/><path fill-rule="evenodd" clip-rule="evenodd" d="M20.719 2H12.28c-1 0-1.896.448-2.498 1.154h13.434A3.274 3.274 0 0 0 20.719 2zM24 6.615H9v1.154h15V6.615zm-.147-2.307c.096.308.147.635.147.974v.18H9v-.18c0-.34.051-.666.147-.974h14.706zM24 8.923H9v1.154h15V8.923zm0 4.616v.18c0 .34-.051.666-.147.974H9.147A3.28 3.28 0 0 1 9 13.719v-.18h15zm-.783 2.307H9.783A3.274 3.274 0 0 0 12.281 17h8.438c1 0 1.896-.448 2.498-1.154zM9 11.231h15v1.154H9V11.23v.001z" fill="#FA4051"/><path d="M17 2h-4.75C10.455 2 9 3.47 9 5.281v4.796h8V2z" fill="#1939C9"/><path fill-rule="evenodd" clip-rule="evenodd" d="m11.613 2.721.062.187.197.002c.025 0 .036.032.015.047l-.158.117.06.188a.027.027 0 0 1-.01.03.027.027 0 0 1-.031 0l-.16-.115-.16.114a.027.027 0 0 1-.04-.014.027.027 0 0 1 0-.016l.058-.187-.158-.117a.025.025 0 0 1-.01-.013.026.026 0 0 1 .01-.03.026.026 0 0 1 .016-.004l.196-.002.063-.187a.027.027 0 0 1 .025-.017.027.027 0 0 1 .025.017zm-1.743.541a.027.027 0 0 0 .04.03l.16-.115.16.115a.027.027 0 0 0 .04-.014.026.026 0 0 0 0-.016l-.057-.187.158-.117a.027.027 0 0 0 .008-.03.027.027 0 0 0-.024-.018l-.196-.002-.034-.1a3.306 3.306 0 0 0-.241.233l.046.034-.06.187zm.226 1.016.063.187.196.001c.026 0 .036.033.016.048l-.158.117.059.187a.027.027 0 0 1-.04.03l-.16-.115-.16.115a.027.027 0 0 1-.042-.03l.06-.187-.158-.117a.027.027 0 0 1 .015-.048l.197-.001.062-.187a.026.026 0 0 1 .05 0zm.063 1.913-.063-.186a.026.026 0 0 0-.05 0l-.062.186-.197.002a.027.027 0 0 0-.015.048l.158.117-.06.187a.027.027 0 0 0 .04.03l.16-.115.16.115c.022.014.05-.006.042-.03l-.06-.188.159-.116a.027.027 0 0 0 .008-.03.027.027 0 0 0-.024-.018l-.196-.002zm-.063 1.4.063.187.196.002c.026 0 .036.032.016.047l-.158.117.059.188a.026.026 0 0 1-.024.035.026.026 0 0 1-.016-.005l-.16-.115-.16.114a.026.026 0 0 1-.042-.03l.06-.187-.158-.117a.027.027 0 0 1 .015-.047l.197-.002.062-.187a.026.026 0 0 1 .05 0zm.063 1.63-.063-.187a.026.026 0 0 0-.05 0l-.062.187-.197.002a.027.027 0 0 0-.015.047l.158.117-.06.188a.027.027 0 0 0 .04.03l.16-.115.16.114a.027.027 0 0 0 .042-.03l-.06-.187.159-.117a.026.026 0 0 0 .008-.013.027.027 0 0 0-.01-.028.027.027 0 0 0-.014-.006l-.196-.002zm.694-5.762.062.186.197.002c.026 0 .036.032.016.048l-.16.116.06.188a.027.027 0 0 1-.01.03.027.027 0 0 1-.03 0l-.16-.115-.16.114a.027.027 0 0 1-.04-.014.027.027 0 0 1 0-.016l.059-.187-.16-.116a.026.026 0 0 1-.008-.013.027.027 0 0 1 .025-.035l.197-.002.062-.186a.027.027 0 0 1 .025-.017.027.027 0 0 1 .025.017zm.063 1.912-.063-.186a.026.026 0 0 0-.05 0l-.062.186-.197.002a.027.027 0 0 0-.016.048l.159.117-.06.187a.026.026 0 0 0 .008.032.026.026 0 0 0 .033-.002l.16-.115.16.115a.026.026 0 0 0 .04-.03l-.06-.187.16-.117a.027.027 0 0 0 .008-.03.027.027 0 0 0-.024-.018l-.197-.002zm-.063 1.454.063.187.196.001c.026 0 .036.033.016.048l-.16.117.06.188a.027.027 0 0 1-.04.03l-.16-.115-.16.114a.027.027 0 0 1-.04-.014.027.027 0 0 1 0-.016l.059-.187-.16-.117a.026.026 0 0 1-.01-.03.026.026 0 0 1 .027-.018l.197-.001.062-.187a.026.026 0 0 1 .05 0zm.063 1.66-.063-.186a.026.026 0 0 0-.05 0l-.062.186-.197.002a.026.026 0 0 0-.027.035c.002.005.006.01.01.013l.16.117-.06.187a.027.027 0 0 0 .04.03l.16-.115.16.115c.02.014.05-.006.04-.03l-.058-.188.159-.116a.026.026 0 0 0-.016-.048l-.197-.002zm.76-4.02-.063-.187a.027.027 0 0 0-.025-.017.027.027 0 0 0-.025.017l-.063.187-.196.001a.026.026 0 0 0-.027.035c.002.005.006.01.01.013l.159.117-.06.187a.027.027 0 0 0 .026.034c.005 0 .01-.001.015-.004l.16-.115.16.115a.027.027 0 0 0 .042-.03l-.06-.187.159-.117a.027.027 0 0 0 .008-.03.027.027 0 0 0-.024-.018l-.196-.001zm-.063 1.54.062.186.197.002c.025 0 .036.033.015.048l-.158.117.06.187a.027.027 0 0 1-.01.03.027.027 0 0 1-.031 0l-.16-.115-.16.115a.027.027 0 0 1-.04-.014.027.027 0 0 1 0-.016l.058-.188-.158-.116a.026.026 0 0 1-.01-.013.027.027 0 0 1 .025-.035l.197-.002.063-.186a.027.027 0 0 1 .025-.017.027.027 0 0 1 .025.017zm.062 1.773-.062-.187a.027.027 0 0 0-.04-.012.027.027 0 0 0-.01.012l-.063.187-.196.002a.027.027 0 0 0-.015.006.026.026 0 0 0-.01.028c.002.005.005.01.009.013l.158.117-.06.188a.027.027 0 0 0 0 .017.026.026 0 0 0 .025.018.026.026 0 0 0 .016-.005l.16-.115.16.114a.026.026 0 0 0 .034.004.026.026 0 0 0 .01-.016.025.025 0 0 0-.002-.018l-.06-.187.159-.117a.026.026 0 0 0 .008-.013.027.027 0 0 0-.01-.028.027.027 0 0 0-.014-.006l-.197-.002zm-.062 1.256.062.187.197.002c.025 0 .036.032.015.047l-.158.117.06.188a.027.027 0 0 1-.01.03.027.027 0 0 1-.031 0l-.16-.115-.16.114a.027.027 0 0 1-.04-.014.027.027 0 0 1 0-.016l.058-.187-.158-.117a.027.027 0 0 1-.008-.013.026.026 0 0 1 .01-.028.027.027 0 0 1 .014-.006l.196-.002.063-.187a.027.027 0 0 1 .025-.017.027.027 0 0 1 .025.017zm.818-5.389-.062-.186a.027.027 0 0 0-.04-.012.027.027 0 0 0-.01.012l-.063.186-.196.002a.027.027 0 0 0-.016.048l.158.116-.06.188a.027.027 0 0 0 .042.03l.16-.115.16.114a.027.027 0 0 0 .04-.014.026.026 0 0 0 0-.016l-.06-.187.159-.116a.026.026 0 0 0-.015-.048l-.197-.002zm-.062 1.54.062.186.197.002c.025 0 .036.033.015.048l-.158.117.06.187a.026.026 0 0 1 .001.017.026.026 0 0 1-.026.02.026.026 0 0 1-.016-.007l-.16-.115-.16.115a.027.027 0 0 1-.041-.03l.06-.187-.16-.117a.026.026 0 0 1-.008-.013.027.027 0 0 1 .025-.035l.196-.002.063-.186a.027.027 0 0 1 .025-.017.027.027 0 0 1 .025.017zm.062 1.827-.062-.187a.027.027 0 0 0-.04-.012.027.027 0 0 0-.01.012l-.063.187-.196.001a.026.026 0 0 0-.027.035c.002.005.006.01.01.013l.159.117-.06.188c-.007.024.02.044.042.03l.16-.115.16.114a.027.027 0 0 0 .04-.014.026.026 0 0 0 0-.016l-.06-.187.159-.117a.026.026 0 0 0-.015-.048l-.197-.001zm-.062 1.287.062.186.197.002c.025 0 .036.033.015.048l-.158.117.06.187a.026.026 0 0 1 .001.017.026.026 0 0 1-.026.02.026.026 0 0 1-.016-.007l-.16-.115-.16.115a.027.027 0 0 1-.031 0 .027.027 0 0 1-.01-.03l.06-.188-.16-.116a.026.026 0 0 1-.01-.03.026.026 0 0 1 .027-.018l.196-.002.063-.186a.027.027 0 0 1 .025-.017.027.027 0 0 1 .025.017zm.822-5.39-.062-.188c-.008-.024-.043-.024-.05 0l-.063.187-.197.002a.026.026 0 0 0-.025.034c.002.005.005.01.01.013l.158.117-.06.188a.027.027 0 0 0 .01.03.027.027 0 0 0 .03 0l.16-.115.16.114a.027.027 0 0 0 .042-.03l-.06-.187.16-.117a.027.027 0 0 0 .007-.03.027.027 0 0 0-.024-.017l-.196-.001zm-.062 1.369.062.187.196.001c.026 0 .037.033.016.048l-.158.117.06.187a.027.027 0 0 1-.01.03.027.027 0 0 1-.031 0l-.16-.115-.16.115a.027.027 0 0 1-.031 0 .027.027 0 0 1-.01-.03l.059-.187-.158-.117a.027.027 0 0 1-.01-.03.027.027 0 0 1 .025-.018l.197-.002.062-.186a.027.027 0 0 1 .025-.017c.005 0 .01.002.015.005a.03.03 0 0 1 .01.012zm.062 1.913-.062-.186a.026.026 0 0 0-.025-.019.026.026 0 0 0-.025.019l-.063.186-.197.002a.027.027 0 0 0-.024.019.027.027 0 0 0 .009.029l.158.117-.06.187a.027.027 0 0 0 .01.03.027.027 0 0 0 .03 0l.16-.115.16.115c.022.014.05-.006.042-.03l-.06-.188.16-.116a.026.026 0 0 0 .009-.014.027.027 0 0 0-.026-.034l-.196-.002zm-.062 1.4.062.187.196.002c.026 0 .037.032.016.047l-.158.117.06.188a.026.026 0 0 1 .001.017.026.026 0 0 1-.026.02.026.026 0 0 1-.016-.007l-.16-.115-.16.114a.026.026 0 0 1-.043-.013.026.026 0 0 1 .002-.017l.059-.187-.158-.117a.027.027 0 0 1-.008-.013.028.028 0 0 1 .009-.028.027.027 0 0 1 .014-.006l.197-.002.062-.187a.026.026 0 0 1 .025-.019.028.028 0 0 1 .026.019zm.062 1.63-.062-.187a.026.026 0 0 0-.025-.019.026.026 0 0 0-.025.019l-.063.187-.197.002a.027.027 0 0 0-.023.019.028.028 0 0 0 0 .015c.001.005.004.01.008.013l.158.117-.06.188a.027.027 0 0 0 .04.03l.16-.115.16.114a.027.027 0 0 0 .042-.03l-.06-.187.16-.117a.027.027 0 0 0 .007-.03.027.027 0 0 0-.024-.017l-.196-.002zm.694-5.762.063.186.196.002c.026 0 .036.032.016.048l-.158.116.059.188a.027.027 0 0 1-.04.03l-.16-.115-.16.114a.027.027 0 0 1-.042-.03l.06-.187-.158-.116a.027.027 0 0 1-.01-.03.027.027 0 0 1 .025-.018l.197-.002.062-.186a.027.027 0 0 1 .025-.017.027.027 0 0 1 .025.017zm.063 1.912-.063-.186a.027.027 0 0 0-.025-.017.027.027 0 0 0-.025.017l-.062.186-.197.002a.027.027 0 0 0-.024.019.027.027 0 0 0 .009.029l.158.117-.06.187a.026.026 0 0 0 .008.032.026.026 0 0 0 .033-.002l.16-.115.16.115a.026.026 0 0 0 .032.002.026.026 0 0 0 .01-.015.026.026 0 0 0-.001-.017L14 5.538l.159-.117a.027.027 0 0 0 .008-.03.027.027 0 0 0-.025-.018l-.195-.002zm-.063 1.454.063.187.196.001c.026 0 .036.033.016.048l-.158.117.059.188a.027.027 0 0 1-.04.03l-.16-.115-.16.114a.027.027 0 0 1-.042-.03l.06-.187-.158-.117a.026.026 0 0 1-.001-.043.026.026 0 0 1 .016-.005l.197-.001.062-.187a.027.027 0 0 1 .025-.017.027.027 0 0 1 .025.017zm.063 1.66-.063-.186a.027.027 0 0 0-.04-.012.027.027 0 0 0-.01.012l-.062.186-.197.002a.026.026 0 0 0-.026.018.026.026 0 0 0 .01.03l.159.117-.06.187a.027.027 0 0 0 .04.03l.16-.115.16.115c.022.014.05-.006.042-.03L14 8.651l.159-.116a.026.026 0 0 0-.016-.048l-.196-.002zm.695-5.764.063.187.196.002c.026 0 .036.032.016.047l-.16.117.06.188a.026.026 0 0 1-.024.035.026.026 0 0 1-.015-.005l-.16-.115-.16.114a.027.027 0 0 1-.042-.03l.06-.187-.16-.117a.025.025 0 0 1-.009-.013.026.026 0 0 1 .01-.03.026.026 0 0 1 .016-.004l.197-.002.062-.187a.026.026 0 0 1 .05 0zm.063 1.744-.063-.187a.026.026 0 0 0-.05 0l-.062.187-.197.001a.027.027 0 0 0-.016.048l.159.117-.06.187a.027.027 0 0 0 .01.03.027.027 0 0 0 .03 0l.16-.115.16.115a.026.026 0 0 0 .04-.03l-.058-.187.159-.117a.027.027 0 0 0 .009-.03.027.027 0 0 0-.025-.018l-.196-.001zm-.063 1.54.063.186.196.002c.026 0 .036.033.016.048l-.16.117.06.187a.026.026 0 0 1-.024.035.026.026 0 0 1-.015-.005l-.16-.115-.16.115a.027.027 0 0 1-.042-.03l.06-.188-.16-.116a.026.026 0 0 1-.008-.013.027.027 0 0 1 .025-.035l.197-.002.062-.186a.026.026 0 0 1 .05 0zm.063 1.773-.063-.187a.026.026 0 0 0-.05 0l-.062.187-.197.002a.027.027 0 0 0-.015.006.026.026 0 0 0-.01.028c.002.005.005.01.009.013l.159.117-.06.188a.026.026 0 0 0 .008.032.026.026 0 0 0 .033-.002l.16-.115.16.114a.026.026 0 0 0 .04-.03l-.06-.187.16-.117a.026.026 0 0 0 .008-.013.027.027 0 0 0-.01-.028.027.027 0 0 0-.014-.006l-.196-.002zm-.063 1.256.063.187.196.002c.026 0 .036.032.016.047l-.16.117.06.188a.026.026 0 0 1-.024.035.026.026 0 0 1-.015-.005l-.16-.115-.16.114a.027.027 0 0 1-.042-.03l.06-.187-.16-.117a.027.027 0 0 1-.007-.013.026.026 0 0 1 .01-.028.027.027 0 0 1 .014-.006l.197-.002.062-.187a.026.026 0 0 1 .05 0zm.818-5.389L15.4 3.46a.027.027 0 0 0-.025-.017.027.027 0 0 0-.025.017l-.063.186-.196.002a.027.027 0 0 0-.016.048l.159.116-.06.188a.027.027 0 0 0 .025.034c.005 0 .01-.001.015-.004l.16-.115.16.114a.027.027 0 0 0 .04-.014.026.026 0 0 0 0-.016l-.058-.187.159-.116a.026.026 0 0 0-.016-.048l-.197-.002-.001-.001zm-.062 1.54.062.186.197.002c.026 0 .036.033.016.048l-.16.117.06.187a.026.026 0 0 1 .002.017.026.026 0 0 1-.026.02.026.026 0 0 1-.016-.007l-.16-.115-.16.115a.026.026 0 0 1-.04-.03l.059-.187-.16-.117a.026.026 0 0 1-.008-.013.027.027 0 0 1 .025-.035l.197-.002.062-.186a.027.027 0 0 1 .025-.017.027.027 0 0 1 .025.017zm.062 1.827-.062-.187a.027.027 0 0 0-.04-.012.027.027 0 0 0-.01.012l-.063.187-.196.001a.026.026 0 0 0-.027.035c.002.005.006.01.01.013l.16.117-.06.188a.027.027 0 0 0 .025.034c.005 0 .01-.001.015-.004l.16-.115.16.114a.027.027 0 0 0 .04-.014.026.026 0 0 0 0-.016l-.058-.187.159-.117a.026.026 0 0 0-.016-.048l-.197-.001zm-.062 1.287.062.186.197.002c.026 0 .036.033.016.048l-.16.117.06.187a.027.027 0 0 1-.04.03l-.16-.115-.16.115c-.02.014-.05-.006-.04-.03l.059-.188-.16-.116a.026.026 0 0 1-.01-.03.026.026 0 0 1 .027-.018l.197-.002.062-.186a.027.027 0 0 1 .025-.017.027.027 0 0 1 .025.017zm.82-5.39-.061-.188a.026.026 0 0 0-.05 0l-.063.187-.196.002a.026.026 0 0 0-.026.034c.002.005.005.01.01.013l.158.117-.06.188a.027.027 0 0 0 .026.034c.005 0 .01-.001.015-.004l.16-.115.16.114a.027.027 0 0 0 .04-.03l-.058-.187.158-.117a.026.026 0 0 0-.015-.047l-.197-.001zm-.061 1.369.062.187.197.001c.025 0 .036.033.015.048l-.158.117.06.187a.027.027 0 0 1-.01.03.027.027 0 0 1-.031 0l-.16-.115-.16.115a.027.027 0 0 1-.031 0 .027.027 0 0 1-.01-.03l.06-.187-.16-.117a.026.026 0 0 1-.01-.03.026.026 0 0 1 .027-.018l.196-.001.063-.187a.026.026 0 0 1 .05 0zm.062 1.913-.062-.186a.026.026 0 0 0-.05 0l-.063.186-.196.002a.027.027 0 0 0-.016.048l.158.117-.06.187a.027.027 0 0 0 .026.034c.005 0 .01-.001.015-.004l.16-.115.16.115a.027.027 0 0 0 .04-.03l-.058-.188.158-.116a.027.027 0 0 0 .009-.03.027.027 0 0 0-.024-.018l-.197-.002zm-.062 1.4.062.187.197.002c.025 0 .036.032.015.047l-.158.117.06.188a.026.026 0 0 1 .001.017.026.026 0 0 1-.026.02.026.026 0 0 1-.016-.007l-.16-.115-.16.114a.026.026 0 0 1-.043-.013.026.026 0 0 1 .002-.017l.06-.187-.16-.117a.027.027 0 0 1-.007-.013.026.026 0 0 1 .01-.028.027.027 0 0 1 .014-.006l.196-.002.063-.187a.026.026 0 0 1 .05 0zm.062 1.63-.062-.187a.026.026 0 0 0-.05 0l-.063.187-.196.002a.027.027 0 0 0-.015.006.026.026 0 0 0-.01.028c.002.005.005.01.009.013l.158.117-.06.188c-.007.024.02.044.04.03l.16-.115.16.114c.022.015.05-.005.042-.03l-.06-.187.159-.117a.027.027 0 0 0 .008-.028.027.027 0 0 0-.009-.013.027.027 0 0 0-.014-.006l-.197-.002z" fill="#F5F5F5"/><path d="M11.719 7H3.28A3.281 3.281 0 0 0 0 10.281v8.438A3.28 3.28 0 0 0 3.281 22h8.438A3.281 3.281 0 0 0 15 18.719V10.28A3.281 3.281 0 0 0 11.719 7z" fill="#2841C1"/><path fill-rule="evenodd" clip-rule="evenodd" d="m11.413 9.946-.122-.4a.036.036 0 0 0-.069 0l-.12.4-.39-.155c-.033-.013-.064.025-.043.054l.237.345-.363.207a.036.036 0 0 0 .015.068l.418.029-.065.413a.036.036 0 0 0 .043.042.036.036 0 0 0 .02-.012l.283-.308.283.308a.036.036 0 0 0 .062-.03l-.064-.413.417-.03a.036.036 0 0 0 .033-.028.036.036 0 0 0-.017-.039l-.364-.207.238-.345a.036.036 0 0 0-.043-.054l-.39.155h.001zm-7.344 7.76-.248-.82a.074.074 0 0 0-.115-.038.074.074 0 0 0-.027.038l-.248.82-.796-.317a.075.075 0 0 0-.085.022.074.074 0 0 0-.004.088l.487.707-.745.425a.074.074 0 0 0 .032.137l.855.06-.132.847a.074.074 0 0 0 .127.061l.58-.63.58.63c.05.054.14.011.127-.061l-.132-.847.855-.06c.073-.005.095-.101.032-.138l-.745-.424.487-.706a.074.074 0 0 0-.088-.11l-.797.316zm4.517-4.488.122.4.388-.154a.036.036 0 0 1 .044.054l-.238.345.364.207a.036.036 0 0 1-.016.067l-.417.03.064.413a.036.036 0 0 1-.02.038.036.036 0 0 1-.042-.008l-.283-.308-.284.308a.036.036 0 0 1-.062-.03l.065-.413-.418-.03a.036.036 0 0 1-.03-.05.036.036 0 0 1 .015-.017l.363-.207-.237-.345a.036.036 0 0 1 .043-.054l.39.155.12-.401c.01-.034.058-.034.07 0zm5.39-1.513-.122-.401c-.01-.034-.06-.034-.07 0l-.12.4-.39-.154c-.033-.014-.063.024-.043.054l.238.344-.364.208a.036.036 0 0 0 .015.067l.418.03-.064.413a.036.036 0 0 0 .062.03l.283-.308.283.308c.024.027.068.006.063-.03l-.065-.413.418-.03a.036.036 0 0 0 .015-.067l-.364-.208.238-.344c.02-.03-.01-.068-.043-.054l-.388.155zm-2.685 6.078.122.401.39-.155a.036.036 0 0 1 .04.011.036.036 0 0 1 .001.043l-.237.345.364.207a.036.036 0 0 1-.016.068l-.417.029.064.414c.006.035-.038.056-.062.03l-.283-.309-.284.309a.036.036 0 0 1-.042.008.036.036 0 0 1-.016-.016.037.037 0 0 1-.004-.022l.065-.414-.418-.03a.036.036 0 0 1-.029-.05.036.036 0 0 1 .014-.016l.363-.208-.237-.345a.036.036 0 0 1 .043-.054l.39.155.12-.4a.036.036 0 0 1 .035-.028c.008 0 .016.003.022.008.007.005.011.012.013.02v-.001zm.842-3.255.098-.293a.04.04 0 0 1 .015-.022.04.04 0 0 1 .05 0 .041.041 0 0 1 .014.022l.097.293.308.002c.04 0 .056.051.024.075l-.247.183.092.293a.041.041 0 0 1-.014.047.04.04 0 0 1-.049 0l-.25-.18-.25.18a.042.042 0 0 1-.049 0 .043.043 0 0 1-.015-.02.042.042 0 0 1 0-.026l.092-.294-.248-.183a.042.042 0 0 1 .024-.075l.308-.002z" fill="#F5F5F5"/><path fill-rule="evenodd" clip-rule="evenodd" d="M7.5 7v.585l-2.764 1.81V7H7.5zM.813 8.118a3.276 3.276 0 0 1 1.95-1.077v2.355L.813 8.118zM.041 9.763c.034-.217.09-.427.165-.627l.958.627H.04h.001zM0 11.737v.762l1.163-.762H0zm7.501.762v-.762H6.338l1.163.762zM7.5 14.5H4.736v-2.396l2.764 1.81v.586zm.002-4.737v-.762l-1.163.762h1.163zM0 13.915l2.763-1.81V14.5H0v-.585z" fill="#2841C1"/><path fill-rule="evenodd" clip-rule="evenodd" d="M7.5 9.763v.395H4.342V7h.395v2.396L7.5 7.586v.383L4.737 9.763h.725L7.5 8.44V9l-1.164.763H7.5zm-4.343-2.76a3.295 3.295 0 0 0-.394.038v2.355L.813 8.119a3.294 3.294 0 0 0-.318.428l1.873 1.216h-.725L.306 8.895a3.26 3.26 0 0 0-.1.24l.957.628H.04a3.43 3.43 0 0 0-.038.395h3.155V7.003zm0 7.497h-.394v-2.396L0 13.914v-.39l2.752-1.787h-.725L0 13.053v-.554l1.163-.762H0v-.395h3.158L3.157 14.5zm1.58 0h-.395v-3.158H7.5v.395H6.336l1.164.762v.36l-1.73-1.122h-.724L7.5 13.33v.585l-2.763-1.81V14.5z" fill="#F5F5F5"/><path fill-rule="evenodd" clip-rule="evenodd" d="M3.158 14.5h1.184v-3.158H7.5v-1.184H4.342V7h-1.06c-.042 0-.083.001-.124.003v3.155H.003A3.31 3.31 0 0 0 0 10.28v1.061h3.158V14.5zm-1.13-2.763L0 13.053v.47l2.752-1.786h-.725.001zm5.47 1.593-2.453-1.593h.725l1.73 1.122v.47l-.002.001zM2.367 9.763.494 8.547a3.44 3.44 0 0 0-.19.348l1.338.868h.725zM7.499 8.44 5.461 9.763h-.725L7.5 7.97v.471l-.001-.001z" fill="#FF4B55"/></g></g><defs><clipPath id="a"><path fill="#fff" d="M0 0h24v24H0z"/></clipPath></defs></svg>