<svg width="24" height="24" viewBox="0 0 24 24" fill="none" xmlns="http://www.w3.org/2000/svg">
<g clip-path="url(#clip0_3043_437)">
<mask id="mask0_3043_437" style="mask-type:luminance" maskUnits="userSpaceOnUse" x="0" y="0" width="24" height="24">
<path d="M0 0H24V24H0V0Z" fill="white"/>
</mask>
<g mask="url(#mask0_3043_437)">
<path fill-rule="evenodd" clip-rule="evenodd" d="M9.784 3.15399H23.217C23.502 3.48799 23.721 3.87899 23.854 4.30799H9.147C9.281 3.87899 9.499 3.48799 9.784 3.15399ZM9 5.46199H24V6.61599H9V5.46199ZM24 7.76999H9V8.92299H24V7.76999ZM9 10.077H24V11.231H9V10.077ZM24 12.385H9V13.539H24V12.385ZM9.147 14.693H23.854C23.721 15.122 23.502 15.513 23.217 15.847H9.784C9.49563 15.5095 9.2789 15.1169 9.147 14.693Z" fill="#F5F5F5"/>
<path fill-rule="evenodd" clip-rule="evenodd" d="M20.719 2H12.28C11.28 2 10.384 2.448 9.782 3.154H23.216C22.9084 2.79203 22.5258 2.50131 22.0946 2.30204C21.6634 2.10276 21.194 1.9997 20.719 2ZM24 6.615H9V7.769H24V6.615ZM23.853 4.308C23.949 4.616 24 4.943 24 5.282V5.462H9V5.282C9 4.942 9.051 4.616 9.147 4.308H23.853ZM24 8.923H9V10.077H24V8.923ZM24 13.539V13.719C24 14.059 23.949 14.385 23.853 14.693H9.147C9.04925 14.3776 8.99969 14.0492 9 13.719V13.539H24ZM23.217 15.846H9.783C10.0907 16.2081 10.4735 16.4989 10.9049 16.6982C11.3362 16.8975 11.8058 17.0004 12.281 17H20.719C21.719 17 22.615 16.552 23.217 15.846ZM9 11.231H24V12.385H9V11.23V11.231Z" fill="#FA4051"/>
<path d="M17 2H12.25C10.455 2 9 3.47 9 5.281V10.077H17V2Z" fill="#1939C9"/>
<path fill-rule="evenodd" clip-rule="evenodd" d="M11.6128 2.721L11.6748 2.908L11.8718 2.91C11.8968 2.91 11.9078 2.942 11.8868 2.957L11.7288 3.074L11.7888 3.262C11.7904 3.26733 11.7903 3.27302 11.7885 3.27828C11.7867 3.28354 11.7834 3.28813 11.7789 3.29141C11.7744 3.29469 11.769 3.29651 11.7634 3.29661C11.7579 3.29672 11.7524 3.29511 11.7478 3.292L11.5878 3.177L11.4278 3.291C11.4232 3.29376 11.4179 3.29509 11.4126 3.29481C11.4072 3.29453 11.402 3.29266 11.3977 3.28944C11.3935 3.28622 11.3902 3.2818 11.3885 3.27674C11.3867 3.27167 11.3865 3.26619 11.3878 3.261L11.4458 3.074L11.2878 2.957C11.2833 2.95374 11.28 2.94912 11.2784 2.94383C11.2767 2.93855 11.2767 2.93286 11.2785 2.92762C11.2803 2.92237 11.2837 2.91783 11.2883 2.91466C11.2928 2.91149 11.2983 2.90986 11.3038 2.91L11.4998 2.908L11.5628 2.721C11.5649 2.71604 11.5683 2.71178 11.5728 2.70879C11.5772 2.7058 11.5825 2.7042 11.5878 2.7042C11.5932 2.7042 11.5984 2.7058 11.6029 2.70879C11.6073 2.71178 11.6108 2.71604 11.6128 2.721ZM9.86983 3.262C9.86826 3.26733 9.86838 3.27302 9.87016 3.27828C9.87194 3.28354 9.87531 3.28813 9.87979 3.29141C9.88427 3.29469 9.88966 3.29651 9.89522 3.29661C9.90077 3.29672 9.90622 3.29511 9.91083 3.292L10.0708 3.177L10.2308 3.292C10.2354 3.29476 10.2408 3.29609 10.2461 3.29581C10.2515 3.29553 10.2566 3.29366 10.2609 3.29044C10.2652 3.28723 10.2684 3.2828 10.2702 3.27774C10.272 3.27267 10.2722 3.26719 10.2708 3.262L10.2128 3.075L10.3708 2.958C10.3751 2.95455 10.3782 2.94986 10.3798 2.94458C10.3813 2.9393 10.3812 2.93367 10.3795 2.92845C10.3778 2.92323 10.3745 2.91866 10.3701 2.91536C10.3656 2.91207 10.3603 2.9102 10.3548 2.91L10.1588 2.908L10.1248 2.808C10.0406 2.88154 9.96016 2.9593 9.88383 3.041L9.92983 3.075L9.86983 3.262ZM10.0958 4.278L10.1588 4.465L10.3548 4.466C10.3808 4.466 10.3908 4.499 10.3708 4.514L10.2128 4.631L10.2718 4.818C10.2732 4.82319 10.273 4.82867 10.2712 4.83374C10.2694 4.8388 10.2662 4.84323 10.2619 4.84644C10.2576 4.84966 10.2525 4.85153 10.2471 4.85181C10.2418 4.85209 10.2364 4.85076 10.2318 4.848L10.0718 4.733L9.91183 4.848C9.90724 4.85151 9.90165 4.85345 9.89587 4.85354C9.8901 4.85363 9.88445 4.85187 9.87975 4.84851C9.87505 4.84516 9.87155 4.84038 9.86977 4.83489C9.86798 4.8294 9.868 4.82348 9.86983 4.818L9.92983 4.631L9.77183 4.514C9.76759 4.51061 9.76448 4.50601 9.76289 4.50081C9.76131 4.49562 9.76133 4.49007 9.76295 4.48488C9.76457 4.4797 9.76771 4.47512 9.77197 4.47176C9.77624 4.46839 9.78141 4.46638 9.78683 4.466L9.98383 4.465L10.0458 4.278C10.0538 4.254 10.0878 4.254 10.0958 4.278ZM10.1588 6.191L10.0958 6.005C10.0878 5.98 10.0538 5.98 10.0458 6.005L9.98383 6.191L9.78683 6.193C9.78141 6.19338 9.77624 6.19539 9.77197 6.19876C9.76771 6.20212 9.76457 6.2067 9.76295 6.21188C9.76133 6.21707 9.76131 6.22262 9.76289 6.22781C9.76448 6.23301 9.76759 6.23761 9.77183 6.241L9.92983 6.358L9.86983 6.545C9.86826 6.55033 9.86838 6.55602 9.87016 6.56128C9.87194 6.56654 9.87531 6.57113 9.87979 6.57441C9.88427 6.57769 9.88966 6.57951 9.89522 6.57961C9.90077 6.57972 9.90622 6.57811 9.91083 6.575L10.0708 6.46L10.2308 6.575C10.2518 6.589 10.2798 6.569 10.2718 6.545L10.2118 6.357L10.3708 6.241C10.3751 6.23755 10.3782 6.23286 10.3798 6.22758C10.3813 6.2223 10.3812 6.21667 10.3795 6.21145C10.3778 6.20623 10.3745 6.20166 10.3701 6.19836C10.3656 6.19507 10.3603 6.1932 10.3548 6.193L10.1588 6.191ZM10.0958 7.591L10.1588 7.778L10.3548 7.78C10.3808 7.78 10.3908 7.812 10.3708 7.827L10.2128 7.944L10.2718 8.132C10.2738 8.13728 10.2741 8.14307 10.2725 8.1485C10.271 8.15393 10.2677 8.1587 10.2631 8.16209C10.2586 8.16548 10.2531 8.16731 10.2475 8.16729C10.2418 8.16727 10.2363 8.16542 10.2318 8.162L10.0718 8.047L9.91183 8.161C9.90754 8.16568 9.90169 8.16863 9.89537 8.16929C9.88906 8.16995 9.88272 8.16828 9.87756 8.16459C9.87239 8.1609 9.86875 8.15545 9.86733 8.14926C9.86591 8.14307 9.8668 8.13658 9.86983 8.131L9.92983 7.944L9.77183 7.827C9.76793 7.82353 9.76512 7.819 9.76375 7.81397C9.76237 7.80893 9.76248 7.80361 9.76407 7.79863C9.76565 7.79366 9.76865 7.78925 9.77269 7.78594C9.77673 7.78264 9.78164 7.78057 9.78683 7.78L9.98383 7.778L10.0458 7.591C10.0538 7.567 10.0878 7.567 10.0958 7.591ZM10.1588 9.221L10.0958 9.034C10.0878 9.01 10.0538 9.01 10.0458 9.034L9.98383 9.221L9.78683 9.223C9.78164 9.22357 9.77673 9.22564 9.77269 9.22894C9.76865 9.23225 9.76565 9.23666 9.76407 9.24163C9.76248 9.2466 9.76237 9.25193 9.76375 9.25697C9.76512 9.262 9.76793 9.26653 9.77183 9.27L9.92983 9.387L9.86983 9.575C9.86826 9.58033 9.86838 9.58602 9.87016 9.59128C9.87194 9.59654 9.87531 9.60113 9.87979 9.60441C9.88427 9.60769 9.88966 9.60951 9.89522 9.60961C9.90077 9.60972 9.90622 9.60811 9.91083 9.605L10.0708 9.49L10.2308 9.604C10.2354 9.60711 10.2409 9.60872 10.2464 9.60861C10.252 9.60851 10.2574 9.60669 10.2619 9.60341C10.2664 9.60013 10.2697 9.59554 10.2715 9.59028C10.2733 9.58502 10.2734 9.57933 10.2718 9.574L10.2118 9.387L10.3708 9.27C10.3748 9.26647 10.3776 9.26186 10.3789 9.25674C10.3802 9.25162 10.38 9.24623 10.3783 9.24122C10.3766 9.23622 10.3735 9.23182 10.3693 9.22858C10.3651 9.22535 10.3601 9.2234 10.3548 9.223L10.1588 9.221ZM10.8528 3.459L10.9148 3.645L11.1118 3.647C11.1378 3.647 11.1478 3.679 11.1278 3.695L10.9688 3.811L11.0288 3.999C11.0304 4.00433 11.0303 4.01002 11.0285 4.01528C11.0267 4.02054 11.0234 4.02513 11.0189 4.02841C11.0144 4.03169 11.009 4.03351 11.0034 4.03361C10.9979 4.03372 10.9924 4.03211 10.9878 4.029L10.8278 3.914L10.6678 4.028C10.6632 4.03076 10.6579 4.03209 10.6526 4.03181C10.6472 4.03153 10.642 4.02966 10.6377 4.02644C10.6335 4.02323 10.6302 4.0188 10.6285 4.01374C10.6267 4.00867 10.6265 4.00319 10.6278 3.998L10.6868 3.811L10.5278 3.695C10.5235 3.69155 10.5204 3.68686 10.5189 3.68158C10.5173 3.6763 10.5174 3.67067 10.5192 3.66545C10.5209 3.66023 10.5242 3.65566 10.5286 3.65236C10.533 3.64907 10.5383 3.6472 10.5438 3.647L10.7408 3.645L10.8028 3.459C10.8049 3.45403 10.8083 3.44978 10.8128 3.44679C10.8172 3.4438 10.8225 3.4422 10.8278 3.4422C10.8332 3.4422 10.8384 3.4438 10.8429 3.44679C10.8473 3.44978 10.8508 3.45403 10.8528 3.459ZM10.9158 5.371L10.8528 5.185C10.8448 5.161 10.8108 5.161 10.8028 5.185L10.7408 5.371L10.5438 5.373C10.5383 5.3732 10.533 5.37507 10.5286 5.37836C10.5242 5.38166 10.5209 5.38623 10.5192 5.39145C10.5174 5.39667 10.5173 5.4023 10.5189 5.40758C10.5204 5.41286 10.5235 5.41755 10.5278 5.421L10.6868 5.538L10.6268 5.725C10.6244 5.73043 10.624 5.73651 10.6255 5.74224C10.627 5.74797 10.6305 5.75301 10.6353 5.75651C10.64 5.76001 10.6459 5.76177 10.6518 5.7615C10.6577 5.76122 10.6634 5.75893 10.6678 5.755L10.8278 5.64L10.9878 5.755C10.9923 5.75842 10.9978 5.76027 11.0035 5.76029C11.0091 5.7603 11.0146 5.75848 11.0191 5.75509C11.0237 5.7517 11.027 5.74693 11.0285 5.7415C11.0301 5.73607 11.0298 5.73028 11.0278 5.725L10.9688 5.538L11.1278 5.421C11.1321 5.41755 11.1352 5.41286 11.1368 5.40758C11.1383 5.4023 11.1382 5.39667 11.1365 5.39145C11.1348 5.38623 11.1315 5.38166 11.1271 5.37836C11.1226 5.37507 11.1173 5.3732 11.1118 5.373L10.9148 5.371H10.9158ZM10.8528 6.825L10.9158 7.012L11.1118 7.013C11.1378 7.013 11.1478 7.046 11.1278 7.061L10.9688 7.178L11.0288 7.366C11.0302 7.37119 11.03 7.37667 11.0282 7.38174C11.0264 7.3868 11.0232 7.39123 11.0189 7.39444C11.0146 7.39766 11.0095 7.39953 11.0041 7.39981C10.9988 7.40009 10.9934 7.39876 10.9888 7.396L10.8278 7.281L10.6678 7.395C10.6632 7.39776 10.6579 7.39909 10.6526 7.39881C10.6472 7.39853 10.642 7.39666 10.6377 7.39344C10.6335 7.39022 10.6302 7.3858 10.6285 7.38074C10.6267 7.37567 10.6265 7.37019 10.6278 7.365L10.6868 7.178L10.5278 7.061C10.5229 7.05792 10.5191 7.05325 10.5171 7.04775C10.5151 7.04224 10.515 7.03623 10.5169 7.03068C10.5187 7.02513 10.5224 7.02036 10.5273 7.01715C10.5322 7.01395 10.538 7.01248 10.5438 7.013L10.7408 7.012L10.8028 6.825C10.8108 6.801 10.8448 6.801 10.8528 6.825ZM10.9158 8.485L10.8528 8.299C10.8448 8.275 10.8108 8.275 10.8028 8.299L10.7408 8.485L10.5438 8.487C10.538 8.48648 10.5322 8.48795 10.5273 8.49115C10.5224 8.49436 10.5187 8.49913 10.5169 8.50468C10.515 8.51023 10.5151 8.51624 10.5171 8.52175C10.5191 8.52725 10.5229 8.53192 10.5278 8.535L10.6868 8.652L10.6268 8.839C10.6198 8.863 10.6468 8.883 10.6678 8.869L10.8278 8.754L10.9878 8.869C11.0078 8.883 11.0368 8.863 11.0278 8.839L10.9688 8.651L11.1278 8.535C11.1328 8.53192 11.1366 8.52725 11.1386 8.52175C11.1406 8.51624 11.1407 8.51023 11.1388 8.50468C11.137 8.49913 11.1333 8.49436 11.1284 8.49115C11.1235 8.48795 11.1177 8.48648 11.1118 8.487L10.9148 8.485H10.9158ZM11.6758 4.465L11.6128 4.278C11.6108 4.27304 11.6073 4.26878 11.6029 4.26579C11.5984 4.2628 11.5932 4.2612 11.5878 4.2612C11.5825 4.2612 11.5772 4.2628 11.5728 4.26579C11.5683 4.26878 11.5649 4.27304 11.5628 4.278L11.4998 4.465L11.3038 4.466C11.298 4.46548 11.2922 4.46695 11.2873 4.47015C11.2824 4.47336 11.2787 4.47813 11.2769 4.48368C11.275 4.48923 11.2751 4.49524 11.2771 4.50075C11.2791 4.50625 11.2829 4.51092 11.2878 4.514L11.4458 4.631L11.3868 4.818C11.3855 4.82319 11.3857 4.82867 11.3875 4.83374C11.3892 4.8388 11.3925 4.84323 11.3967 4.84644C11.401 4.84966 11.4062 4.85153 11.4116 4.85181C11.4169 4.85209 11.4222 4.85076 11.4268 4.848L11.5868 4.733L11.7468 4.848C11.7514 4.85151 11.757 4.85345 11.7628 4.85354C11.7686 4.85363 11.7742 4.85187 11.7789 4.84851C11.7836 4.84516 11.7871 4.84038 11.7889 4.83489C11.7907 4.8294 11.7907 4.82348 11.7888 4.818L11.7288 4.631L11.8878 4.514C11.8921 4.51055 11.8952 4.50586 11.8968 4.50058C11.8983 4.4953 11.8982 4.48967 11.8965 4.48445C11.8948 4.47923 11.8915 4.47466 11.8871 4.47136C11.8826 4.46807 11.8773 4.4662 11.8718 4.466L11.6758 4.465ZM11.6128 6.005L11.6748 6.191L11.8718 6.193C11.8968 6.193 11.9078 6.226 11.8868 6.241L11.7288 6.358L11.7888 6.545C11.7904 6.55033 11.7903 6.55602 11.7885 6.56128C11.7867 6.56654 11.7834 6.57113 11.7789 6.57441C11.7744 6.57769 11.769 6.57951 11.7634 6.57961C11.7579 6.57972 11.7524 6.57811 11.7478 6.575L11.5878 6.46L11.4278 6.575C11.4232 6.57776 11.4179 6.57909 11.4126 6.57881C11.4072 6.57853 11.402 6.57666 11.3977 6.57344C11.3935 6.57023 11.3902 6.5658 11.3885 6.56074C11.3867 6.55567 11.3865 6.55019 11.3878 6.545L11.4458 6.357L11.2878 6.241C11.2835 6.23755 11.2804 6.23286 11.2789 6.22758C11.2773 6.2223 11.2774 6.21667 11.2792 6.21145C11.2809 6.20623 11.2842 6.20166 11.2886 6.19836C11.293 6.19507 11.2983 6.1932 11.3038 6.193L11.4998 6.191L11.5628 6.005C11.5649 6.00004 11.5683 5.99578 11.5728 5.99279C11.5772 5.9898 11.5825 5.9882 11.5878 5.9882C11.5932 5.9882 11.5984 5.9898 11.6029 5.99279C11.6073 5.99578 11.6108 6.00004 11.6128 6.005ZM11.6748 7.778L11.6128 7.591C11.6108 7.58603 11.6073 7.58178 11.6029 7.57879C11.5984 7.5758 11.5932 7.5742 11.5878 7.5742C11.5825 7.5742 11.5772 7.5758 11.5728 7.57879C11.5683 7.58178 11.5649 7.58603 11.5628 7.591L11.4998 7.778L11.3038 7.78C11.2986 7.7804 11.2935 7.78235 11.2893 7.78558C11.2852 7.78882 11.282 7.79322 11.2803 7.79822C11.2786 7.80323 11.2784 7.80862 11.2798 7.81374C11.2811 7.81886 11.2839 7.82347 11.2878 7.827L11.4458 7.944L11.3868 8.132C11.3848 8.13728 11.3846 8.14307 11.3861 8.1485C11.3877 8.15393 11.391 8.1587 11.3955 8.16209C11.4 8.16548 11.4055 8.16731 11.4112 8.16729C11.4168 8.16727 11.4223 8.16542 11.4268 8.162L11.5868 8.047L11.7468 8.161C11.7511 8.16568 11.757 8.16863 11.7633 8.16929C11.7696 8.16995 11.7759 8.16828 11.7811 8.16459C11.7863 8.1609 11.7899 8.15545 11.7913 8.14926C11.7928 8.14307 11.7919 8.13658 11.7888 8.131L11.7288 7.944L11.8878 7.827C11.8918 7.82347 11.8946 7.81886 11.8959 7.81374C11.8972 7.80862 11.897 7.80323 11.8953 7.79822C11.8936 7.79322 11.8905 7.78882 11.8863 7.78558C11.8821 7.78235 11.8771 7.7804 11.8718 7.78L11.6748 7.778ZM11.6128 9.034L11.6748 9.221L11.8718 9.223C11.8968 9.223 11.9078 9.255 11.8868 9.27L11.7288 9.387L11.7888 9.575C11.7904 9.58033 11.7903 9.58602 11.7885 9.59128C11.7867 9.59654 11.7834 9.60113 11.7789 9.60441C11.7744 9.60769 11.769 9.60951 11.7634 9.60961C11.7579 9.60972 11.7524 9.60811 11.7478 9.605L11.5878 9.49L11.4278 9.604C11.4232 9.60676 11.4179 9.60809 11.4126 9.60781C11.4072 9.60753 11.402 9.60566 11.3977 9.60244C11.3935 9.59923 11.3902 9.5948 11.3885 9.58974C11.3867 9.58467 11.3865 9.57919 11.3878 9.574L11.4458 9.387L11.2878 9.27C11.2839 9.26647 11.2811 9.26186 11.2798 9.25674C11.2784 9.25162 11.2786 9.24623 11.2803 9.24122C11.282 9.23622 11.2852 9.23182 11.2893 9.22858C11.2935 9.22535 11.2986 9.2234 11.3038 9.223L11.4998 9.221L11.5628 9.034C11.5649 9.02904 11.5683 9.02478 11.5728 9.02179C11.5772 9.0188 11.5825 9.0172 11.5878 9.0172C11.5932 9.0172 11.5984 9.0188 11.6029 9.02179C11.6073 9.02478 11.6108 9.02904 11.6128 9.034ZM12.4308 3.645L12.3688 3.459C12.3668 3.45403 12.3633 3.44978 12.3589 3.44679C12.3544 3.4438 12.3492 3.4422 12.3438 3.4422C12.3385 3.4422 12.3332 3.4438 12.3288 3.44679C12.3243 3.44978 12.3209 3.45403 12.3188 3.459L12.2558 3.645L12.0598 3.647C12.0543 3.6472 12.049 3.64907 12.0446 3.65236C12.0402 3.65566 12.0369 3.66023 12.0352 3.66545C12.0334 3.67067 12.0333 3.6763 12.0349 3.68158C12.0364 3.68686 12.0395 3.69155 12.0438 3.695L12.2018 3.811L12.1418 3.999C12.14 4.00448 12.14 4.0104 12.1418 4.01589C12.1436 4.02138 12.1471 4.02616 12.1518 4.02952C12.1564 4.03287 12.1621 4.03463 12.1679 4.03454C12.1736 4.03445 12.1792 4.03251 12.1838 4.029L12.3438 3.914L12.5038 4.028C12.5084 4.03076 12.5138 4.03209 12.5191 4.03181C12.5245 4.03153 12.5296 4.02966 12.5339 4.02644C12.5382 4.02323 12.5414 4.0188 12.5432 4.01374C12.545 4.00867 12.5452 4.00319 12.5438 3.998L12.4848 3.811L12.6428 3.695C12.6477 3.69195 12.6514 3.68737 12.6534 3.68199C12.6554 3.6766 12.6555 3.6707 12.6538 3.66522C12.6521 3.65974 12.6486 3.65498 12.6439 3.65168C12.6392 3.64839 12.6336 3.64674 12.6278 3.647L12.4308 3.645ZM12.3688 5.185L12.4308 5.371L12.6278 5.373C12.6528 5.373 12.6638 5.406 12.6428 5.421L12.4848 5.538L12.5448 5.725C12.5472 5.73043 12.5477 5.73651 12.5462 5.74224C12.5446 5.74797 12.5412 5.75301 12.5364 5.75651C12.5316 5.76001 12.5258 5.76177 12.5199 5.7615C12.5139 5.76122 12.5083 5.75893 12.5038 5.755L12.3438 5.64L12.1838 5.755C12.1628 5.77 12.1348 5.75 12.1428 5.725L12.2028 5.538L12.0438 5.421C12.0395 5.41755 12.0364 5.41286 12.0349 5.40758C12.0333 5.4023 12.0334 5.39667 12.0352 5.39145C12.0369 5.38623 12.0402 5.38166 12.0446 5.37836C12.049 5.37507 12.0543 5.3732 12.0598 5.373L12.2558 5.371L12.3188 5.185C12.3209 5.18004 12.3243 5.17578 12.3288 5.17279C12.3332 5.1698 12.3385 5.1682 12.3438 5.1682C12.3492 5.1682 12.3544 5.1698 12.3589 5.17279C12.3633 5.17578 12.3668 5.18004 12.3688 5.185ZM12.4308 7.012L12.3688 6.825C12.3668 6.82003 12.3633 6.81578 12.3589 6.81279C12.3544 6.8098 12.3492 6.8082 12.3438 6.8082C12.3385 6.8082 12.3332 6.8098 12.3288 6.81279C12.3243 6.81578 12.3209 6.82003 12.3188 6.825L12.2558 7.012L12.0598 7.013C12.054 7.01248 12.0482 7.01395 12.0433 7.01715C12.0384 7.02036 12.0347 7.02513 12.0329 7.03068C12.031 7.03623 12.0311 7.04224 12.0331 7.04775C12.0351 7.05325 12.0389 7.05792 12.0438 7.061L12.2018 7.178L12.1418 7.366C12.1348 7.39 12.1618 7.41 12.1838 7.396L12.3438 7.281L12.5038 7.395C12.5084 7.39776 12.5138 7.39909 12.5191 7.39881C12.5245 7.39853 12.5296 7.39666 12.5339 7.39344C12.5382 7.39022 12.5414 7.3858 12.5432 7.38074C12.545 7.37567 12.5452 7.37019 12.5438 7.365L12.4848 7.178L12.6428 7.061C12.6477 7.05795 12.6514 7.05337 12.6534 7.04799C12.6554 7.0426 12.6555 7.0367 12.6538 7.03122C12.6521 7.02574 12.6486 7.02098 12.6439 7.01768C12.6392 7.01439 12.6336 7.01274 12.6278 7.013L12.4308 7.012ZM12.3688 8.299L12.4308 8.485L12.6278 8.487C12.6528 8.487 12.6638 8.52 12.6428 8.535L12.4848 8.652L12.5448 8.839C12.5472 8.84443 12.5477 8.85051 12.5462 8.85624C12.5446 8.86197 12.5412 8.86701 12.5364 8.87051C12.5316 8.87401 12.5258 8.87577 12.5199 8.8755C12.5139 8.87523 12.5083 8.87293 12.5038 8.869L12.3438 8.754L12.1838 8.869C12.1792 8.87211 12.1738 8.87372 12.1682 8.87361C12.1627 8.87351 12.1573 8.87169 12.1528 8.86841C12.1483 8.86513 12.1449 8.86054 12.1432 8.85528C12.1414 8.85002 12.1413 8.84433 12.1428 8.839L12.2028 8.651L12.0438 8.535C12.0389 8.53192 12.0351 8.52725 12.0331 8.52175C12.0311 8.51624 12.031 8.51023 12.0329 8.50468C12.0347 8.49913 12.0384 8.49436 12.0433 8.49115C12.0482 8.48795 12.054 8.48648 12.0598 8.487L12.2558 8.485L12.3188 8.299C12.3209 8.29403 12.3243 8.28978 12.3288 8.28679C12.3332 8.2838 12.3385 8.2822 12.3438 8.2822C12.3492 8.2822 12.3544 8.2838 12.3589 8.28679C12.3633 8.28978 12.3668 8.29403 12.3688 8.299ZM13.1908 2.909L13.1288 2.721C13.1208 2.697 13.0858 2.697 13.0788 2.721L13.0158 2.908L12.8188 2.91C12.8134 2.91007 12.8081 2.91186 12.8037 2.9151C12.7993 2.91835 12.796 2.9229 12.7944 2.9281C12.7927 2.9333 12.7927 2.93889 12.7944 2.94407C12.7961 2.94926 12.7994 2.95379 12.8038 2.957L12.9618 3.074L12.9018 3.262C12.9003 3.26733 12.9004 3.27302 12.9022 3.27828C12.9039 3.28354 12.9073 3.28813 12.9118 3.29141C12.9163 3.29469 12.9217 3.29651 12.9272 3.29661C12.9328 3.29672 12.9382 3.29511 12.9428 3.292L13.1028 3.177L13.2628 3.291C13.2674 3.29411 13.2729 3.29572 13.2784 3.29561C13.284 3.29551 13.2894 3.29369 13.2939 3.29041C13.2984 3.28713 13.3017 3.28254 13.3035 3.27728C13.3053 3.27202 13.3054 3.26633 13.3038 3.261L13.2438 3.074L13.4038 2.957C13.4078 2.95341 13.4106 2.94871 13.4119 2.94351C13.4132 2.93831 13.4129 2.93284 13.4111 2.9278C13.4093 2.92276 13.406 2.91837 13.4017 2.9152C13.3974 2.91203 13.3922 2.91022 13.3868 2.91L13.1908 2.909ZM13.1288 4.278L13.1908 4.465L13.3868 4.466C13.4128 4.466 13.4238 4.499 13.4028 4.514L13.2448 4.631L13.3048 4.818C13.3064 4.82333 13.3063 4.82902 13.3045 4.83428C13.3027 4.83954 13.2994 4.84413 13.2949 4.84741C13.2904 4.85069 13.285 4.85251 13.2794 4.85261C13.2739 4.85272 13.2684 4.85111 13.2638 4.848L13.1038 4.733L12.9438 4.848C12.9392 4.85111 12.9338 4.85272 12.9282 4.85261C12.9227 4.85251 12.9173 4.85069 12.9128 4.84741C12.9083 4.84413 12.9049 4.83954 12.9032 4.83428C12.9014 4.82902 12.9013 4.82333 12.9028 4.818L12.9618 4.631L12.8038 4.514C12.7996 4.51061 12.7965 4.50601 12.7949 4.50081C12.7933 4.49562 12.7933 4.49007 12.7949 4.48488C12.7966 4.4797 12.7997 4.47512 12.804 4.47176C12.8082 4.46839 12.8134 4.46638 12.8188 4.466L13.0158 4.464L13.0778 4.278C13.0799 4.27304 13.0833 4.26878 13.0878 4.26579C13.0922 4.2628 13.0975 4.2612 13.1028 4.2612C13.1082 4.2612 13.1134 4.2628 13.1179 4.26579C13.1223 4.26878 13.1268 4.27304 13.1288 4.278ZM13.1908 6.191L13.1288 6.005C13.1273 5.99957 13.124 5.99479 13.1195 5.99139C13.115 5.98798 13.1095 5.98614 13.1038 5.98614C13.0982 5.98614 13.0927 5.98798 13.0882 5.99139C13.0837 5.99479 13.0804 5.99957 13.0788 6.005L13.0158 6.191L12.8188 6.193C12.8134 6.19338 12.8082 6.19539 12.804 6.19876C12.7997 6.20212 12.7966 6.2067 12.7949 6.21188C12.7933 6.21707 12.7933 6.22262 12.7949 6.22781C12.7965 6.23301 12.7996 6.23761 12.8038 6.241L12.9618 6.358L12.9018 6.545C12.9003 6.55033 12.9004 6.55602 12.9022 6.56128C12.9039 6.56654 12.9073 6.57113 12.9118 6.57441C12.9163 6.57769 12.9217 6.57951 12.9272 6.57961C12.9328 6.57972 12.9382 6.57811 12.9428 6.575L13.1028 6.46L13.2628 6.575C13.2838 6.589 13.3118 6.569 13.3038 6.545L13.2438 6.357L13.4038 6.241C13.4082 6.23749 13.4113 6.23272 13.4128 6.22734C13.4144 6.22197 13.4142 6.21625 13.4123 6.21099C13.4104 6.20572 13.407 6.20117 13.4024 6.19794C13.3979 6.19472 13.3924 6.193 13.3868 6.193L13.1908 6.191ZM13.1288 7.591L13.1908 7.778L13.3868 7.78C13.4128 7.78 13.4238 7.812 13.4028 7.827L13.2448 7.944L13.3048 8.132C13.3072 8.13743 13.3077 8.14351 13.3062 8.14924C13.3046 8.15497 13.3012 8.16001 13.2964 8.16351C13.2916 8.16701 13.2858 8.16877 13.2799 8.1685C13.2739 8.16823 13.2683 8.16593 13.2638 8.162L13.1038 8.047L12.9438 8.161C12.9394 8.16493 12.9337 8.16723 12.9278 8.1675C12.9219 8.16777 12.916 8.16601 12.9113 8.16251C12.9065 8.15901 12.903 8.15397 12.9015 8.14824C12.9 8.14251 12.9004 8.13643 12.9028 8.131L12.9618 7.944L12.8038 7.827C12.7999 7.82353 12.7971 7.819 12.7957 7.81397C12.7944 7.80893 12.7945 7.80361 12.7961 7.79863C12.7977 7.79366 12.8006 7.78925 12.8047 7.78594C12.8087 7.78264 12.8136 7.78057 12.8188 7.78L13.0158 7.778L13.0778 7.591C13.0794 7.58557 13.0827 7.58079 13.0872 7.57739C13.0917 7.57399 13.0972 7.57214 13.1028 7.57214C13.1085 7.57214 13.114 7.57399 13.1185 7.57739C13.123 7.58079 13.1273 7.58557 13.1288 7.591ZM13.1908 9.221L13.1288 9.034C13.1273 9.02857 13.124 9.02379 13.1195 9.02039C13.115 9.01698 13.1095 9.01514 13.1038 9.01514C13.0982 9.01514 13.0927 9.01698 13.0882 9.02039C13.0837 9.02379 13.0804 9.02857 13.0788 9.034L13.0158 9.221L12.8188 9.223C12.8136 9.22357 12.8087 9.22564 12.8047 9.22894C12.8006 9.23225 12.7977 9.23666 12.7961 9.24163C12.7945 9.2466 12.7944 9.25193 12.7957 9.25697C12.7971 9.262 12.7999 9.26653 12.8038 9.27L12.9618 9.387L12.9018 9.575C12.8948 9.599 12.9218 9.619 12.9428 9.605L13.1028 9.49L13.2628 9.604C13.2674 9.60711 13.2729 9.60872 13.2784 9.60861C13.284 9.60851 13.2894 9.60669 13.2939 9.60341C13.2984 9.60013 13.3017 9.59554 13.3035 9.59028C13.3053 9.58502 13.3054 9.57933 13.3038 9.574L13.2438 9.387L13.4038 9.27C13.4078 9.26641 13.4106 9.26171 13.4119 9.25651C13.4132 9.25131 13.4129 9.24584 13.4111 9.2408C13.4093 9.23576 13.406 9.23137 13.4017 9.2282C13.3974 9.22503 13.3922 9.22322 13.3868 9.223L13.1908 9.221ZM13.8848 3.459L13.9478 3.645L14.1438 3.647C14.1698 3.647 14.1798 3.679 14.1598 3.695L14.0018 3.811L14.0608 3.999C14.0622 4.00419 14.062 4.00967 14.0602 4.01474C14.0584 4.0198 14.0552 4.02423 14.0509 4.02744C14.0466 4.03066 14.0415 4.03253 14.0361 4.03281C14.0308 4.03309 14.0254 4.03176 14.0208 4.029L13.8608 3.914L13.7008 4.028C13.6962 4.03151 13.6906 4.03345 13.6849 4.03354C13.6791 4.03363 13.6734 4.03187 13.6687 4.02851C13.6641 4.02516 13.6606 4.02038 13.6588 4.01489C13.657 4.0094 13.657 4.00348 13.6588 3.998L13.7188 3.811L13.5608 3.695C13.5566 3.69161 13.5535 3.68701 13.5519 3.68181C13.5503 3.67662 13.5503 3.67107 13.5519 3.66588C13.5536 3.6607 13.5567 3.65612 13.561 3.65276C13.5652 3.64939 13.5704 3.64738 13.5758 3.647L13.7728 3.645L13.8348 3.459C13.8369 3.45403 13.8403 3.44978 13.8448 3.44679C13.8492 3.4438 13.8545 3.4422 13.8598 3.4422C13.8652 3.4422 13.8704 3.4438 13.8749 3.44679C13.8793 3.44978 13.8828 3.45403 13.8848 3.459ZM13.9478 5.371L13.8848 5.185C13.8828 5.18004 13.8793 5.17578 13.8749 5.17279C13.8704 5.1698 13.8652 5.1682 13.8598 5.1682C13.8545 5.1682 13.8492 5.1698 13.8448 5.17279C13.8403 5.17578 13.8369 5.18004 13.8348 5.185L13.7728 5.371L13.5758 5.373C13.5704 5.37338 13.5652 5.37539 13.561 5.37876C13.5567 5.38212 13.5536 5.3867 13.5519 5.39188C13.5503 5.39707 13.5503 5.40262 13.5519 5.40781C13.5535 5.41301 13.5566 5.4176 13.5608 5.421L13.7188 5.538L13.6588 5.725C13.6564 5.73043 13.656 5.73651 13.6575 5.74224C13.659 5.74797 13.6625 5.75301 13.6673 5.75651C13.672 5.76001 13.6779 5.76177 13.6838 5.7615C13.6897 5.76122 13.6954 5.75893 13.6998 5.755L13.8598 5.64L14.0198 5.755C14.0243 5.75893 14.0299 5.76122 14.0359 5.7615C14.0418 5.76177 14.0476 5.76001 14.0524 5.75651C14.0572 5.75301 14.0606 5.74797 14.0622 5.74224C14.0637 5.73651 14.0632 5.73043 14.0608 5.725L14.0008 5.538L14.1598 5.421C14.1641 5.41755 14.1672 5.41286 14.1688 5.40758C14.1703 5.4023 14.1702 5.39667 14.1685 5.39145C14.1668 5.38623 14.1635 5.38166 14.159 5.37836C14.1546 5.37507 14.1493 5.3732 14.1438 5.373L13.9478 5.371ZM13.8848 6.825L13.9478 7.012L14.1438 7.013C14.1698 7.013 14.1798 7.046 14.1598 7.061L14.0018 7.178L14.0608 7.366C14.0622 7.37119 14.062 7.37667 14.0602 7.38174C14.0584 7.3868 14.0552 7.39123 14.0509 7.39444C14.0466 7.39766 14.0415 7.39953 14.0361 7.39981C14.0308 7.40009 14.0254 7.39876 14.0208 7.396L13.8608 7.281L13.7008 7.395C13.6962 7.39851 13.6906 7.40045 13.6849 7.40054C13.6791 7.40063 13.6734 7.39887 13.6687 7.39551C13.6641 7.39216 13.6606 7.38738 13.6588 7.38189C13.657 7.3764 13.657 7.37048 13.6588 7.365L13.7188 7.178L13.5608 7.061C13.556 7.05795 13.5522 7.05337 13.5503 7.04799C13.5483 7.0426 13.5481 7.0367 13.5498 7.03122C13.5515 7.02574 13.555 7.02098 13.5597 7.01768C13.5644 7.01439 13.5701 7.01274 13.5758 7.013L13.7728 7.012L13.8348 6.825C13.8369 6.82003 13.8403 6.81578 13.8448 6.81279C13.8492 6.8098 13.8545 6.8082 13.8598 6.8082C13.8652 6.8082 13.8704 6.8098 13.8749 6.81279C13.8793 6.81578 13.8828 6.82003 13.8848 6.825ZM13.9478 8.485L13.8848 8.299C13.8828 8.29403 13.8793 8.28978 13.8749 8.28679C13.8704 8.2838 13.8652 8.2822 13.8598 8.2822C13.8545 8.2822 13.8492 8.2838 13.8448 8.28679C13.8403 8.28978 13.8369 8.29403 13.8348 8.299L13.7728 8.485L13.5758 8.487C13.5701 8.48674 13.5644 8.48839 13.5597 8.49168C13.555 8.49498 13.5515 8.49974 13.5498 8.50522C13.5481 8.5107 13.5483 8.5166 13.5503 8.52199C13.5522 8.52737 13.556 8.53195 13.5608 8.535L13.7188 8.652L13.6588 8.839C13.6518 8.863 13.6788 8.883 13.6998 8.869L13.8598 8.754L14.0198 8.869C14.0408 8.883 14.0688 8.863 14.0608 8.839L14.0008 8.651L14.1598 8.535C14.1648 8.53192 14.1686 8.52725 14.1706 8.52175C14.1726 8.51624 14.1727 8.51023 14.1708 8.50468C14.169 8.49913 14.1653 8.49436 14.1604 8.49115C14.1555 8.48795 14.1497 8.48648 14.1438 8.487L13.9478 8.485ZM14.6428 2.721L14.7058 2.908L14.9018 2.91C14.9278 2.91 14.9378 2.942 14.9178 2.957L14.7588 3.074L14.8188 3.262C14.8208 3.26728 14.8211 3.27307 14.8195 3.2785C14.818 3.28393 14.8147 3.2887 14.8101 3.29209C14.8056 3.29548 14.8001 3.29731 14.7945 3.29729C14.7888 3.29727 14.7833 3.29542 14.7788 3.292L14.6188 3.177L14.4588 3.291C14.4542 3.29451 14.4486 3.29645 14.4429 3.29654C14.4371 3.29663 14.4314 3.29487 14.4268 3.29151C14.4221 3.28816 14.4186 3.28338 14.4168 3.27789C14.415 3.2724 14.415 3.26648 14.4168 3.261L14.4768 3.074L14.3178 2.957C14.3133 2.95374 14.31 2.94912 14.3084 2.94383C14.3067 2.93855 14.3067 2.93286 14.3085 2.92762C14.3103 2.92237 14.3137 2.91783 14.3183 2.91466C14.3228 2.91149 14.3283 2.90986 14.3338 2.91L14.5308 2.908L14.5928 2.721C14.6008 2.697 14.6348 2.697 14.6428 2.721ZM14.7058 4.465L14.6428 4.278C14.6348 4.254 14.6008 4.254 14.5928 4.278L14.5308 4.465L14.3338 4.466C14.3283 4.4662 14.323 4.46807 14.3186 4.47136C14.3142 4.47466 14.3109 4.47923 14.3092 4.48445C14.3074 4.48967 14.3073 4.4953 14.3089 4.50058C14.3104 4.50586 14.3135 4.51055 14.3178 4.514L14.4768 4.631L14.4168 4.818C14.4153 4.82333 14.4154 4.82902 14.4172 4.83428C14.4189 4.83954 14.4223 4.84413 14.4268 4.84741C14.4313 4.85069 14.4367 4.85251 14.4422 4.85261C14.4478 4.85272 14.4532 4.85111 14.4578 4.848L14.6178 4.733L14.7778 4.848C14.7823 4.85142 14.7878 4.85327 14.7935 4.85329C14.7991 4.85331 14.8046 4.85148 14.8091 4.84809C14.8137 4.8447 14.817 4.83993 14.8185 4.8345C14.8201 4.82907 14.8198 4.82328 14.8178 4.818L14.7588 4.631L14.9178 4.514C14.9221 4.51055 14.9252 4.50586 14.9268 4.50058C14.9283 4.4953 14.9282 4.48967 14.9265 4.48445C14.9248 4.47923 14.9215 4.47466 14.9171 4.47136C14.9126 4.46807 14.9073 4.4662 14.9018 4.466L14.7058 4.465ZM14.6428 6.005L14.7058 6.191L14.9018 6.193C14.9278 6.193 14.9378 6.226 14.9178 6.241L14.7588 6.358L14.8188 6.545C14.8208 6.55028 14.8211 6.55607 14.8195 6.5615C14.818 6.56693 14.8147 6.5717 14.8101 6.57509C14.8056 6.57848 14.8001 6.58031 14.7945 6.58029C14.7888 6.58027 14.7833 6.57842 14.7788 6.575L14.6188 6.46L14.4588 6.575C14.4542 6.57851 14.4486 6.58045 14.4429 6.58054C14.4371 6.58063 14.4314 6.57887 14.4268 6.57551C14.4221 6.57216 14.4186 6.56738 14.4168 6.56189C14.415 6.5564 14.415 6.55048 14.4168 6.545L14.4768 6.357L14.3178 6.241C14.3135 6.23755 14.3104 6.23286 14.3089 6.22758C14.3073 6.2223 14.3074 6.21667 14.3092 6.21145C14.3109 6.20623 14.3142 6.20166 14.3186 6.19836C14.323 6.19507 14.3283 6.1932 14.3338 6.193L14.5308 6.191L14.5928 6.005C14.6008 5.98 14.6348 5.98 14.6428 6.005ZM14.7058 7.778L14.6428 7.591C14.6348 7.567 14.6008 7.567 14.5928 7.591L14.5308 7.778L14.3338 7.78C14.3286 7.7804 14.3235 7.78235 14.3193 7.78558C14.3152 7.78882 14.312 7.79322 14.3103 7.79822C14.3086 7.80323 14.3084 7.80862 14.3098 7.81374C14.3111 7.81886 14.3139 7.82347 14.3178 7.827L14.4768 7.944L14.4168 8.132C14.4144 8.13743 14.414 8.14351 14.4155 8.14924C14.417 8.15497 14.4205 8.16001 14.4253 8.16351C14.43 8.16701 14.4359 8.16877 14.4418 8.1685C14.4477 8.16823 14.4534 8.16593 14.4578 8.162L14.6178 8.047L14.7778 8.161C14.7823 8.16442 14.7878 8.16627 14.7935 8.16629C14.7991 8.16631 14.8046 8.16448 14.8091 8.16109C14.8137 8.1577 14.817 8.15293 14.8185 8.1475C14.8201 8.14207 14.8198 8.13628 14.8178 8.131L14.7588 7.944L14.9178 7.827C14.9218 7.82347 14.9246 7.81886 14.9259 7.81374C14.9272 7.80862 14.927 7.80323 14.9253 7.79822C14.9236 7.79322 14.9205 7.78882 14.9163 7.78558C14.9121 7.78235 14.9071 7.7804 14.9018 7.78L14.7058 7.778ZM14.6428 9.034L14.7058 9.221L14.9018 9.223C14.9278 9.223 14.9378 9.255 14.9178 9.27L14.7588 9.387L14.8188 9.575C14.8208 9.58028 14.8211 9.58607 14.8195 9.5915C14.818 9.59693 14.8147 9.6017 14.8101 9.60509C14.8056 9.60848 14.8001 9.61031 14.7945 9.61029C14.7888 9.61027 14.7833 9.60842 14.7788 9.605L14.6188 9.49L14.4588 9.604C14.4542 9.60751 14.4486 9.60945 14.4429 9.60954C14.4371 9.60963 14.4314 9.60787 14.4268 9.60452C14.4221 9.60116 14.4186 9.59638 14.4168 9.59089C14.415 9.5854 14.415 9.57948 14.4168 9.574L14.4768 9.387L14.3178 9.27C14.3139 9.26647 14.3111 9.26186 14.3098 9.25674C14.3084 9.25162 14.3086 9.24623 14.3103 9.24122C14.312 9.23622 14.3152 9.23182 14.3193 9.22858C14.3235 9.22535 14.3286 9.2234 14.3338 9.223L14.5308 9.221L14.5928 9.034C14.6008 9.01 14.6348 9.01 14.6428 9.034ZM15.4608 3.645L15.3998 3.46C15.3978 3.45504 15.3943 3.45078 15.3899 3.44779C15.3854 3.4448 15.3802 3.4432 15.3748 3.4432C15.3695 3.4432 15.3642 3.4448 15.3598 3.44779C15.3553 3.45078 15.3519 3.45504 15.3498 3.46L15.2868 3.646L15.0908 3.648C15.0853 3.6482 15.08 3.65007 15.0756 3.65336C15.0712 3.65666 15.0679 3.66123 15.0662 3.66645C15.0644 3.67167 15.0643 3.6773 15.0659 3.68258C15.0674 3.68786 15.0705 3.69255 15.0748 3.696L15.2338 3.812L15.1738 4C15.1725 4.00519 15.1727 4.01067 15.1745 4.01574C15.1762 4.0208 15.1795 4.02523 15.1837 4.02844C15.188 4.03166 15.1932 4.03353 15.1986 4.03381C15.2039 4.03409 15.2092 4.03276 15.2138 4.03L15.3748 3.915L15.5348 4.029C15.5394 4.03176 15.5448 4.03309 15.5501 4.03281C15.5555 4.03253 15.5606 4.03066 15.5649 4.02744C15.5692 4.02423 15.5724 4.0198 15.5742 4.01474C15.576 4.00967 15.5762 4.00419 15.5748 3.999L15.5158 3.812L15.6748 3.696C15.6798 3.69292 15.6836 3.68825 15.6856 3.68275C15.6876 3.67724 15.6877 3.67123 15.6858 3.66568C15.684 3.66013 15.6803 3.65536 15.6754 3.65215C15.6705 3.64895 15.6647 3.64748 15.6588 3.648L15.4618 3.646L15.4608 3.645ZM15.3988 5.185L15.4608 5.371L15.6578 5.373C15.6838 5.373 15.6938 5.406 15.6738 5.421L15.5148 5.538L15.5748 5.725C15.5772 5.73043 15.5777 5.73651 15.5762 5.74224C15.5746 5.74797 15.5712 5.75301 15.5664 5.75651C15.5616 5.76001 15.5558 5.76177 15.5499 5.7615C15.5439 5.76122 15.5383 5.75893 15.5338 5.755L15.3738 5.64L15.2138 5.755C15.2093 5.75842 15.2038 5.76027 15.1982 5.76029C15.1925 5.7603 15.187 5.75848 15.1825 5.75509C15.178 5.7517 15.1747 5.74693 15.1731 5.7415C15.1716 5.73607 15.1718 5.73028 15.1738 5.725L15.2328 5.538L15.0738 5.421C15.0695 5.41755 15.0664 5.41286 15.0649 5.40758C15.0633 5.4023 15.0634 5.39667 15.0652 5.39145C15.0669 5.38623 15.0702 5.38166 15.0746 5.37836C15.079 5.37507 15.0843 5.3732 15.0898 5.373L15.2868 5.371L15.3488 5.185C15.3509 5.18004 15.3543 5.17578 15.3588 5.17279C15.3632 5.1698 15.3685 5.1682 15.3738 5.1682C15.3792 5.1682 15.3844 5.1698 15.3889 5.17279C15.3933 5.17578 15.3968 5.18004 15.3988 5.185ZM15.4608 7.012L15.3988 6.825C15.3968 6.82003 15.3933 6.81578 15.3889 6.81279C15.3844 6.8098 15.3792 6.8082 15.3738 6.8082C15.3685 6.8082 15.3632 6.8098 15.3588 6.81279C15.3543 6.81578 15.3509 6.82003 15.3488 6.825L15.2858 7.012L15.0898 7.013C15.084 7.01248 15.0782 7.01395 15.0733 7.01715C15.0684 7.02036 15.0647 7.02513 15.0629 7.03068C15.061 7.03623 15.0611 7.04224 15.0631 7.04775C15.0651 7.05325 15.0689 7.05792 15.0738 7.061L15.2328 7.178L15.1728 7.366C15.1715 7.37119 15.1717 7.37667 15.1735 7.38174C15.1752 7.3868 15.1785 7.39123 15.1827 7.39444C15.187 7.39766 15.1922 7.39953 15.1976 7.39981C15.2029 7.40009 15.2082 7.39876 15.2128 7.396L15.3738 7.281L15.5338 7.395C15.5384 7.39776 15.5438 7.39909 15.5491 7.39881C15.5545 7.39853 15.5596 7.39666 15.5639 7.39344C15.5682 7.39022 15.5714 7.3858 15.5732 7.38074C15.575 7.37567 15.5752 7.37019 15.5738 7.365L15.5148 7.178L15.6738 7.061C15.6788 7.05792 15.6826 7.05325 15.6846 7.04775C15.6866 7.04224 15.6867 7.03623 15.6848 7.03068C15.683 7.02513 15.6793 7.02036 15.6744 7.01715C15.6695 7.01395 15.6637 7.01248 15.6578 7.013L15.4608 7.012ZM15.3988 8.299L15.4608 8.485L15.6578 8.487C15.6838 8.487 15.6938 8.52 15.6738 8.535L15.5148 8.652L15.5748 8.839C15.5818 8.863 15.5548 8.883 15.5338 8.869L15.3738 8.754L15.2138 8.869C15.1938 8.883 15.1648 8.863 15.1738 8.839L15.2328 8.651L15.0738 8.535C15.0689 8.53192 15.0651 8.52725 15.0631 8.52175C15.0611 8.51624 15.061 8.51023 15.0629 8.50468C15.0647 8.49913 15.0684 8.49436 15.0733 8.49115C15.0782 8.48795 15.084 8.48648 15.0898 8.487L15.2868 8.485L15.3488 8.299C15.3509 8.29403 15.3543 8.28978 15.3588 8.28679C15.3632 8.2838 15.3685 8.2822 15.3738 8.2822C15.3792 8.2822 15.3844 8.2838 15.3889 8.28679C15.3933 8.28978 15.3968 8.29403 15.3988 8.299ZM16.2198 2.909L16.1578 2.721C16.1498 2.697 16.1158 2.697 16.1078 2.721L16.0448 2.908L15.8488 2.91C15.8433 2.90986 15.8378 2.91149 15.8333 2.91466C15.8287 2.91783 15.8253 2.92237 15.8235 2.92762C15.8217 2.93286 15.8217 2.93855 15.8234 2.94383C15.825 2.94912 15.8283 2.95374 15.8328 2.957L15.9908 3.074L15.9318 3.262C15.9305 3.26719 15.9307 3.27267 15.9325 3.27774C15.9342 3.2828 15.9375 3.28723 15.9417 3.29044C15.946 3.29366 15.9512 3.29553 15.9566 3.29581C15.9619 3.29609 15.9672 3.29476 15.9718 3.292L16.1318 3.177L16.2918 3.291C16.2964 3.29411 16.3019 3.29572 16.3074 3.29561C16.313 3.29551 16.3184 3.29369 16.3229 3.29041C16.3274 3.28713 16.3307 3.28254 16.3325 3.27728C16.3343 3.27202 16.3344 3.26633 16.3328 3.261L16.2738 3.074L16.4318 2.957C16.4362 2.95379 16.4395 2.94926 16.4412 2.94407C16.4429 2.93889 16.4429 2.9333 16.4413 2.9281C16.4396 2.9229 16.4364 2.91835 16.432 2.9151C16.4276 2.91186 16.4223 2.91007 16.4168 2.91L16.2198 2.909ZM16.1578 4.278L16.2198 4.465L16.4168 4.466C16.4418 4.466 16.4528 4.499 16.4318 4.514L16.2738 4.631L16.3338 4.818C16.3354 4.82333 16.3353 4.82902 16.3335 4.83428C16.3317 4.83954 16.3284 4.84413 16.3239 4.84741C16.3194 4.85069 16.314 4.85251 16.3084 4.85261C16.3029 4.85272 16.2974 4.85111 16.2928 4.848L16.1328 4.733L15.9728 4.848C15.9682 4.85111 15.9628 4.85272 15.9572 4.85261C15.9517 4.85251 15.9463 4.85069 15.9418 4.84741C15.9373 4.84413 15.9339 4.83954 15.9322 4.83428C15.9304 4.82902 15.9303 4.82333 15.9318 4.818L15.9918 4.631L15.8328 4.514C15.8279 4.51092 15.8241 4.50625 15.8221 4.50075C15.8201 4.49524 15.82 4.48923 15.8219 4.48368C15.8237 4.47813 15.8274 4.47336 15.8323 4.47015C15.8372 4.46695 15.843 4.46548 15.8488 4.466L16.0448 4.465L16.1078 4.278C16.1158 4.254 16.1498 4.254 16.1578 4.278ZM16.2198 6.191L16.1578 6.005C16.1498 5.98 16.1158 5.98 16.1078 6.005L16.0448 6.191L15.8488 6.193C15.8433 6.1932 15.838 6.19507 15.8336 6.19836C15.8292 6.20166 15.8259 6.20623 15.8242 6.21145C15.8224 6.21667 15.8223 6.2223 15.8239 6.22758C15.8254 6.23286 15.8285 6.23755 15.8328 6.241L15.9908 6.358L15.9318 6.545C15.9305 6.55019 15.9307 6.55567 15.9325 6.56074C15.9342 6.5658 15.9375 6.57023 15.9417 6.57344C15.946 6.57666 15.9512 6.57853 15.9566 6.57881C15.9619 6.57909 15.9672 6.57776 15.9718 6.575L16.1318 6.46L16.2918 6.575C16.2964 6.57811 16.3019 6.57972 16.3074 6.57961C16.313 6.57951 16.3184 6.57769 16.3229 6.57441C16.3274 6.57113 16.3307 6.56654 16.3325 6.56128C16.3343 6.55602 16.3344 6.55033 16.3328 6.545L16.2738 6.357L16.4318 6.241C16.4361 6.23761 16.4392 6.23301 16.4408 6.22781C16.4424 6.22262 16.4423 6.21707 16.4407 6.21188C16.4391 6.2067 16.4359 6.20212 16.4317 6.19876C16.4274 6.19539 16.4222 6.19338 16.4168 6.193L16.2198 6.191ZM16.1578 7.591L16.2198 7.778L16.4168 7.78C16.4418 7.78 16.4528 7.812 16.4318 7.827L16.2738 7.944L16.3338 8.132C16.3362 8.13743 16.3367 8.14351 16.3352 8.14924C16.3336 8.15497 16.3302 8.16001 16.3254 8.16351C16.3206 8.16701 16.3148 8.16877 16.3089 8.1685C16.3029 8.16823 16.2973 8.16593 16.2928 8.162L16.1328 8.047L15.9728 8.161C15.9684 8.16493 15.9627 8.16723 15.9568 8.1675C15.9509 8.16777 15.945 8.16601 15.9403 8.16251C15.9355 8.15901 15.932 8.15397 15.9305 8.14824C15.929 8.14251 15.9294 8.13643 15.9318 8.131L15.9918 7.944L15.8328 7.827C15.8289 7.82347 15.8261 7.81886 15.8248 7.81374C15.8234 7.80862 15.8236 7.80323 15.8253 7.79822C15.827 7.79322 15.8302 7.78882 15.8343 7.78558C15.8385 7.78235 15.8436 7.7804 15.8488 7.78L16.0448 7.778L16.1078 7.591C16.1158 7.567 16.1498 7.567 16.1578 7.591ZM16.2198 9.221L16.1578 9.034C16.1498 9.01 16.1158 9.01 16.1078 9.034L16.0448 9.221L15.8488 9.223C15.8436 9.2234 15.8385 9.22535 15.8343 9.22858C15.8302 9.23182 15.827 9.23622 15.8253 9.24122C15.8236 9.24623 15.8234 9.25162 15.8248 9.25674C15.8261 9.26186 15.8289 9.26647 15.8328 9.27L15.9908 9.387L15.9318 9.575C15.9238 9.599 15.9518 9.619 15.9718 9.605L16.1318 9.49L16.2918 9.604C16.3128 9.619 16.3418 9.599 16.3328 9.574L16.2738 9.387L16.4318 9.27C16.4357 9.26653 16.4385 9.262 16.4399 9.25697C16.4413 9.25193 16.4412 9.2466 16.4396 9.24163C16.438 9.23666 16.435 9.23225 16.431 9.22894C16.4269 9.22564 16.422 9.22357 16.4168 9.223L16.2198 9.221Z" fill="#F5F5F5"/>
<path d="M11.719 22H3.28C2.41 21.9997 1.57572 21.6539 0.960629 21.0387C0.345538 20.4234 -4.0409e-08 19.589 0 18.719L0 10.28C0.000265164 9.41 0.346058 8.57572 0.961336 7.96063C1.57661 7.34554 2.411 7 3.281 7H11.719C12.5892 7 13.4237 7.34568 14.039 7.96098C14.6543 8.57629 15 9.41082 15 10.281V18.719C15 19.5892 14.6543 20.4237 14.039 21.039C13.4237 21.6543 12.5892 22 11.719 22Z" fill="#2841C1"/>
<path fill-rule="evenodd" clip-rule="evenodd" d="M2.4061e-08 10.393V11.002L2.327 12.526H2.4061e-08V13.316H6.316V7H5.526V11.791L0.52 8.511C0.325 8.813 0.179 9.151 0.092 9.511L2.4061e-08 10.393ZM0.519 20.49C0.400251 20.3052 0.300414 20.1088 0.221 19.904L0.021 19.092C0.00699613 18.9682 -1.49895e-05 18.8436 2.4061e-08 18.719V17.999L2.327 16.474H2.4061e-08V15.684H6.316V22H5.526V17.21L0.52 20.489L0.519 20.49ZM14.999 17.998V18.718L14.884 19.585C14.7965 19.9054 14.6606 20.2106 14.481 20.49L9.473 17.209V22H8.683V15.684H15V16.474H12.674L15 17.998H14.999ZM14.481 8.51C14.597 8.69 14.695 8.883 14.774 9.085L14.977 9.895C14.991 10.022 14.999 10.151 14.999 10.281V11.001L12.673 12.526H14.999V13.316H8.684V7H9.474V11.791L14.481 8.51Z" fill="#F6F6F6"/>
<path fill-rule="evenodd" clip-rule="evenodd" d="M8.68402 7H6.31602V13.316H2.34375e-05V15.684H6.31602V22H8.68402V15.684H15V13.316H8.68402V7ZM4.05402 16.474L0.0220234 19.092C0.0550234 19.375 0.122023 19.647 0.222023 19.904L5.50602 16.474H4.05602H4.05402ZM14.884 19.584L10.092 16.474H11.542L15 18.719C15 19.019 14.96 19.309 14.884 19.585V19.584ZM4.73702 12.527L0.0900234 9.511C0.0300234 9.758 -0.000976562 10.016 -0.000976562 10.281V10.393L3.28602 12.526H4.73602L4.73702 12.527ZM14.978 9.897L10.925 12.527H9.47502L14.776 9.087C14.876 9.342 14.945 9.614 14.978 9.897Z" fill="#FB4B4E"/>
</g>
</g>
<defs>
<clipPath id="clip0_3043_437">
<rect width="24" height="24" fill="white"/>
</clipPath>
</defs>
</svg>
