<svg width="24" height="24" fill="none" xmlns="http://www.w3.org/2000/svg"><path d="M20.719 2H12.28A3.281 3.281 0 0 0 9 5.281v8.438A3.28 3.28 0 0 0 12.281 17h8.438A3.281 3.281 0 0 0 24 13.719V5.28A3.281 3.281 0 0 0 20.719 2z" fill="#F6F6F6"/><path d="M16.5 13a3.5 3.5 0 1 0 0-7 3.5 3.5 0 0 0 0 7z" fill="#FB4B4E"/><path fill-rule="evenodd" clip-rule="evenodd" d="M.784 8.154h13.433c.285.334.504.725.637 1.154H.147c.134-.429.352-.82.637-1.154zM0 10.462h15v1.154H0v-1.154zm15 2.308H0v1.153h15V12.77zM0 15.077h15v1.154H0v-1.154zm15 2.308H0v1.154h15v-1.154zM.147 19.693h14.707a3.27 3.27 0 0 1-.637 1.154H.784a3.274 3.274 0 0 1-.637-1.154z" fill="#F5F5F5"/><path fill-rule="evenodd" clip-rule="evenodd" d="M11.719 7H3.28c-1 0-1.896.448-2.498 1.154h13.434A3.274 3.274 0 0 0 11.719 7zM15 11.615H0v1.155h15v-1.155zm-.147-2.307c.096.308.147.635.147.974v.18H0v-.18c0-.34.051-.666.147-.974h14.706zM15 13.923H0v1.154h15v-1.154zm0 4.616v.18c0 .34-.051.666-.147.974H.147A3.28 3.28 0 0 1 0 18.719v-.18h15zm-.783 2.307H.783A3.274 3.274 0 0 0 3.281 22h8.438c1 0 1.896-.448 2.498-1.154zM0 16.231h15v1.154H0V16.23v.001z" fill="#FA4051"/><path d="M8 7H3.25C1.455 7 0 8.47 0 10.281v4.796h8V7z" fill="#1939C9"/><path fill-rule="evenodd" clip-rule="evenodd" d="m2.613 7.721.062.187.197.002c.025 0 .036.032.015.047l-.158.117.06.188a.027.027 0 0 1-.041.03l-.16-.115-.16.114a.027.027 0 0 1-.04-.03l.058-.187-.158-.117a.026.026 0 0 1 .016-.047l.196-.002.063-.187a.027.027 0 0 1 .04-.012.027.027 0 0 1 .01.012zM.87 8.262a.027.027 0 0 0 .04.03l.16-.115.16.115a.027.027 0 0 0 .04-.03l-.057-.187.158-.117a.027.027 0 0 0-.016-.048l-.196-.002-.034-.1a3.296 3.296 0 0 0-.241.233l.046.034-.06.187zm.226 1.016.063.187.196.001c.026 0 .036.033.016.048l-.158.117.059.187a.027.027 0 0 1-.04.03l-.16-.115-.16.115a.027.027 0 0 1-.042-.03l.06-.187-.158-.117a.027.027 0 0 1 .015-.048l.197-.001.062-.187a.027.027 0 0 1 .04-.012.027.027 0 0 1 .01.012zm.064 1.912-.063-.186a.027.027 0 0 0-.04-.012.027.027 0 0 0-.01.012l-.062.186-.197.002a.028.028 0 0 0-.015.006.027.027 0 0 0-.01.029c.002.005.006.01.01.013l.158.117-.06.187a.027.027 0 0 0 .04.03l.16-.115.16.115a.027.027 0 0 0 .041-.014.027.027 0 0 0 0-.016l-.06-.187.16-.117a.027.027 0 0 0-.016-.048l-.196-.002zm-.063 1.4.063.187.196.002c.026 0 .036.032.016.047l-.158.117.059.188a.027.027 0 0 1-.025.034.026.026 0 0 1-.015-.004l-.16-.115-.16.114a.027.027 0 0 1-.042-.03l.06-.187-.158-.117a.027.027 0 0 1-.008-.028.027.027 0 0 1 .023-.019l.197-.002.062-.187a.027.027 0 0 1 .04-.012.027.027 0 0 1 .01.012zm.063 1.63-.063-.187a.027.027 0 0 0-.04-.012.027.027 0 0 0-.01.012l-.062.187-.197.002a.027.027 0 0 0-.023.019.027.027 0 0 0 .008.028l.158.117-.06.188a.027.027 0 0 0 .04.03l.16-.115.16.114a.027.027 0 0 0 .041-.014.027.027 0 0 0 0-.016l-.06-.187.16-.117a.027.027 0 0 0-.016-.047l-.196-.002zm.694-5.762.062.186.197.002c.026 0 .036.032.016.048l-.16.116.06.188a.027.027 0 0 1-.04.03l-.16-.115-.16.115a.027.027 0 0 1-.04-.03l.059-.188-.16-.116a.026.026 0 0 1-.01-.03.026.026 0 0 1 .027-.018l.197-.002.062-.186a.027.027 0 0 1 .04-.012.027.027 0 0 1 .01.012zm.062 1.913-.062-.187a.027.027 0 0 0-.04-.012.027.027 0 0 0-.01.012l-.062.187-.197.001a.027.027 0 0 0-.016.048l.159.117-.06.187a.027.027 0 0 0 .025.035.027.027 0 0 0 .016-.005l.16-.115.16.115c.004.003.01.004.015.004.005 0 .01-.002.015-.006a.027.027 0 0 0 .01-.028l-.06-.187.16-.117a.027.027 0 0 0-.016-.048l-.197-.001zm-.062 1.453.062.187.197.001c.026 0 .036.033.016.048l-.16.117.06.188a.027.027 0 0 1-.024.034.026.026 0 0 1-.015-.004l-.161-.115-.16.114a.027.027 0 0 1-.03-.002.027.027 0 0 1-.01-.028l.059-.187-.16-.117a.027.027 0 0 1-.008-.03.027.027 0 0 1 .025-.018l.197-.001.062-.187a.027.027 0 0 1 .04-.012.027.027 0 0 1 .01.012zm.062 1.66-.063-.184a.027.027 0 0 0-.04-.012.027.027 0 0 0-.01.012l-.062.186-.197.002a.027.027 0 0 0-.016.048l.159.116-.06.188a.027.027 0 0 0 .025.035.027.027 0 0 0 .016-.005l.16-.115.16.115c.004.003.01.004.015.004.005 0 .01-.002.015-.006a.027.027 0 0 0 .01-.028l-.06-.188.16-.116a.027.027 0 0 0-.016-.048l-.197-.002v-.002zm.76-4.02-.062-.187a.027.027 0 0 0-.04-.012.027.027 0 0 0-.01.012l-.063.187-.196.001a.027.027 0 0 0-.016.048l.158.117-.06.187a.027.027 0 0 0 .04.03l.16-.115.16.115a.027.027 0 0 0 .043-.03l-.06-.187.158-.117a.027.027 0 0 0-.015-.048l-.197-.001zm-.062 1.54.062.186.197.002c.025 0 .036.033.015.048l-.158.117.06.187a.027.027 0 0 1-.026.035.027.027 0 0 1-.015-.005l-.16-.115-.16.115a.027.027 0 0 1-.03-.002.027.027 0 0 1-.01-.028l.058-.187-.158-.117a.027.027 0 0 1-.009-.03.027.027 0 0 1 .025-.018l.195-.002.063-.186a.027.027 0 0 1 .04-.012.027.027 0 0 1 .01.012zm.062 1.773-.062-.187a.027.027 0 0 0-.04-.012.027.027 0 0 0-.01.012l-.063.187-.196.002a.027.027 0 0 0-.024.034c.001.005.004.01.008.013l.158.117-.06.188a.027.027 0 0 0 .01.028.027.027 0 0 0 .03.002l.16-.115.16.114a.027.027 0 0 0 .043-.03l-.06-.187.158-.117a.027.027 0 0 0 .008-.028.027.027 0 0 0-.023-.019l-.197-.002zm-.062 1.256.062.187.197.002c.025 0 .036.032.015.047l-.158.117.06.188a.027.027 0 0 1-.026.035.027.027 0 0 1-.015-.005l-.16-.115-.16.114a.027.027 0 0 1-.03-.002.027.027 0 0 1-.01-.028l.058-.187-.158-.117a.027.027 0 0 1 .016-.047l.195-.002.063-.187a.027.027 0 0 1 .04-.012.027.027 0 0 1 .01.012zm.818-5.389L3.37 8.46a.027.027 0 0 0-.04-.012.027.027 0 0 0-.01.012l-.063.186-.196.002a.027.027 0 0 0-.016.048l.158.116-.06.188a.027.027 0 0 0 .026.036.027.027 0 0 0 .016-.006l.16-.115.16.115a.027.027 0 0 0 .04-.03l-.06-.188.159-.116a.026.026 0 0 0-.015-.048l-.197-.002v-.002zm-.062 1.54.062.187.197.001c.025 0 .036.033.015.048l-.158.117.06.187a.027.027 0 0 1-.026.035.027.027 0 0 1-.015-.005l-.16-.115-.16.115a.027.027 0 0 1-.04-.014.027.027 0 0 1-.001-.016l.06-.187-.16-.117a.027.027 0 0 1-.008-.03.027.027 0 0 1 .025-.018l.196-.002.062-.186a.027.027 0 0 1 .04-.012.03.03 0 0 1 .01.012zm.062 1.827-.062-.187a.026.026 0 0 0-.05 0l-.063.187-.196.001a.027.027 0 0 0-.016.048l.158.117-.06.188a.027.027 0 0 0 .042.03l.16-.115.16.114c.004.003.01.004.015.004.005 0 .01-.002.015-.006a.027.027 0 0 0 .01-.028l-.06-.187.159-.117a.027.027 0 0 0-.015-.048l-.197-.001zm-.062 1.288.062.186.197.002c.025 0 .036.032.015.048l-.158.116.06.188a.027.027 0 0 1-.026.035.027.027 0 0 1-.015-.005l-.16-.115-.16.115a.027.027 0 0 1-.04-.014.027.027 0 0 1-.001-.016l.06-.188-.16-.116a.027.027 0 0 1-.008-.03.027.027 0 0 1 .025-.018l.196-.002.062-.186a.027.027 0 0 1 .04-.012.03.03 0 0 1 .01.012zm.822-5.39-.062-.188a.027.027 0 0 0-.04-.012.027.027 0 0 0-.01.012l-.063.187-.197.002a.026.026 0 0 0-.025.034c.002.005.005.01.01.013l.158.117-.06.188a.027.027 0 0 0 .04.03l.16-.115.16.114a.027.027 0 0 0 .042-.014.027.027 0 0 0 0-.016l-.06-.187.16-.117a.026.026 0 0 0-.016-.047l-.197-.001zM4.13 9.278l.062.187.197.001c.025 0 .036.033.015.048l-.158.117.06.187a.027.027 0 0 1-.042.03l-.16-.115-.16.115a.027.027 0 0 1-.04-.03l.059-.187-.158-.117a.027.027 0 0 1 .015-.048l.197-.002.062-.186a.027.027 0 0 1 .04-.012.03.03 0 0 1 .01.012zm.06 1.912-.062-.186a.027.027 0 0 0-.04-.012.027.027 0 0 0-.01.012l-.063.186-.197.002a.028.028 0 0 0-.015.006.027.027 0 0 0-.01.029c.002.005.006.01.01.013l.158.117-.06.187a.027.027 0 0 0 .025.035.027.027 0 0 0 .016-.005l.16-.115.16.115a.027.027 0 0 0 .04-.014.027.027 0 0 0 0-.016l-.06-.187.16-.117a.027.027 0 0 0 .01-.03.027.027 0 0 0-.025-.018l-.197-.002zm-.062 1.4.062.187.197.002c.025 0 .036.032.015.047l-.158.117.06.188a.027.027 0 0 1-.042.03l-.16-.115-.16.114a.027.027 0 0 1-.03-.002.027.027 0 0 1-.01-.028l.059-.187-.158-.117a.027.027 0 0 1 0-.041.027.027 0 0 1 .015-.006l.197-.002.062-.187a.027.027 0 0 1 .04-.012.03.03 0 0 1 .01.012zm.062 1.63-.062-.187a.027.027 0 0 0-.04-.012.027.027 0 0 0-.01.012l-.063.187-.197.002a.027.027 0 0 0-.023.019.027.027 0 0 0 .008.028l.158.117-.06.188a.027.027 0 0 0 .025.035.027.027 0 0 0 .016-.005l.16-.115.16.114a.027.027 0 0 0 .04-.014.027.027 0 0 0 0-.016l-.06-.187.16-.117a.027.027 0 0 0-.015-.047l-.197-.002zm.694-5.762.063.186.196.002c.026 0 .036.032.016.048L5 8.81 5.06 9a.027.027 0 0 1-.04.03l-.16-.115-.16.115a.027.027 0 0 1-.04-.014A.027.027 0 0 1 4.658 9l.059-.188-.158-.116a.027.027 0 0 1 .015-.048l.197-.002.062-.186a.026.026 0 0 1 .05 0v-.002zm.063 1.913-.063-.187a.026.026 0 0 0-.05 0l-.062.187-.197.001a.028.028 0 0 0-.015.006.027.027 0 0 0-.01.029c.002.005.006.01.01.013l.158.117-.06.187a.027.027 0 0 0 .025.035.027.027 0 0 0 .016-.005l.16-.115.16.115a.027.027 0 0 0 .04-.014.027.027 0 0 0 0-.016L5 10.537l.16-.117a.027.027 0 0 0-.016-.048l-.196-.001zm-.063 1.453.063.187.196.001c.026 0 .036.033.016.048L5 12.177l.059.188a.027.027 0 0 1-.025.034.026.026 0 0 1-.015-.004l-.16-.115-.16.114a.027.027 0 0 1-.04-.014.027.027 0 0 1-.001-.016l.059-.187-.158-.117a.027.027 0 0 1 .015-.048l.197-.001.062-.187a.026.026 0 0 1 .05 0zm.063 1.66-.062-.184a.026.026 0 0 0-.05 0l-.062.186-.197.002a.028.028 0 0 0-.015.006.027.027 0 0 0-.01.029c.002.005.006.01.01.013l.158.116-.06.188a.027.027 0 0 0 .025.035.027.027 0 0 0 .016-.005l.16-.115.16.115a.027.027 0 0 0 .04-.014.027.027 0 0 0 0-.016L5 13.652l.16-.116a.027.027 0 0 0 .008-.03.027.027 0 0 0-.024-.018l-.196-.002-.001-.002zm.695-5.764.063.187.196.002c.026 0 .036.032.016.047l-.158.117.059.188a.027.027 0 0 1-.04.03l-.16-.115-.16.114a.027.027 0 0 1-.042-.03l.06-.187-.16-.117a.026.026 0 0 1 .017-.047l.197-.002.062-.187a.026.026 0 0 1 .05 0zm.063 1.744-.063-.187a.027.027 0 0 0-.04-.012.027.027 0 0 0-.01.012l-.062.187-.197.001a.027.027 0 0 0-.016.048l.159.117-.06.187a.027.027 0 0 0 .04.03l.16-.115.16.115a.027.027 0 0 0 .04-.03L5.76 9.63l.158-.117a.027.027 0 0 0-.016-.048l-.196-.001zm-.063 1.54.063.186.196.002c.026 0 .036.033.016.048l-.158.117.059.187a.027.027 0 0 1-.025.034.026.026 0 0 1-.015-.004l-.16-.115-.16.115a.027.027 0 0 1-.042-.03l.06-.187-.16-.117a.027.027 0 0 1-.008-.03.027.027 0 0 1 .025-.018l.197-.002.062-.186a.027.027 0 0 1 .04-.012.027.027 0 0 1 .01.012zm.063 1.773-.063-.187a.027.027 0 0 0-.04-.012.027.027 0 0 0-.01.012l-.062.187-.197.002a.027.027 0 0 0-.024.034c.001.005.004.01.008.013l.159.117-.06.188a.027.027 0 0 0 .025.035.027.027 0 0 0 .016-.005l.16-.115.16.114c.004.003.01.004.015.004.005 0 .01-.002.015-.006a.027.027 0 0 0 .01-.028l-.058-.187.158-.117a.027.027 0 0 0-.016-.047l-.196-.002zm-.063 1.256.063.187.196.002c.026 0 .036.032.016.047l-.158.117.059.188a.027.027 0 0 1-.025.034.026.026 0 0 1-.015-.004l-.16-.115-.16.114a.027.027 0 0 1-.042-.03l.06-.187-.16-.117a.027.027 0 0 1 .017-.047l.197-.002.062-.187a.027.027 0 0 1 .04-.012.027.027 0 0 1 .01.012zm.818-5.389L6.4 8.46a.027.027 0 0 0-.04-.012.027.027 0 0 0-.01.012l-.062.186-.197.002a.027.027 0 0 0-.016.048l.159.116-.06.188a.027.027 0 0 0 .04.03l.16-.115.16.115a.027.027 0 0 0 .04-.03l-.058-.188.159-.116a.026.026 0 0 0-.016-.048l-.197-.002-.002-.002zm-.06 1.541.062.187.197.001c.026 0 .036.033.016.048l-.16.117.06.187a.027.027 0 0 1-.025.035.027.027 0 0 1-.015-.005l-.16-.115-.16.115a.027.027 0 0 1-.03-.002.027.027 0 0 1-.01-.028l.059-.187-.16-.117a.027.027 0 0 1-.008-.03.027.027 0 0 1 .025-.018l.197-.002.062-.186a.027.027 0 0 1 .04-.012.027.027 0 0 1 .01.012zm.062 1.827-.062-.187a.027.027 0 0 0-.04-.012.027.027 0 0 0-.01.012l-.062.187-.197.001a.027.027 0 0 0-.016.048l.159.117-.06.188a.027.027 0 0 0 .025.034c.005 0 .01-.001.015-.004l.16-.115.16.114c.005.003.01.004.016.004.005 0 .01-.002.015-.006a.027.027 0 0 0 .01-.028l-.06-.187.16-.117a.027.027 0 0 0-.016-.048l-.197-.001zM6.4 13.299l.062.186.197.002c.026 0 .036.032.016.048l-.16.116.06.188a.027.027 0 0 1-.025.035.027.027 0 0 1-.015-.005l-.16-.115-.16.115a.027.027 0 0 1-.03-.002.027.027 0 0 1-.01-.028l.059-.188-.16-.116a.027.027 0 0 1-.008-.03.027.027 0 0 1 .025-.018l.197-.002.062-.186a.027.027 0 0 1 .04-.012.027.027 0 0 1 .01.012zm.82-5.39-.061-.188a.026.026 0 0 0-.05 0l-.063.187-.196.002a.026.026 0 0 0-.016.047l.158.117-.06.188a.027.027 0 0 0 .04.03l.16-.115.16.114a.027.027 0 0 0 .043-.03l-.06-.187.158-.117a.027.027 0 0 0-.015-.047l-.197-.001zM7.16 9.278l.062.187.197.001c.025 0 .036.033.015.048l-.158.117.06.187a.027.027 0 0 1-.041.03l-.16-.115-.16.115a.027.027 0 0 1-.04-.014.027.027 0 0 1-.001-.016l.06-.187-.16-.117a.027.027 0 0 1 .017-.048l.196-.001.063-.187a.027.027 0 0 1 .04-.012.027.027 0 0 1 .01.012zm.06 1.912-.061-.186a.027.027 0 0 0-.04-.012.027.027 0 0 0-.01.012l-.063.186-.196.002a.027.027 0 0 0-.016.048l.158.117-.06.187a.027.027 0 0 0 .01.028.027.027 0 0 0 .03.002l.16-.115.16.115a.027.027 0 0 0 .043-.03l-.06-.187.158-.117a.027.027 0 0 0-.015-.048l-.197-.002zm-.061 1.4.062.187.197.002c.025 0 .036.032.015.047l-.158.117.06.188a.027.027 0 0 1-.026.035.027.027 0 0 1-.015-.005l-.16-.115-.16.114a.027.027 0 0 1-.04-.014.027.027 0 0 1-.001-.016l.06-.187-.16-.117a.027.027 0 0 1 .017-.047l.196-.002.063-.187a.027.027 0 0 1 .04-.012.027.027 0 0 1 .01.012zm.062 1.63-.062-.187a.027.027 0 0 0-.04-.012.027.027 0 0 0-.01.012l-.063.187-.196.002a.027.027 0 0 0-.024.034c.001.005.004.01.008.013l.158.117-.06.188a.027.027 0 0 0 .01.028.027.027 0 0 0 .03.002l.16-.115.16.114a.027.027 0 0 0 .043-.03l-.06-.187.158-.117a.027.027 0 0 0 .008-.028.027.027 0 0 0-.023-.019l-.197-.002z" fill="#F5F5F5"/></svg>