<svg width="24" height="24" viewBox="0 0 24 24" fill="none" xmlns="http://www.w3.org/2000/svg">
<g clip-path="url(#clip0_3043_434)">
<path d="M20.719 2H12.28C11.41 2.00027 10.5757 2.34606 9.96063 2.96134C9.34554 3.57661 9 4.411 9 5.281V13.719C9 14.5892 9.34568 15.4237 9.96098 16.039C10.5763 16.6543 11.4108 17 12.281 17H20.719C21.5892 17 22.4237 16.6543 23.039 16.039C23.6543 15.4237 24 14.5892 24 13.719V5.28C23.9997 4.41 23.6539 3.57572 23.0387 2.96063C22.4234 2.34554 21.589 2 20.719 2Z" fill="#F6F6F6"/>
<path d="M16.5 13C16.9596 13 17.4148 12.9095 17.8394 12.7336C18.264 12.5577 18.6499 12.2999 18.9749 11.9749C19.2999 11.6499 19.5577 11.264 19.7336 10.8394C19.9095 10.4148 20 9.95963 20 9.5C20 9.04037 19.9095 8.58525 19.7336 8.16061C19.5577 7.73597 19.2999 7.35013 18.9749 7.02513C18.6499 6.70012 18.264 6.44231 17.8394 6.26642C17.4148 6.09053 16.9596 6 16.5 6C15.5717 6 14.6815 6.36875 14.0251 7.02513C13.3687 7.6815 13 8.57174 13 9.5C13 10.4283 13.3687 11.3185 14.0251 11.9749C14.6815 12.6313 15.5717 13 16.5 13Z" fill="#FB4B4E"/>
<path d="M11.719 22H3.28C2.41 21.9997 1.57572 21.6539 0.960629 21.0387C0.345538 20.4234 -4.0409e-08 19.589 0 18.719L0 10.28C0.000265164 9.41 0.346058 8.57572 0.961336 7.96063C1.57661 7.34554 2.411 7 3.281 7H11.719C12.5892 7 13.4237 7.34568 14.039 7.96098C14.6543 8.57629 15 9.41082 15 10.281V18.719C15 19.5892 14.6543 20.4237 14.039 21.039C13.4237 21.6543 12.5892 22 11.719 22Z" fill="#2841C1"/>
<path fill-rule="evenodd" clip-rule="evenodd" d="M2.4061e-08 10.393V11.002L2.327 12.526H2.4061e-08V13.316H6.316V7H5.526V11.791L0.52 8.511C0.325 8.813 0.179 9.151 0.092 9.511L2.4061e-08 10.393ZM0.519 20.49C0.400251 20.3052 0.300414 20.1088 0.221 19.904L0.021 19.092C0.00699613 18.9682 -1.49895e-05 18.8436 2.4061e-08 18.719V17.999L2.327 16.474H2.4061e-08V15.684H6.316V22H5.526V17.21L0.52 20.489L0.519 20.49ZM14.999 17.998V18.718L14.884 19.585C14.7965 19.9054 14.6606 20.2106 14.481 20.49L9.473 17.209V22H8.683V15.684H15V16.474H12.674L15 17.998H14.999ZM14.481 8.51C14.597 8.69 14.695 8.883 14.774 9.085L14.977 9.895C14.991 10.022 14.999 10.151 14.999 10.281V11.001L12.673 12.526H14.999V13.316H8.684V7H9.474V11.791L14.481 8.51Z" fill="#F6F6F6"/>
<path fill-rule="evenodd" clip-rule="evenodd" d="M8.68402 7H6.31602V13.316H2.34375e-05V15.684H6.31602V22H8.68402V15.684H15V13.316H8.68402V7ZM4.05402 16.474L0.0220234 19.092C0.0550234 19.375 0.122023 19.647 0.222023 19.904L5.50602 16.474H4.05602H4.05402ZM14.884 19.584L10.092 16.474H11.542L15 18.719C15 19.019 14.96 19.309 14.884 19.585V19.584ZM4.73702 12.527L0.0900234 9.511C0.0300234 9.758 -0.000976562 10.016 -0.000976562 10.281V10.393L3.28602 12.526H4.73602L4.73702 12.527ZM14.978 9.897L10.925 12.527H9.47502L14.776 9.087C14.876 9.342 14.945 9.614 14.978 9.897Z" fill="#FB4B4E"/>
</g>
<defs>
<clipPath id="clip0_3043_434">
<rect width="24" height="24" fill="white"/>
</clipPath>
</defs>
</svg>
